<svg width="207" height="48" fill="none" xmlns="http://www.w3.org/2000/svg"><path d="M190.987 25.763a8.707 8.707 0 01.032-2.823 23.53 23.53 0 00.045 3.359c0-.188-.058-.35-.077-.536zm1.031 2.008c-.58-2.5-.786-5.645 1.07-7.498.135-.136.239-.284.367-.426l-.412-.104c-.077.084-.142.181-.226.265a5.29 5.29 0 00-1.328 2.364c.195-.973.566-1.9 1.096-2.738l-.644-.13c-.097.168-.2.33-.29.504.09-.18.193-.336.283-.504l-.399-.084a12.044 12.044 0 00-1.47 6.459c0 .484.039.93.071 1.375l.38.084a46.621 46.621 0 01-.077-1.479c-.021-.67.009-1.342.09-2.008a9.165 9.165 0 00.071 1.937c.084.575.161 1.105.238 1.622.252.058.497.129.729.193v-.161c0 .058 0 .11.032.161l.425.136M194.862 37.678a3.914 3.914 0 01-.303.246 10.638 10.638 0 01.328 8.635c.149-.045.303-.078.445-.117a10.92 10.92 0 00-.47-8.764z" fill="#931C80"/><path d="M195.679 36.865c-.134.18-.28.35-.439.51 1.044 1.938 1.579 4.812.129 9.042l.445-.123c.41-1.225.67-2.496.773-3.785a14.633 14.633 0 01-.502 3.695l.425-.155a13.186 13.186 0 00-.831-9.197M192.914 3.23l.341.645c1.592 2.958 3.403 6.303 2.043 9.959-.038.11-.103.2-.148.31l.297.303h.283c.24-.525.422-1.075.542-1.64a13.089 13.089 0 01-.336 1.64h.407a15.085 15.085 0 00-.703-9.106 18.172 18.172 0 00-2.417-4.65l-.644-.161a16.74 16.74 0 012.687 4.947c.142.38.239.762.355 1.143a18.483 18.483 0 00-2.933-5.328 8.496 8.496 0 00-.915-.917l-.715-.117c.49.38.937.814 1.334 1.292a16.73 16.73 0 013.544 7.75 21.365 21.365 0 00-2.352-5.6l-.335-.645c-.832-1.505-1.579-2.351-2.681-2.88A29.89 29.89 0 00188.77 0c2.062.394 3.042 1.182 4.144 3.23z" fill="#931C80"/><path d="M196.072 36.335c.774 2.183 1.244 5.309.703 9.636l.406-.142c.541-4.586 0-7.834-.864-10.043a5.24 5.24 0 01-.245.55zM179.966 1.15c1.257-.033 2.353-.11 3.339-.175 4.511-.31 6.374-.426 9.268 4.07 2.823 4.39 2.958 6.697 2.224 8.737l.29.297c.85-2.17.799-4.579-2.198-9.242-2.997-4.663-5.079-4.52-9.61-4.236-.98.064-2.075.135-3.326.174h-1.179c-.4.103-.793.213-1.167.336.709.039 1.476.058 2.359.032M175.499 23.347l.303-.807c.767-1.938 1.972-4.282 4.588-5.645l-.386-.206c-2.611 1.472-3.867 3.875-4.557 5.715l-.303.808a2.501 2.501 0 01-.103.29l.335.175c.045-.104.084-.226.123-.33z" fill="#931C80"/><path d="M180.095 1.853c3.784-.335 7.734-.393 10.557 2.913 1.844 2.138 3.126 3.765 3.139 5.412.126.162.24.333.342.51.29-2.124-1.36-4.049-3.223-6.174-2.952-3.436-7.167-3.364-10.879-3.035-.864.07-1.998.239-3.261.42-.561.077-1.148.168-1.753.245-.31.155-.587.33-.871.497.909-.116 1.812-.245 2.675-.368 1.257-.18 2.385-.342 3.223-.42M172.966 9.797c2.108-1.046 4.738-2.344 7.451-2.344a27.392 27.392 0 014.937.394H187.055a23.441 23.441 0 00-6.638-.743c-2.797 0-5.472 1.292-7.618 2.377-1.418.697-2.578 1.246-3.654 1.292-.181 0-.381-.104-.581-.155 0 .135-.045.27-.064.407.206.051.406.09.599.122.928.117 2.276-.536 3.867-1.291" fill="#931C80"/><path d="M169.074 11.774c2.292-.074 4.532-.7 6.529-1.828a15.45 15.45 0 015.801-1.64c.718-.19 1.451-.32 2.191-.388a15.962 15.962 0 00-8.198 1.699 13.724 13.724 0 01-6.335 1.776c-.226 0-.407-.059-.613-.072v.375c.219 0 .4.078.645.078M171.542 20.932c.2.206.393.413.606.607.406-.71.805-1.44 1.192-2.15 1.044-1.906 2.03-3.708 2.643-4.328a3.863 3.863 0 011.933-.717 4.534 4.534 0 01-.18-.678l-.567.116a2.579 2.579 0 00-1.573.917c.097-.168.206-.342.29-.465a3.288 3.288 0 011.805-.904c0-.213-.039-.432-.052-.646a5.853 5.853 0 00-3.667 2.622 62.43 62.43 0 00-1.193 2.28c-.496.982-1.044 2.054-1.591 3.003.083.097.18.181.27.272.554-.943 1.109-2.015 1.663-3.107.419-.833.819-1.627 1.18-2.26a4.521 4.521 0 011.243-1.402c-.496.73-1.244 2.054-2.043 3.462a87.154 87.154 0 01-1.965 3.39" fill="#931C80"/><path d="M185.463 5.587c1.615.65 3.133 1.52 4.512 2.583.271.058.522.116.76.18a17.254 17.254 0 00-5.117-3.132c-2.32-1.007-5.292-.768-8.289-.161l1.141-.29c1.218-.317 2.314-.601 3.126-.763 3.777-.723 6.529-.22 8.63 1.557 1.818 1.556 2.913 3.048 2.958 3.978.122.097.236.203.342.317.181-1.047-.909-2.752-3.042-4.56-2.133-1.808-5.059-2.396-8.946-1.64-.818.16-1.933.445-3.152.762a49.92 49.92 0 01-7.946 1.588c-.097.13-.194.265-.284.4a25.68 25.68 0 003.532-.477c-1.237.31-2.481.575-3.719.762-.084.136-.142.278-.219.413a44.958 44.958 0 005.001-1.046c3.777-.962 7.793-1.737 10.712-.471zM169.989 17.38c.094-.42.239-.825.432-1.208.689-1.137 4.118-3.727 6.058-4.373.374-.129.825-.251 1.289-.374a3.47 3.47 0 01.148-.433c-.56.149-1.108.297-1.553.446-2.043.684-5.53 3.326-6.265 4.52a5.4 5.4 0 00-.47 1.292c-.052.188-.11.375-.161.556.077.174.135.349.219.517.118-.32.219-.646.303-.976M168.448 13.175c2.379-.123 6.613-1.33 8.727-2.067l.793-.27c.078-.175.168-.343.271-.504a42.07 42.07 0 00-1.173.4c-2.095.723-6.284 1.937-8.566 2.054h-.064v.394l.012-.007zM168.714 15.5c.025.133.057.265.096.394 1.289-.833 2.579-1.86 2.688-2.176v-.142l-.064-.084a.422.422 0 00-.361-.13c-.894.098-1.775.298-2.624.595 0 .129 0 .252.045.38h.084c.645-.225 1.998-.574 2.533-.723a12.524 12.524 0 01-2.43 1.938M176.951 32.292l-.278-.271c-.644.794-1.289 1.608-1.998 2.428a23.665 23.665 0 001.747-2.68l-.116-.123h-.251a21.46 21.46 0 01-1.831 2.77 4.678 4.678 0 01-3.886 1.751 12.72 12.72 0 01-2.192-.232l.097.394c.691.132 1.392.203 2.095.213a5.039 5.039 0 003.912-1.59 38.805 38.805 0 01-4.769 4.6l.193.335a48.391 48.391 0 007.277-7.595zM184.891 26.337h.142a163.559 163.559 0 00-1.109-3.003.644.644 0 00-.58-.458c-.677 0-1.67 1.246-2.578 2.66l.386.091c.954-1.401 1.773-2.377 2.192-2.377.045 0 .142 0 .226.226.154.388.541 1.428 1.037 2.797l.284.039M188.7 39.513c.18 2.234-.31 3.59-4.202 5.928a11.42 11.42 0 01-3.906 1.454c.316.064.644.122.979.174a11.648 11.648 0 003.12-1.292c4.047-2.428 4.576-3.926 4.389-6.277h-.38" fill="#931C80"/><path d="M185.837 26.48l.348.058a34.616 34.616 0 01-.271-2.584c-.109-1.705-.567-2.531-1.385-2.531-.819 0-1.624.69-2.578 1.42-.297.233-.6.472-.896.679a6.693 6.693 0 00-1.463 1.718l.38.11a5.925 5.925 0 011.289-1.518c.303-.213.606-.453.915-.692.838-.645 1.715-1.336 2.321-1.336.219 0 .87 0 1.005 2.176.058.814.187 1.647.303 2.474M189.77 39.448c.702 2.467 1.205 5.496.696 7.866l.393-.038c.47-2.41 0-5.419-.722-7.886-.129 0-.239.045-.367.058zM188.59 40.92c.103-.461.103-.94 0-1.401h-.373c.107.423.118.864.032 1.292-.329 1.427-1.895 2.364-3.726 3.461-1.83 1.098-5.31 1.357-7.843 1.421.277.117.573.213.863.317 2.746-.13 5.64-.491 7.341-1.511 1.702-1.02 3.365-2.022 3.732-3.604M177.801 35.954a3.268 3.268 0 01-.168-.349 18.843 18.843 0 01-3.622 2.435c-.864.433-2.378 1.292-4.009 2.325.064.103.122.207.193.31 1.489-.936 2.933-1.776 3.983-2.3a19.08 19.08 0 003.623-2.421z" fill="#931C80"/><path d="M179.354 44.247c.82.114 1.647.18 2.475.2 1.933 0 2.977-.646 3.222-1.938.127-.61.293-1.212.497-1.801.18-.376.251-.794.206-1.208h-.4c.076.378.019.77-.161 1.11-.212.604-.382 1.221-.509 1.848-.226 1.123-1.109 1.627-2.862 1.627-.81-.02-1.619-.085-2.423-.194a17.633 17.633 0 00-1.934-.161h-2.623c-.387 0-1.057 0-1.766-.052.181.136.342.278.535.407.948.039 1.934 0 2.778 0h1.076c.622.02 1.241.073 1.857.162M176.434 39.81c1.753-.646 2.378-1.292 2.919-2.106l-.296-.239c-.522.756-1.083 1.356-2.759 1.99-.67.235-1.352.436-2.043.6-1.24.24-2.435.675-3.538 1.292l.238.303c1.068-.586 2.22-1 3.416-1.227.761-.2 1.495-.394 2.082-.646" fill="#931C80"/><path d="M183.608 39.332a.877.877 0 01-.039.516c-.1.293-.165.596-.193.905 0 .09-.032.193-.045.29.084-.555.193-1.188.277-1.711zm-7.392 1.027a18.048 18.048 0 003.957-2.164 6.121 6.121 0 01-.342-.2 18.87 18.87 0 01-3.738 2.015c-1.708.769-2.675 1.227-2.803 1.744a.549.549 0 00.109.471c.599.775 3.603 1.292 6.026 1.292.907.021 1.813-.079 2.694-.297 1.399-.388 1.554-1.57 1.663-2.422.024-.276.083-.547.174-.808.081-.205.105-.428.071-.645l-.748-.123c-.096.568-.219 1.292-.309 1.892-.09.6-1.205.84-2.726.691a.441.441 0 01-.348-.2 1.976 1.976 0 01-.142-1.453c.176-.58.49-1.107.915-1.537.028-.043.058-.084.09-.123-.128-.051-.232-.116-.348-.168l-.032.046a4.226 4.226 0 00-.999 1.71 2.318 2.318 0 00.213 1.751.97.97 0 00.773.368c.265 0 .645.058 1.006.058 1.198 0 1.862-.361 1.972-1.078a1.806 1.806 0 01-1.328 1.686c-.843.21-1.71.305-2.578.284-2.533 0-5.259-.55-5.8-1.292.09-.368 1.417-.962 2.578-1.492M191.734 39.119a12.934 12.934 0 01.258 8.021c.148 0 .29-.052.445-.077a13.121 13.121 0 00-.335-8.054l-.368.11z" fill="#931C80"/><path d="M192.418 38.925c.838 1.692 1.076 5.167.574 8.047l.386-.065c.484-2.841.297-6.258-.593-8.092l-.367.11zM172.954 33.397a7.394 7.394 0 002.707-1.75h-.522a6.812 6.812 0 01-7.334 1.29v.408a7.236 7.236 0 005.156.064M189.253 19.033l-.426-.065c.088.2.164.405.226.614.599 2.241.129 4.224-.251 5.813a15.33 15.33 0 00-.31 1.53l.374.071c.069-.51.17-1.014.303-1.511.387-1.634.87-3.668.245-6a4.23 4.23 0 00-.161-.452zM187.036 18.897a2.265 2.265 0 00-.567-.31l-1.102-.2a4.793 4.793 0 00-1.482.149 7.01 7.01 0 00-4.557 3.63 21.598 21.598 0 00-.902 2.75l.361.104c.229-.92.526-1.823.889-2.7a6.61 6.61 0 014.299-3.416 3.38 3.38 0 012.836.297c1.405 1.053 1.386 2.092 1.321 4.598 0 .582-.032 1.247-.032 1.996v1.06l.374.07v-1.13-1.983c.064-2.583.096-3.746-1.47-4.915" fill="#931C80"/><path d="M171.794 32.408c.374-.194.712-.452.999-.762h-.599a3.091 3.091 0 01-.555.452 4.267 4.267 0 01-3.371.13c-.109 0-.219-.084-.316-.123l-.206.2v.13c.135.044.271.115.4.154a4.633 4.633 0 003.667-.161M179.96 19.795a26.326 26.326 0 013.699-1.783l-.606-.16a26.68 26.68 0 00-3.28 1.62 9.632 9.632 0 00-3.906 4.424l.348.149a9.4 9.4 0 013.745-4.27M203.311 41.54c.103-.129.219-.251.316-.38-.18-1.363.238-2.584 1.972-4.27.058-.213.116-.426.155-.645-2.327 2.099-2.746 3.636-2.443 5.29M203.91 11.961a10.845 10.845 0 00-.136-1.033 40.017 40.017 0 00-4.266-6.123 28.222 28.222 0 01-1.824-2.422c-.226-.129-.451-.245-.69-.362a23.562 23.562 0 002.224 3.03 37.989 37.989 0 014.718 6.91M197.876 31.142c.131.371.284.734.458 1.086.593 1.2 1.843 2.176 2.791 2.176.164 0 .327-.035.477-.103 1.031-.446 1.998-3.875 1.998-7.105a9.902 9.902 0 00-.129-1.575 14.628 14.628 0 00-.567-.685 8.27 8.27 0 01.322 2.26c0 3.469-1.057 6.459-1.779 6.75-.722.29-2.172-.646-2.778-1.9a10.897 10.897 0 01-1.095-5.85 8.479 8.479 0 01.599-2.584c.077-.207.161-.407.238-.678.108-.4.153-.814.136-1.227-.123-.065-.258-.123-.387-.181.031.433-.003.869-.103 1.292-.084.258-.155.445-.232.645a8.847 8.847 0 00-.645 2.7 9.202 9.202 0 00.071 2.519 15.499 15.499 0 01-.109-6.723c.077-.285.142-.536.206-.814-.116-.052-.239-.09-.348-.136-.077.284-.142.556-.219.86-1.379 5.263 1.811 12.51 1.933 12.787.555 2.08.406 5.45-.477 10.727l.413-.187c.851-5.167.986-8.544.425-10.67a29.136 29.136 0 01-1.199-3.37" fill="#931C80"/><path d="M204.664 35.373c-.154.278-.309.542-.47.807a8.098 8.098 0 00-1.341 5.903c.116-.13.219-.258.322-.387a7.76 7.76 0 011.341-5.322c.168-.272.322-.543.477-.82.277-.465.603-.898.973-1.292v-.594a8.77 8.77 0 00-1.327 1.679M197.852 6.458c0 .09.051.194.084.285a49.403 49.403 0 00-.445-1.17c.116.298.258.575.361.885zm.206 8.022h.38a30.655 30.655 0 00-.728-6.866 13.608 13.608 0 00-.516-1.814 43.7 43.7 0 01.838 2.357 42.347 42.347 0 011.508 6.323h.742c-.181-.737-.361-1.512-.548-2.306l-.484-2.034c.432 1.466.89 3.029 1.251 4.34h.393a405.36 405.36 0 00-1.495-5.167c-.413-1.395-.787-2.654-.999-3.43a25.265 25.265 0 00-1.798-3.984c-.368-.175-.742-.33-1.135-.478a26.992 26.992 0 011.753 3.494 22.18 22.18 0 00-1.843-3.533l-.612-.213c.303.426.593.865.863 1.337-.296-.472-.644-.93-.96-1.37l-.645-.2a15.034 15.034 0 013.307 6.762c.49 2.231.73 4.51.715 6.795" fill="#931C80"/><path d="M203.277 36.813a27.186 27.186 0 002.701-3.746c0-.232 0-.458-.039-.684a28.394 28.394 0 01-2.945 4.178 4.952 4.952 0 00-1.128 3.19 18.31 18.31 0 00-.161-2.105c-.046-.297.509-.878 1.153-1.543a14.242 14.242 0 003.049-4.25c0-.245-.078-.478-.116-.71a12.914 12.914 0 01-3.223 4.695c-.298.31-.58.635-.844.975a4.36 4.36 0 01.883-1.498c.767-.769 2.127-3.365 2.707-6.213-.078-.233-.174-.453-.258-.646-.49 3.055-2.017 5.922-2.72 6.62a3.175 3.175 0 00-.193.264c.258-.452.515-.871.747-1.233.232-.362.452-.717.6-.988.644-1.22.857-2.086 1.398-5.07a9.37 9.37 0 00-.309-.646c.007.127.007.254 0 .381-.116.646-.206 1.13-.296 1.589a14.69 14.69 0 000-2.5 9.376 9.376 0 00-.458-.73c.316 2.52.045 5.22-.967 6.666-2.043 2.893-2.836 4.902-2.836 7.156v1.007c-.034 1.141.015 2.283.149 3.417l.361-.226a21.622 21.622 0 01-.129-3.178v-1.02c0 .95.083 2.409.238 4.12.122-.08.238-.169.348-.265-.167-2.047-.238-3.713-.206-4.52a6.098 6.098 0 01.348-1.706 7.76 7.76 0 00-.155 2.771c.039.336.052.846.065 1.492 0 .536 0 1.169.058 1.873.122-.09.251-.174.361-.271 0-.6-.039-1.144-.045-1.615 0-.646 0-1.175-.065-1.524a8.067 8.067 0 01.045-2.105c.071.684.103 1.382.123 2.124 0 .91.058 1.88.18 2.932.123-.103.232-.22.342-.322-.045-.478-.078-.95-.097-1.395.045.413.11.846.193 1.291.116-.103.232-.206.336-.316-.471-2.622-.213-4.56.818-5.677M203.304 9.132a11.853 11.853 0 00-1.599-3.229v-.032a11.68 11.68 0 00-1.914-1.996l.935 1.292a41.039 41.039 0 012.578 3.946M200.276 22.701a17.007 17.007 0 00-.419 4.373c.041.457.041.918 0 1.375-.033.775-.058 1.447.451 1.828.192.162.432.255.683.265a.824.824 0 00.735-.498 2.8 2.8 0 00.245-1.291c.046-1.13.014-2.26-.097-3.384-.038-.11-.18-.827-.348-1.712-.148-.123-.303-.252-.458-.368.194 1.008.394 2.04.445 2.19.089 1.088.117 2.182.084 3.274.02.387-.051.774-.206 1.13-.187.355-.49.381-.858.11-.367-.271-.328-.82-.296-1.518a7.857 7.857 0 00-.032-1.447 16.66 16.66 0 01.386-4.075c-.116-.077-.219-.161-.341-.239" fill="#931C80"/><path d="M198.515 25.834c-.742 1.57-.722 1.75-.374 2.99l.18.646c.084.323.155.646.226.981.29 1.292.554 2.545 1.54 2.545.156.001.311-.025.458-.078 1.643-.542 2.578-2.163 2.578-4.443a23.647 23.647 0 00-.277-3.546c-.155-.174-.303-.342-.471-.503.269 1.332.392 2.69.368 4.05 0 2.105-.851 3.596-2.334 4.08-.953.324-1.205-.8-1.508-2.182a25.8 25.8 0 00-.232-1.001l-.174-.646c-.328-1.143-.354-1.24.342-2.725a24.228 24.228 0 001.186-3.436c-.11-.071-.226-.13-.342-.194a23.71 23.71 0 01-1.166 3.462zM198.438 36.813c.2-.271.045-.917-.341-2.325l-.078-.284a16.92 16.92 0 00-.793-2.183 17.552 17.552 0 01-1.095-3.39 35.29 35.29 0 01-.567-7.7l.07-.42-.354-.115-.09.484a35.906 35.906 0 00.567 7.828c.077.355.161.646.238.975-.129-.32-.28-.63-.451-.93l-.225-.355c-.361-.562-.413-.646-.413-2.293v-1.892a6.395 6.395 0 000-1.37c-.064-.316-.271-.355-.354-.355-.084 0-.451.11-1.044.982-.406.646-.232 1.485-.11 2.118.046.2.076.403.09.607.007.131.007.263 0 .394a3.191 3.191 0 00.232 1.667c0 .064 0 .148.058.22.155.077.31.154.458.238-.058-.2-.097-.413-.168-.594a2.749 2.749 0 01-.199-1.498v-.427a4.995 4.995 0 00-.097-.678 2.615 2.615 0 01.045-1.834c.438-.646.644-.782.709-.782.064 0 0 0 0 0 .039.43.039.863 0 1.292 0 .465-.032 1.079-.032 1.899 0 1.705.071 1.86.47 2.493l.219.349c.188.325.351.664.49 1.014.635.829.995 1.836 1.031 2.88a.493.493 0 00.097-.33 3.755 3.755 0 00-.129-.787c.058.148.116.297.181.439a18.3 18.3 0 01.773 2.144l.077.284c.206.63.344 1.28.413 1.938a1.013 1.013 0 01-.187-.136 8.617 8.617 0 01-1.289-1.711c-.032.18-.065.361-.11.53a7.855 7.855 0 001.173 1.465c.123.14.293.23.477.252l.181-.045.077-.058z" fill="#931C80"/><path d="M192.734 23.625c.084-1.008.11-1.292.774-1.86l1.714-1.415-.425-.129-1.522 1.253c-.792.646-.831 1.079-.915 2.119-.032.426-.077.968-.193 1.698a5.474 5.474 0 00.238 2.584c.149.051.303.103.439.161a5.173 5.173 0 01-.303-2.719c.116-.736.161-1.292.193-1.718" fill="#931C80"/><path d="M128.926 40.365a14.178 14.178 0 002.353 2.584l-.084-.117a14.453 14.453 0 00-2.269-2.467zM131.781 42.219a15.83 15.83 0 00-3.912-3.61c.129.251.258.503.4.742a14.587 14.587 0 013.222 3.107 17.47 17.47 0 001.837 1.995c.509.306 1.037.58 1.579.82a15.546 15.546 0 01-3.119-3.054" fill="#E64F13"/><path d="M132.388 41.657a16.638 16.638 0 00-4.512-3.733c-.174-.123-.303-.2-.464-.304.084.207.168.42.264.646a16.396 16.396 0 014.435 3.669 18.86 18.86 0 003.351 3.087c.566.417 1.16.795 1.779 1.13.644.187 1.289.349 1.979.478a12.307 12.307 0 01-3.532-1.938 17.959 17.959 0 01-3.294-3.029" fill="#E64F13"/><path d="M136.236 43.917a20.927 20.927 0 01-3.326-2.945 20.586 20.586 0 00-4.595-3.74c-.516-.329-.974-.6-1.399-.839.071.2.155.381.226.575.315.187.644.355.966.588a19.875 19.875 0 014.512 3.675 21.656 21.656 0 003.397 3.016 13.118 13.118 0 004.659 2.254c.432.135.89.284 1.36.458.348 0 .722 0 1.077.039a15.992 15.992 0 00-2.334-.86 12.547 12.547 0 01-4.511-2.227" fill="#E64F13"/><path d="M136.783 43.181a27.351 27.351 0 01-3.345-2.784 24.39 24.39 0 00-4.724-3.636 32.545 32.545 0 00-2.075-1.207c.045.174.09.342.148.51.516.284 1.076.6 1.727 1.014a24.432 24.432 0 014.692 3.61 27.09 27.09 0 003.358 2.816 13.283 13.283 0 004.692 2.312c1.077.311 2.115.745 3.094 1.292h.709a14.583 14.583 0 00-3.693-1.595 13.036 13.036 0 01-4.583-2.255" fill="#E64F13"/><path d="M137.304 42.761a15.914 15.914 0 01-3.558-2.79 18.631 18.631 0 00-4.595-3.455 31.334 31.334 0 00-2.694-1.64c.045.174.103.342.155.523.644.368 1.411.813 2.326 1.433 1.668.9 3.19 2.05 4.512 3.41a16.234 16.234 0 003.622 2.836 14.166 14.166 0 004.55 1.995c1.549.396 3.02 1.05 4.351 1.938l.644-.045a14.417 14.417 0 00-4.872-2.241 14 14 0 01-4.454-1.938" fill="#E64F13"/><path d="M142.242 44.027a14.876 14.876 0 01-4.48-1.821 16.447 16.447 0 01-3.5-2.7 19.52 19.52 0 00-4.692-3.442 30.844 30.844 0 00-3.267-1.938c.038.155.058.317.096.472a34.656 34.656 0 012.978 1.815 19.337 19.337 0 014.641 3.39 16.936 16.936 0 003.577 2.752c1.41.869 2.954 1.5 4.569 1.866a13.977 13.977 0 015.118 2.3c.077.057.135.109.212.16.181 0 .361 0 .535-.057-.174-.136-.335-.265-.528-.407a14.618 14.618 0 00-5.24-2.364" fill="#E64F13"/><path d="M143.144 42.554a12.349 12.349 0 01-4.234-1.42 14.886 14.886 0 01-3.784-2.622 20.631 20.631 0 00-4.75-3.294 31.732 31.732 0 00-4.356-2.506c0 .155.058.303.083.465a32.769 32.769 0 013.036 1.699 29.611 29.611 0 00-3.003-1.531c0 .148.058.297.09.446a30.004 30.004 0 013.557 1.937 23.115 23.115 0 014.622 3.462 17.08 17.08 0 003.706 2.777c1.433.846 2.99 1.46 4.614 1.821a14.299 14.299 0 015.092 2.19c.354.258.644.503.947.742l.471-.097a23.974 23.974 0 00-1.205-.949 14.895 14.895 0 00-5.214-2.26 14.914 14.914 0 01-4.512-1.777 16.665 16.665 0 01-3.635-2.718 22.076 22.076 0 00-3.751-2.94 19.152 19.152 0 013.957 2.855 15.227 15.227 0 003.867 2.668 12.548 12.548 0 004.364 1.42 10.866 10.866 0 015.297 2.261c.542.402 1.06.833 1.554 1.292.148 0 .303-.058.444-.097a18.274 18.274 0 00-1.772-1.473 11.204 11.204 0 00-5.453-2.325" fill="#E64F13"/><path d="M143.665 41.909a12.083 12.083 0 01-4.253-1.292 14.695 14.695 0 01-3.784-2.512 20.848 20.848 0 00-4.833-3.268 32.352 32.352 0 00-4.854-2.745c0 .142 0 .297.052.439a32.289 32.289 0 014.608 2.629 20.541 20.541 0 014.783 3.229 14.892 14.892 0 003.867 2.583 12.4 12.4 0 004.369 1.292c1.932.202 3.765.953 5.285 2.163.732.525 1.42 1.108 2.056 1.744l.406-.116a16.777 16.777 0 00-2.236-1.938 10.455 10.455 0 00-5.485-2.215M150.839 41.857c-4.453-3.28-5.485-.82-9.668-2.674a15.666 15.666 0 01-3.976-2.422 23.733 23.733 0 00-5.098-3.177 41.134 41.134 0 00-5.247-3.003l-1.082-.55v.434l.895.451a40.977 40.977 0 015.227 2.997 23.183 23.183 0 015.053 3.146 15.895 15.895 0 004.061 2.467c4.26 1.898 5.233-.556 9.571 2.635a14.342 14.342 0 013.139 3.003c.116-.052.219-.123.335-.181a14.756 14.756 0 00-3.223-3.126" fill="#E64F13"/><path d="M150.267 42.626a9.203 9.203 0 00-5.472-1.938 10.484 10.484 0 01-4.196-1.008 14.85 14.85 0 01-3.938-2.486 22.778 22.778 0 00-4.982-3.23 38.884 38.884 0 00-5.156-2.944l-.683-.336c0 .155.032.297.045.446l.47.232c.716.342 1.502.736 2.469 1.292a39.866 39.866 0 00-2.391-1.105l-.522-.232c0 .148.032.29.045.44l.335.141a38.247 38.247 0 014.802 2.422c1.7.944 3.277 2.094 4.698 3.423a13.598 13.598 0 003.957 2.667 12.129 12.129 0 004.473 1.227 9.617 9.617 0 015.311 2.022 16.153 16.153 0 012.436 2.196c.129-.039.252-.09.381-.142a16.248 16.248 0 00-2.643-2.37 10.055 10.055 0 00-5.491-2.093 11.747 11.747 0 01-4.331-1.169 12.882 12.882 0 01-3.867-2.583 22.354 22.354 0 00-2.791-2.222 19.294 19.294 0 013.171 2.183 15.463 15.463 0 004.041 2.583c1.357.64 2.832.994 4.331 1.04a8.864 8.864 0 015.279 1.867 14.966 14.966 0 012.816 2.583l.368-.155a15.385 15.385 0 00-2.965-2.758" fill="#E64F13"/><path d="M151.374 41.102c-2.52-1.848-3.97-1.796-5.485-1.757a9.043 9.043 0 01-3.145-.33 10.93 10.93 0 01-2.062-.407l.747.336a9.348 9.348 0 004.473.775c1.534-.038 2.836-.077 5.247 1.686a13.858 13.858 0 013.377 3.326l.335-.18a14.199 14.199 0 00-3.487-3.45zM132.374 33.493a24.862 24.862 0 014.679 2.771 6.675 6.675 0 01-.555-.872 28.528 28.528 0 00-3.937-2.228 39.638 39.638 0 00-5.35-3.016c-.503-.245-.98-.478-1.463-.736v.433c.425.219.844.426 1.289.645a40.285 40.285 0 015.324 3.01" fill="#E64F13"/><path d="M151.922 40.34c-2.037-1.48-3.351-1.686-4.563-1.641-1 .273-2.031.414-3.068.42a9.519 9.519 0 002.224 0c1.488-.123 2.771-.24 5.188 1.51a13.844 13.844 0 013.603 3.656c.109-.064.206-.142.316-.22a14.475 14.475 0 00-3.7-3.739M132.793 32.647c1.424.775 2.442 1.402 3.222 1.938-.09-.188-.148-.407-.225-.6a37.875 37.875 0 00-2.83-1.667 43.66 43.66 0 00-4.962-2.545 21.464 21.464 0 01-2.295-1.15v.453c.696.394 1.366.697 2.14 1.046a45.837 45.837 0 014.95 2.525zM153.863 38.802a10.78 10.78 0 00-4.105-1.137c-.194.13-.419.233-.645.343 1.583.027 3.139.413 4.551 1.13a10.369 10.369 0 013.673 3.488.263.263 0 00.045.064c.091-.084.194-.161.284-.252a10.75 10.75 0 00-3.803-3.61M133.328 32.04c.915.51 1.65.95 2.275 1.35-.058-.187-.123-.362-.174-.562-.548-.336-1.18-.71-1.934-1.124a45.645 45.645 0 00-5.001-2.422 19.733 19.733 0 01-2.791-1.369v.433c.851.494 1.736.925 2.649 1.292a44.104 44.104 0 014.963 2.409" fill="#E64F13"/><path d="M153.256 39.455a12.388 12.388 0 00-2.714-.976 5.588 5.588 0 00-1.533-.407 8.1 8.1 0 01-1.019.453h.129c.782.046 1.559.147 2.327.303.64.284 1.247.637 1.811 1.053a13.813 13.813 0 013.77 3.907l.316-.22a14.381 14.381 0 00-3.867-3.99c-.071-.053-.129-.085-.193-.136.257.116.496.193.786.335a10.757 10.757 0 013.661 3.494c.096-.077.187-.168.283-.252a11.084 11.084 0 00-3.757-3.577M133.798 31.698c.6.316 1.115.6 1.586.872-.071-.297-.123-.607-.181-.93l-.573-.265a45.267 45.267 0 00-5.878-3.268 23.273 23.273 0 01-3.049-1.627v.452c.922.571 1.88 1.082 2.868 1.53a45.155 45.155 0 014.705 2.532 44.582 44.582 0 00-4.647-2.286 21.252 21.252 0 01-2.926-1.466v.445c.895.514 1.823.967 2.778 1.357a43.62 43.62 0 015.304 2.654M154.474 38.402a10.04 10.04 0 00-4.047-1.292c-.136.116-.239.252-.374.355a9.529 9.529 0 014.247 1.285 9.028 9.028 0 013.661 3.23l.077.103c.09-.09.168-.194.258-.29a9.407 9.407 0 00-3.796-3.365M135.049 31.22l.083.045c0-.161-.051-.31-.064-.478a48.445 48.445 0 00-5.717-3.184 17.822 17.822 0 01-3.648-2.137v.484a18.466 18.466 0 003.468 1.99c2.03.953 3.989 2.049 5.865 3.28" fill="#E64F13"/><path d="M155.113 37.498a10.191 10.191 0 00-3.996-1.027c-.116.135-.258.239-.387.368a9.723 9.723 0 014.209.994 9.372 9.372 0 013.545 3.327c.058.07.116.148.168.226.083-.097.18-.188.257-.285l-.109-.161a9.954 9.954 0 00-3.687-3.442zM135.036 30.29v-.452a44.872 44.872 0 00-5.466-2.92 21.144 21.144 0 01-3.867-2.163v.433a21.725 21.725 0 003.706 2.047 45.893 45.893 0 015.614 3.03M134.984 29.282v-.458a45.976 45.976 0 00-4.911-2.583 20.535 20.535 0 01-4.37-2.429v.465a21.086 21.086 0 004.17 2.338 46.191 46.191 0 015.098 2.668" fill="#E64F13"/><path d="M155.72 37.045a9.05 9.05 0 00-4.183-1.136c-.084.116-.142.258-.232.368 1.484 0 2.944.38 4.241 1.104a8.595 8.595 0 013.557 3.126l.116.181c.084-.11.155-.22.232-.33l-.038-.051a8.873 8.873 0 00-3.693-3.23" fill="#E64F13"/><path d="M156.375 36.167a9.493 9.493 0 00-4.414-.93c-.071.13-.155.252-.232.375a9.1 9.1 0 014.472.891 8.973 8.973 0 013.429 3.19c.045.065.097.13.136.194.077-.116.154-.226.225-.342a.414.414 0 01-.045-.065 9.368 9.368 0 00-3.571-3.313zM134.945 28.21v-.439a47.42 47.42 0 00-4.427-2.209 19.976 19.976 0 01-4.815-2.75v.47a19.788 19.788 0 004.647 2.63 45.992 45.992 0 014.583 2.298M134.945 27.125v-.432a48.53 48.53 0 00-3.938-1.893 19.543 19.543 0 01-5.304-3.074v.485a19.905 19.905 0 005.156 2.977 46.398 46.398 0 014.086 1.976" fill="#E64F13"/><path d="M156.988 35.663a9.075 9.075 0 00-4.685-1.033l-.194.375h.065a8.549 8.549 0 014.64 1 8.086 8.086 0 013.423 3.03c.064-.13.135-.252.199-.375a8.436 8.436 0 00-3.467-3.022M134.946 25.989v-.427a59.885 59.885 0 00-3.261-1.51 15.939 15.939 0 01-5.968-3.876v.49a16.177 16.177 0 005.8 3.708c.948.4 2.056.891 3.41 1.589" fill="#E64F13"/><path d="M157.627 34.972a8.363 8.363 0 00-4.756-.956h-.348a4.09 4.09 0 01-.142.388h.509a8.754 8.754 0 014.423.848 8.78 8.78 0 013.421 2.936c.064-.135.116-.277.174-.406a8.289 8.289 0 00-3.281-2.797" fill="#E64F13"/><path d="M158.277 34.268a7.939 7.939 0 00-4.647-.923h-.863c-.045.129-.097.245-.142.368h1.025a7.608 7.608 0 014.453.872 7.795 7.795 0 013.036 2.583c.052-.129.116-.265.168-.4a8.03 8.03 0 00-3.03-2.526M134.945 24.762v-.42c-1.082-.51-2.004-.885-2.829-1.22a19.321 19.321 0 01-6.413-3.818v.498a19.538 19.538 0 006.258 3.668c.858.349 1.818.743 2.972 1.292" fill="#E64F13"/><path d="M158.922 33.584a7.586 7.586 0 00-4.512-.898c-.476.026-.954.026-1.43 0 0 .123-.045.258-.078.375.509.029 1.019.029 1.528 0a7.217 7.217 0 014.337.852 7.609 7.609 0 012.759 2.254c.045-.142.084-.297.129-.439a8.117 8.117 0 00-2.733-2.144zM134.945 23.483v-.413a55.851 55.851 0 00-2.217-.905 19.203 19.203 0 01-7.025-4.217v.497a19.703 19.703 0 006.871 4.076c.709.27 1.482.574 2.359.962" fill="#E64F13"/><path d="M159.613 32.699a6.982 6.982 0 00-4.512-.827c-.662.065-1.329.065-1.992 0 0 .123-.045.246-.064.368a9.345 9.345 0 002.088 0 6.692 6.692 0 014.299.782 8.176 8.176 0 012.423 2.04c.039-.154.091-.303.123-.458a8.884 8.884 0 00-2.365-1.937M134.945 22.127v-.407l-1.559-.595a19.32 19.32 0 01-7.618-4.598l-.065-.058v.517a19.594 19.594 0 007.534 4.52c.535.194 1.096.407 1.696.646M133.967 20.357l.98.349v-.4l-.864-.285a19.165 19.165 0 01-7.811-4.579c-.213-.239-.387-.459-.561-.678v.588l.29.355a19.484 19.484 0 007.96 4.67" fill="#E64F13"/><path d="M155.868 31.104a9.554 9.554 0 01-2.578-.11c0 .136-.052.245-.071.375.884.162 1.786.2 2.681.11a6.583 6.583 0 014.17.813 8.489 8.489 0 012.049 1.628c.033-.155.058-.304.091-.459a9.253 9.253 0 00-1.934-1.498 6.993 6.993 0 00-4.389-.866" fill="#E64F13"/><path d="M156.576 30.355a8.486 8.486 0 01-3.222-.343v.388a9.164 9.164 0 003.274.336 6.231 6.231 0 014.067.91 8.304 8.304 0 011.63 1.189c0-.155.039-.31.065-.472a9.92 9.92 0 00-1.509-1.046 6.645 6.645 0 00-4.305-.962zM134.727 19.162l.2.065v-.4h-.084c-2.436-.789-4.196-1.364-6.954-4.057a17.898 17.898 0 01-2.192-2.512v.646a18.942 18.942 0 001.934 2.157 15.203 15.203 0 007.089 4.146" fill="#E64F13"/><path d="M157.388 29.554a7.776 7.776 0 01-3.867-.646c-.052 0-.077-.045-.123-.065v.414a8.07 8.07 0 004.029.645 6.19 6.19 0 013.944.885c.393.24.77.505 1.128.795 0-.143.032-.285.045-.427-.313-.248-.64-.479-.98-.69a6.49 6.49 0 00-4.157-.937M134.945 17.644v-.393a18.42 18.42 0 01-7.469-4.25 12.333 12.333 0 01-1.773-2.306v.71c.446.665.949 1.29 1.502 1.867a19.04 19.04 0 007.734 4.372M129.113 12.626a14.089 14.089 0 005.833 3.417v-.388a13.906 13.906 0 01-5.575-3.306c-2.365-2.158-3.158-3.572-3.654-4.818v.923a14.252 14.252 0 003.396 4.172z" fill="#E64F13"/><path d="M158.155 28.74a7.034 7.034 0 01-3.732-.704 5.934 5.934 0 01-1.005-.588v.452c.269.179.551.336.844.472a7.355 7.355 0 003.906.749 5.983 5.983 0 013.828.93c.232.149.4.284.593.426v-.452c-.141-.097-.245-.187-.406-.29a6.39 6.39 0 00-4.041-.995M129.57 11.05a15.813 15.813 0 005.407 3.23v-.4a15.469 15.469 0 01-5.156-3.094c-2.649-2.345-3.222-3.766-3.738-5.167a15.92 15.92 0 00-.335-.807v1c.548 1.402 1.134 2.855 3.822 5.238z" fill="#E64F13"/><path d="M155.306 27.125a4.796 4.796 0 01-1.888-1.66v.646a5.076 5.076 0 001.721 1.357 6.987 6.987 0 003.751.852 5.91 5.91 0 013.732 1.06v-.42a6.322 6.322 0 00-3.758-1.014 6.778 6.778 0 01-3.558-.82z" fill="#E64F13"/><path d="M156.641 26.35a6.233 6.233 0 01-2.772-3.048l-.451-.82v.768l.122.226a6.573 6.573 0 002.92 3.23c.95.604 2.069.882 3.19.794a5.379 5.379 0 013.004.704v-.433a5.682 5.682 0 00-3.01-.646 4.72 4.72 0 01-3.003-.775zM129.57 9.248a20.287 20.287 0 005.356 3.14v-.395a20.363 20.363 0 01-5.117-3.035c-2.198-1.938-2.617-3.139-3.068-4.405a9.749 9.749 0 00-1.038-2.19v.724c.272.512.501 1.045.683 1.595.451 1.253.916 2.545 3.191 4.566" fill="#E64F13"/><path d="M130.531 7.834a22.614 22.614 0 004.415 2.622v-.413a22.081 22.081 0 01-4.183-2.506c-2.294-1.873-2.752-3.016-3.222-4.23-.366-1-.91-1.926-1.605-2.732l-.219.22v.103a8.458 8.458 0 011.456 2.583c.484 1.195.98 2.441 3.358 4.379M157.195 25.227a5.948 5.948 0 01-2.378-3.01 13.76 13.76 0 00-1.399-2.486v.645c.403.63.756 1.291 1.057 1.977a6.371 6.371 0 002.514 3.164 5.681 5.681 0 003.377 1.047 5.482 5.482 0 012.288.477v-.4a6.093 6.093 0 00-2.275-.452 5.308 5.308 0 01-3.184-.988" fill="#E64F13"/><path d="M158.271 24.38a7.157 7.157 0 01-2.546-3.41 14.61 14.61 0 00-2.307-3.758v.575a14.1 14.1 0 011.966 3.345 7.486 7.486 0 002.668 3.552 5.01 5.01 0 003.1 1.085c.499.015.995.091 1.476.226v-.394a6.864 6.864 0 00-1.457-.206 4.691 4.691 0 01-2.919-1.014M131.556 6.413a25.722 25.722 0 003.39 2.035V8.02a24.693 24.693 0 01-3.171-1.937c-2.488-1.847-2.945-2.939-3.422-4.095a8.2 8.2 0 00-1.019-1.86h-.477a7.651 7.651 0 011.148 2.028c.477 1.156.973 2.345 3.551 4.256z" fill="#E64F13"/><path d="M158.645 23.07a6.628 6.628 0 01-2.075-3.185 14.527 14.527 0 00-3.152-5.07v.556a13.865 13.865 0 012.797 4.65 7.103 7.103 0 002.192 3.333 5.935 5.935 0 003.493 1.485c.245.032.496.071.754.123v-.388a14.695 14.695 0 00-.709-.11 5.53 5.53 0 01-3.3-1.401M133.354 5.47c.561.375 1.083.691 1.592.975v-.432c-.445-.252-.902-.53-1.379-.86-3.036-2.027-3.7-3.228-4.402-4.436-.104-.187-.22-.388-.342-.588h-.438c.167.271.316.523.457.775.722 1.292 1.405 2.487 4.512 4.566z" fill="#E64F13"/><path d="M159.393 21.959a7.3 7.3 0 01-2.018-3.294 15.982 15.982 0 00-3.957-6.149v.536a15.436 15.436 0 013.603 5.774 7.754 7.754 0 002.12 3.443 5.843 5.843 0 003.442 1.672h.064v-.387a5.448 5.448 0 01-3.222-1.582M134.948 4.45v-.452c-2.707-1.718-3.732-2.83-4.46-3.875h-.465c.767 1.123 1.812 2.363 4.925 4.314M134.947 2.021a16.913 16.913 0 01-2.469-1.886h-.535a16.693 16.693 0 003.004 2.338v-.452z" fill="#E64F13"/><path d="M158.129 17.509a17.473 17.473 0 00-4.512-6.982l-.193-.142v.485a17.048 17.048 0 014.357 6.774 8.51 8.51 0 002.081 3.54 5.697 5.697 0 002.804 1.711v-.387a5.521 5.521 0 01-2.578-1.596 8.228 8.228 0 01-1.979-3.403" fill="#E64F13"/><path d="M158.832 16.275a18.87 18.87 0 00-4.473-7.04c-.329-.264-.645-.477-.941-.71v.465c.232.181.445.33.69.523a18.75 18.75 0 014.376 6.904 11.117 11.117 0 002.365 4.07 5.16 5.16 0 001.805 1.323v-.4a5.21 5.21 0 01-1.502-1.182 10.86 10.86 0 01-2.294-3.953" fill="#E64F13"/><path d="M161.739 19.181a12.15 12.15 0 01-2.25-4.023 19.986 19.986 0 00-4.453-7.143 51.734 51.734 0 00-1.618-1.247v.472c.432.323.877.646 1.36 1.046a19.58 19.58 0 014.357 7.014 12.75 12.75 0 002.32 4.127 6.2 6.2 0 001.199 1.066v-.472a7.525 7.525 0 01-.915-.859" fill="#E64F13"/><path d="M160.069 14.04a20.947 20.947 0 00-4.427-7.194 48.44 48.44 0 00-2.224-1.686v.465c.612.44 1.257.917 1.966 1.499a20.709 20.709 0 014.337 7.085 13.857 13.857 0 002.308 4.198c.201.228.416.444.644.645v-.536c-.116-.116-.213-.206-.335-.348a13.15 13.15 0 01-2.249-4.089" fill="#E64F13"/><path d="M156.202 5.761c-1.031-.853-1.933-1.537-2.784-2.105v.465c.767.53 1.592 1.15 2.52 1.937a21.286 21.286 0 014.338 7.104 15.253 15.253 0 002.294 4.224c.03.03.056.062.077.097v-.691a15.487 15.487 0 01-2.017-3.83 21.973 21.973 0 00-4.428-7.214" fill="#E64F13"/><path d="M156.699 4.728a32.96 32.96 0 00-3.281-2.435v.439c1.047.7 2.056 1.457 3.023 2.267a21.915 21.915 0 014.337 7.065 18.197 18.197 0 001.876 3.636v-.645a18.43 18.43 0 01-1.502-3.133 22.617 22.617 0 00-4.434-7.194" fill="#E64F13"/><path d="M157.175 3.765a31.523 31.523 0 00-3.757-2.777v.446a32.708 32.708 0 013.493 2.583 22.672 22.672 0 014.344 7.014c.394.998.861 1.965 1.399 2.893v-.755a22.98 22.98 0 01-1.051-2.267 22.824 22.824 0 00-4.428-7.104" fill="#E64F13"/><path d="M156.84 2.667a29.144 29.144 0 00-2.914-2.39l-.264.278a26.965 26.965 0 012.92 2.384c3.345 3.435 4.292 5.457 5.214 7.46.271.587.535 1.155.857 1.75v-.827c-.174-.362-.348-.717-.516-1.079-.934-2.009-1.894-4.088-5.297-7.576z" fill="#E64F13"/><path d="M158.008 1.97c-.871-.736-1.638-1.292-2.34-1.84h-.645a36.77 36.77 0 012.72 2.111 23.304 23.304 0 014.351 6.859c.18.413.367.82.554 1.234v-.905a7.138 7.138 0 00-.213-.478 23.613 23.613 0 00-4.427-6.981z" fill="#E64F13"/><path d="M157.182.13h-.645c.483.38.999.787 1.566 1.29a22.742 22.742 0 014.338 6.77l.2.445v-.93a22.834 22.834 0 00-4.267-6.575c-.425-.368-.825-.69-1.205-1" fill="#E64F13"/><path d="M158.516.13h-.586c.193.16.374.303.567.47a23.03 23.03 0 014.164 6.304v-.891a23.55 23.55 0 00-3.906-5.677l-.239-.207z" fill="#E64F13"/><path d="M159.109.13a20.34 20.34 0 013.539 5.418v-.879a20.74 20.74 0 00-3.042-4.52l-.497-.02zM160.113.13a20.8 20.8 0 012.54 3.816V3.14a21.453 21.453 0 00-2.063-3.01h-.477zM162.499.646l-.503-.504h-.367c.365.45.707.917 1.025 1.402V.853c-.045-.072-.103-.143-.155-.214M161.049.13a18.907 18.907 0 011.598 2.363V1.77a18.843 18.843 0 00-1.128-1.64h-.47z" fill="#E64F13"/><path d="M89.493 29.366l-.11-.452c-.092-.94-.029-1.89.188-2.809-.063.685-.08 1.373-.052 2.06 0 0 1.29 2.319.348 6.407.213-1.743.086-3.511-.374-5.206zm-.799 7.163a9.933 9.933 0 00.451-5.277 3.417 3.417 0 00-.135-.523 7.22 7.22 0 01-.316 5.813v-.013zm-.045-7.201l.329-1.557a4.77 4.77 0 00.038 1.214l.11.465c.077.323.174.756.258 1.227a4.07 4.07 0 00-.735-1.369v.02zm-.187.38c-.097-.128-.187-.232-.174-.283l.039-.33a23.858 23.858 0 011.23-5.606c-.863 3.81-1.288 5.755-1.23 5.903.194.271.36.561.496.866a3.869 3.869 0 00-.36-.55zm5.105-10.668a11.261 11.261 0 002.146-1.693 6.959 6.959 0 01-3.326 2.771c-.314.126-.603.31-.85.543a9.543 9.543 0 012.03-1.622zM89.88 28.08c0-.064-.187-6.503 2.642-7.588 2.463-.943 4.196-3.23 4.918-6.271v-4.27a17.462 17.462 0 00-.374-2.363c-.586-2.422-2.803-5.245-5.11-7.428h-.549a21.57 21.57 0 014.686 5.942c-.644-.891-1.63-1.634-3.358-2.803a17.182 17.182 0 00-2.72-1.362 18.3 18.3 0 01-1.824-.866v.407c.548.29 1.109.555 1.676.807.923.373 1.812.827 2.655 1.357 3.1 2.105 3.868 2.7 4.042 5.367l.045.516c.174 2.041.341 4.302-.484 6.136.445-1.143.58-2.797.168-5.613-.645-4.198-1.882-4.83-4.654-6.206-.599-.297-1.288-.646-2.017-1.046a16.708 16.708 0 01-1.43-.866v.446c.373.245.78.497 1.25.749.754.42 1.43.756 2.03 1.06 2.726 1.355 3.867 1.937 4.447 5.915.728 4.934-.225 6.174-1.656 7.395-.365.302-.748.58-1.148.833a8.393 8.393 0 00-3.867 4.857 29.01 29.01 0 00-1.057 4.023v2.823c.306.37.507.816.58 1.291a9.305 9.305 0 01-.58 5.303v2.215c.142-.22.284-.446.406-.646-.122.258-.27.536-.406.801v.827c4.125-7.428 1.754-11.625 1.676-11.729" fill="#EF8502"/><path d="M97.427 8.745l.283-.278c-.315-2.693-1.444-4.773-4.235-8.306h-.502c3.352 4.218 4.344 6.31 4.428 9.772l.026-1.188zM93.656 15.875c3.087-1.111 2.378-3.72 1.566-6.75-.902-3.345-3.429-4.772-5.717-5.85-.36-.169-.818-.362-1.289-.562v.406c.432.181.832.343 1.154.498 2.314 1.085 4.653 2.415 5.51 5.606.24.871.433 1.64.555 2.331a13.333 13.333 0 00-.645-2.086c-.831-2.002-2.442-3.384-4.924-4.237a33.784 33.784 0 00-1.63-.465v.762a7.567 7.567 0 013.39 2.442c1.933 2.583 2.649 4.637 2.475 5.45a.375.375 0 01-.155.259 1.183 1.183 0 01-.329.064c.2-.277.174-.755-.083-1.537-.568-1.672-2.308-3.37-5.157-5.05a1.288 1.288 0 01-.135-.065v.427c2.746 1.62 4.415 3.229 4.944 4.805.277.833.206 1.11.135 1.2-.071.091-.56.124-1.457-.303a34.431 34.431 0 01-1.379-.71c-.567-.304-1.166-.646-1.805-.943l.484.207c1.856.794 3.222 1.356 3.628 1.356h.155l.155-.284c0-.55-1.077-2.106-2.436-3.475a7.334 7.334 0 00-2.424-1.511v.426c.798.309 1.53.77 2.153 1.356a11.933 11.933 0 012.397 3.133 23.346 23.346 0 01-3.48-1.324l-1.121-.472v.775c.734.368 1.45.756 2.069 1.079.412.22.76.407 1.056.555a13.294 13.294 0 01-1.695-.723c-.496-.258-.973-.484-1.43-.71v.432c.412.194.812.381 1.256.614 2.056 1.059 3.816 1.447 4.635 1.014a.741.741 0 00.341-.517c.2-.923-.51-3.061-2.54-5.76a8 8 0 00-3.486-2.526c.496.136.954.258 1.289.375 2.372.813 3.912 2.13 4.698 4.03.935 2.26 1 4.017.69 4.372l-.142.168a1.85 1.85 0 01-1.508.898 3.096 3.096 0 01-1.34-.369c-.58-.284-1.386-.768-2.276-1.291a44.74 44.74 0 00-1.63-.95v.427c.496.284.98.574 1.437.846.902.536 1.714 1.02 2.3 1.291.465.253.981.395 1.51.414.139-.007.278-.03.412-.071-.117.051-.2.11-.323.155-1.701.646-3.048-.175-4.35-.937a16.096 16.096 0 00-.986-.549v.433c.264.142.528.284.793.44 1.379.813 2.803 1.646 4.672.968" fill="#EF8502"/><path d="M88.462 9.72V9.5l-.09-.09c-.045-.039-.11-.071-.161-.11v.562h.22l.031-.142zM88.933 22.605a8.599 8.599 0 001.65-3.96 2.671 2.671 0 00-.612-2.24 3.608 3.608 0 00-1.78-.924v.4a3.15 3.15 0 011.509.782 2.308 2.308 0 01.509 1.937 8.263 8.263 0 01-1.592 3.785c-.097.142-.155.265-.239.4 0-.09.052-.161.084-.245.18-.497.355-.93.51-1.292.676-1.711.986-2.486.347-3.823a2.458 2.458 0 00-1.128-1.085v.426c.338.191.613.476.793.82.561 1.189.29 1.873-.36 3.52-.13.317-.278.698-.433 1.098v1.834c.043-.173.101-.341.174-.503.168-.319.358-.625.568-.918M95.376 29.063c-.47 1.292-.644.827-.87.717-.225-.11-.11-.55.09-1.22.071-.233.149-.479.2-.718.206-.885.393-1.02.51-1.02h.044a.807.807 0 01.355.736 4.171 4.171 0 01-.329 1.498v.007zm-.11-2.648c-.47 0-.683.646-.83 1.337-.059.232-.13.471-.194.697-.226.737-.432 1.434.11 1.673.151.08.318.126.49.136.412 0 .644-.394.882-1.072a4.445 4.445 0 00.361-1.705 1.152 1.152 0 00-.535-.982l-.283-.084zM91.497 26.68l.039.303c.058.491.116 1.163.141 1.634l-.116-.478a9.702 9.702 0 01-.374-2.15c-.009-.364.075-.725.245-1.047.04-.096.084-.187.123-.284l.103-.316c.165-.514.356-1.018.574-1.512l.4-.129c-.087.326-.201.644-.342.95l-.458 1.169c-.419 1.162-.419 1.291-.335 1.86zm.425.316v-.077l-.045-.31c-.07-.51-.077-.575.323-1.673.186-.49.341-.866.457-1.163a5.26 5.26 0 00.355-1.033.337.337 0 00-.058-.278l-.232-.116h-.084a1.448 1.448 0 00-.606.162 7.299 7.299 0 00-.716 1.698l-.11.297c-.031.09-.064.175-.102.259-.192.37-.29.783-.284 1.2.042.762.172 1.517.387 2.248l.148.588c.078.349.187.678.438.678a5.97 5.97 0 01-.154 1.893c-.114.407-.203.821-.265 1.24-.2-1.047-.444-2.933-.586-4.108l-.161-1.182c-.168-1.072-.38-2.415.316-3.675.844-1.511.87-1.524 1.502-2.066.631-.543.999-.646 1.192-.646a1 1 0 01.22.045l-.336.575a27.27 27.27 0 00-1.618 5.444h.02zm1.915-5.27l.38-.781c-.097-.291-.864-.646-2.037.355-.683.581-.741.646-1.586 2.17-.754 1.376-.528 2.841-.36 3.914l.16 1.169c.162 1.291.439 3.487.645 4.443.09.394.136.614.335.614.2 0 .226-.168.303-.646.067-.497.164-.988.29-1.473a6.29 6.29 0 00.174-2.131c-.05-.766-.015-1.535.104-2.293.347-1.825.878-3.61 1.585-5.328" fill="#EF8502"/><path d="M92.103 36.606c-.065.24-.18.582-.335 1.014a.496.496 0 010 .071 29.5 29.5 0 01.573-1.685c-.07.2-.154.374-.212.6h-.026zm1.96-4.146v.187-.187c-.433 0-1.058-1.104-1.116-2.209a8.955 8.955 0 01.8-4.295c.247-.554.58-1.066.985-1.517.117-.12.224-.247.323-.381.32-.506.54-1.07.644-1.66.189-.304.33-.635.42-.982.064-.207.18-.581.257-.588.232.13.4 1.615.464 2.242.032.277.058.523.09.723l.077.452a7.855 7.855 0 01-.141 3.94 4.923 4.923 0 000-2.177 3.412 3.412 0 00-.645-1.356.645.645 0 00-.522-.33c-.38 0-.799.375-1.289 1.182a5.38 5.38 0 00-1.16 2.913c-.032.245-.07.497-.11.743-.186 1.13-.354 2.196.606 2.39.116.009.233.009.348 0a2.064 2.064 0 001.476-.646c-.644.988-1.244 1.543-1.508 1.543v.013zm.476-9.487a46.23 46.23 0 001.237-1.867l-.057.181a3.73 3.73 0 01-.406.956 4.79 4.79 0 01-.568 1.576 4.935 4.935 0 01-.303.355 5.956 5.956 0 00-1.044 1.602c-.084.161-.141.355-.212.536a9.9 9.9 0 011.353-3.34zm1.586 6.29c-.51 1.37-1.386 2.054-2.314 1.886-.567-.11-.49-.82-.303-1.938.043-.245.082-.497.116-.755.068-1 .44-1.955 1.063-2.738.58-.911.89-1.008.993-1.008.103 0 .154.078.251.213.25.354.427.753.522 1.176a5.067 5.067 0 01-.328 3.183v-.019zm-3.913 12.878c.142-4.017.91-6.458 2.224-7.033a16.55 16.55 0 002.99-1.938V32.7c-.977.8-2.038 1.49-3.164 2.06a2.755 2.755 0 00-1.212 1.208c.097-.297.207-.6.277-.904.04-.181.516-.375 1.019-.575a7.959 7.959 0 003.061-1.996v-.561.051a6.908 6.908 0 01-3.17 2.15c-.188.078-.349.143-.497.214a2.21 2.21 0 01.69-.49 8.684 8.684 0 003.01-2.959v-.723a10.6 10.6 0 01-.735 1.104c.2-.316.45-.73.734-1.214v-.8c0 .044 0 .122-.058.16-.058.04-.064.11-.096.169.064-.168.103-.343.154-.51V27.7c-.406 1.938-1.289 3.817-2.294 4.47a1.213 1.213 0 01-.148.103 10.538 10.538 0 002.081-3.533c.167-.432.288-.88.361-1.337 0-.058 0-.116.033-.174a8.652 8.652 0 00-.116-3.049l-.084-.445c0-.194-.045-.44-.084-.704-.161-1.48-.297-2.454-.838-2.584a.426.426 0 00-.2.059c.524-.882.956-1.814 1.29-2.784v-1.24c-.697 2.506-1.593 3.985-3.223 6.284-2.133 3.061-2.043 9.042-2.043 9.261-.226 1.841-1.438 4.521-3.938 8.667a.48.48 0 01-.058.097v.724c.129-.207.251-.4.386-.646 2.527-4.205 3.752-6.917 3.984-8.842 0 0 0-.568.038-1.395.168 1.047.76 2.144 1.425 2.183h.038a.785.785 0 00.194-.051 6.785 6.785 0 00-2.617 3.229l-.258.646c-.36.897-.606 1.498-1.856 6.703a53.455 53.455 0 01-.819 2.926l.142.142h.213a47.07 47.07 0 00.825-2.964 39.386 39.386 0 00-.484 2.964h.361c.149-1.15.355-2.35.606-3.532a16.001 16.001 0 00-.11 3.532h.38c-.296-3.377.742-6.574 1.374-8.396a14.493 14.493 0 00-.645 3.682 27.82 27.82 0 00.097 4.72h.38a26.95 26.95 0 01-.097-4.701c.036-.758.135-1.512.297-2.254-.12.88-.192 1.766-.22 2.654-.008 1.44.102 2.88.33 4.302h.373a24.544 24.544 0 01-.322-4.295M112.307 1.712c-.077.645-.141 1.143-.303 1.252-.161.11-.509 0-1.076-.187l-1.289-.374a6.068 6.068 0 00-.644-.168 8.2 8.2 0 011.669.258c.146.042.294.075.445.097.264 0 .425-.323.644-.801.208-.403.454-.786.735-1.143-.099.347-.16.705-.181 1.066zm-1.985 0a1.19 1.19 0 00.683-.259c-.36.375-.567.491-.696.426a1.074 1.074 0 00-.212-.2l.225.033zm1.296-.42c-.052.11-.123.226-.181.323-.089.21-.201.41-.335.594a1.95 1.95 0 01-.29-.071c.293-.258.562-.541.806-.846zm-4.016.342c-.08.034-.155.077-.225.13-.045.038-.103.05-.148.09-.445.361-1.038.943-1.625 1.517-.715.71-1.798 1.796-2.056 1.796-.257 0-.373-.782-.393-1.654.039-1.937.078-2.396.832-2.493a16.151 16.151 0 003.918-.413c-.543.254-1.103.47-1.675.646-1.006.316-1.934.646-2.333 1.214-.046.103-.471 1.053-.091 1.595a.415.415 0 00.361.194c.413 0 .922-.536 1.786-1.479l.328-.355c.415-.402.919-.7 1.47-.872l-.149.09v-.006zm-.174.568l.046-.051.096-.058.168-.078a1.887 1.887 0 00-.31.187zM102.724.555c-.046.13-.084.272-.129.446l-.078.252c.036-.241.105-.476.207-.698zm17.782 1.46a20.182 20.182 0 01-4.551-1.854h-4.247c-.09.097-.174.188-.251.285-.419.471-.742.89-1.289.872l-.194-.026a4.09 4.09 0 00-.908-.065c.18 0 .36-.045.489-.045.071-.004.142-.004.213 0 .683.174.935 0 1.418-.646.104-.133.228-.248.367-.342h-.85s-.078.051-.104.051l-.161-.051h-.709l.11.097c.205.157.443.265.696.316h.148a.605.605 0 01-.786.246 1.287 1.287 0 00-.309-.033c-.722 0-2.578.343-3.552 1.37l-.328.361c-.58.646-1.238 1.35-1.509 1.35h-.051c-.219-.31 0-1.001.116-1.201.29-.459 1.173-.743 2.107-1.04a8.758 8.758 0 002.385-1.014l.58-.426h-1.289c-1.759.594-3.416.38-4.105.465-1.096.142-1.115.936-1.154 2.951 0 .446.09 1.886.735 1.938.258 0 .689-.336 1.289-.879-.427.477-.828.977-1.199 1.499-.098.17-.184.347-.258.53a2.528 2.528 0 01-.167.342 2.407 2.407 0 01-.426-.795 12.625 12.625 0 01.071-4.753l.103-.368c.174-.646.213-.724.587-.724.216.009.431.03.644.065a9.563 9.563 0 002.984-.33h-5.336a9.902 9.902 0 00-.477 1.402c-.413 1.602-.155 4.12.303 6.53h.386l-.174-.97c.116.317.258.647.413.97h.374a8.49 8.49 0 01-.935-4.431A6.274 6.274 0 01102.24.73a14.83 14.83 0 00-.348 2.409v.265a8.417 8.417 0 00.928 4.688h.464a12.926 12.926 0 01-.438-.968c.054.076.117.145.187.206l.213.084a.294.294 0 00.206-.129v.058c-.002.252.027.504.084.75h.393a2.436 2.436 0 01-.103-.75c0-.465 2.481-3.526 3.712-4.753.079-.057.166-.103.258-.136a9.107 9.107 0 00-1.463 1.557l-.78.943c-1.289 1.51-1.682 2.015-1.624 3.067a.282.282 0 000 .071h.374v-.09c-.046-.904.322-1.343 1.54-2.803l.78-.95c1.553-1.898 1.63-1.872 2.887-1.491l1.289.38c.716.214 1.109.33 1.392.136a.78.78 0 00.297-.471v.058c.017.42-.029.84-.135 1.247-.258.323-1.154-.123-2.018-.556-.303-.148-.644-.31-.915-.445-1.289-.601-2.217 1.162-2.752 2.215l-.2.374a7.748 7.748 0 00-.702 2.396h.386a7.203 7.203 0 01.645-2.215l.2-.387c.644-1.26 1.347-2.448 2.262-2.041.303.135.606.29.902.439 1.096.543 2.037 1.014 2.482.452a3.15 3.15 0 00.212-1.466c.032-.936.097-2.228.574-2.512.193-.104.483-.039.864.2a47.524 47.524 0 016.213 4.805V4.85A48.89 48.89 0 00114.499.24c.06.004.12.004.18 0a3.917 3.917 0 011.773.95c.981.795 2.046 1.48 3.177 2.04.322.155.599.31.877.459v-.426c-.226-.123-.445-.246-.703-.369a16.734 16.734 0 01-2.984-1.853c1.177.57 2.407 1.02 3.674 1.343l.013-.368zM105.109 20.719l-.245.904c-.38 1.434-.896 3.152-1.373 4.727l-.077.246h.393l.039-.13c.483-1.588 1.006-3.313 1.379-4.74l.245-.898c.208-.71.372-1.432.49-2.163h-.367a18.307 18.307 0 01-.484 2.054zM103.375 23.65c-.213.963-.464 2.158-.645 2.946h.374c.161-.646.368-1.518.645-2.868.277-1.35.606-2.81.825-3.416a3.892 3.892 0 00.155-1.647h-.374c.061.51.015 1.027-.136 1.518a34.11 34.11 0 00-.837 3.468" fill="#EF8502"/><path d="M113.391 5.45c-.032.363-.071.57-.438.647a3.697 3.697 0 01-1.347-.084c-.961-.188-1.599-.071-1.708.788-.039.336-.065.781-.078 1.291h.374c0-.49.039-.923.077-1.24.091-.645.465-.645.941-.536-.038 0-.083 0-.116.058-.251.272-.206.846-.154 1.505v.213h.38v-.239c-.039-.478-.09-1.072.116-1.246.103 0 .38.09 1.012.646 1.289 1.156 1.714.82 1.991.432a.907.907 0 01.355-.342c.277-.089.567-.128.857-.116a5.478 5.478 0 012.978.846h.586c-1.36-1.24-3.822-1.414-4.569-1.079-.21.108-.386.271-.509.472-.123.174-.194.245-.29.245-.213 0-.6-.245-1.141-.742a4.605 4.605 0 00-.716-.536 2.96 2.96 0 001.038 0 .91.91 0 00.735-.976c.064-.646.322-.587 1.334-.245a16.378 16.378 0 014.563 2.848h.193l.181-.187a16.832 16.832 0 00-4.821-3.016c-1.657-.569-1.785.116-1.824.562" fill="#EF8502"/><path d="M114.293.962c-.535 0-.787.55-.928.963a8.108 8.108 0 00-.413 2.17c-.045.555-.064.833-.49 1.098a3.624 3.624 0 01-1.224-.537 4.174 4.174 0 00-1.727-.697c-.303 0-.703.136-.845.781a25.2 25.2 0 00-.432 3.352h.381c.065-1.097.205-2.19.419-3.268.096-.432.296-.484.477-.484a4.118 4.118 0 011.54.646c.722.413 1.405.762 1.753.484.445-.342.477-.762.522-1.343.04-.707.178-1.405.412-2.073.213-.646.413-.71.568-.71.728 0 2.301 1.84 5.156 5.166l.838.975a.569.569 0 00.077.097l.155-.155v-.239l-.78-.923c-3.223-3.753-4.512-5.31-5.433-5.31M108.925 41.773a1.453 1.453 0 00-1.321.342c-.071.136-1.689 3.43-1.934 3.998a1.003 1.003 0 01-.393.317h.645a.554.554 0 00.122-.181c.213-.556 1.869-3.927 1.857-3.927a1.148 1.148 0 01.953-.174 1.88 1.88 0 011.38 1.291c.313.975.34 2.02.077 3.01h.387a5.644 5.644 0 00-.116-3.152 2.25 2.25 0 00-1.663-1.505M117.606 18.665h-.393c.374 1.576.528 1.776 1.192 2.35.2.169.458.401.787.737v-.53c-.206-.2-.393-.368-.542-.497-.573-.49-.702-.646-1.044-2.06zM98.922 38.499h-.406c-.416.98-.742 1.995-.973 3.035-.02-.755.016-1.51.11-2.26a1.534 1.534 0 00-.368-1.492 1.56 1.56 0 00-1.044-.646c-.477 0-.883.465-1.237 1.414a10.11 10.11 0 01-.445 1.04c-.284.581-.38.782-.522 2.861a7.55 7.55 0 00.825 4.01h.47a6.96 6.96 0 01-.915-3.984c.13-2.008.22-2.19.484-2.725.172-.349.325-.707.457-1.073.284-.762.593-1.168.883-1.168.29 0 .451.18.774.568a1.17 1.17 0 01.27 1.143 14.241 14.241 0 00-.116 2.377v.549a12.762 12.762 0 00.123 3.41c.064.315.172.62.322.904h.438a2.38 2.38 0 01-.386-.975 9.08 9.08 0 01-.136-.988 3.23 3.23 0 001.334 1.937h.8c-.11-.052-.22-.084-.33-.142-2.37-1.233-1.72-4.592-.392-7.789" fill="#EF8502"/><path d="M93.031 40.126c0 .349-.02.724-.058 1.124v.265a21.467 21.467 0 000 3.642 19.502 19.502 0 01-.122-4.643c.064-.654.176-1.301.335-1.938a15.55 15.55 0 00-.116 1.557l-.039-.007zm.342 1.421v-.271c0-.4.045-.775.058-1.13.103-2.545.18-3.843 4.022-4.599v-.38c-1.992.38-3.062.936-3.642 1.691a5.163 5.163 0 011.521-1.627c.168-.12.33-.25.484-.388a6.512 6.512 0 011.637-.814v-.406a7.116 7.116 0 00-1.901.923c-.155.136-.316.258-.478.381-1.102.846-2.243 1.731-2.636 5.548a20.489 20.489 0 00.342 5.955h.386c0-.071-.032-.136-.045-.213.016.072.035.143.058.213h.355c-.333-1.608-.4-3.26-.2-4.89M98.085 20.725c.043-.59.12-1.255.232-1.996-.09.827-.168 1.531-.232 1.996zm-.29 3.171a5.824 5.824 0 01-.104-3.016 9.208 9.208 0 000 1.22l.084.782c.045.426.103.937.148 1.473a3.203 3.203 0 00-.096-.459h-.032zm.94-5.199h-.644l-.303-.303c-.058.303-.116.6-.174.878-.393 1.937-.677 3.332-.168 4.753a6.82 6.82 0 01.104 3.152l.541-.549h.645a28.225 28.225 0 00-.213-3.274c-.114-.746-.153-1.501-.116-2.254.07-.453.174-1.344.29-2.403M111.47 41.237c-.806-1.072-1.341-1.782-2.179-1.892-.251 0-.773.361-2.107 1.291a32.201 32.201 0 01-2.843 1.886c-.177.1-.376.153-.58.155a1.4 1.4 0 01-.986-.484 5.39 5.39 0 01-1.218-3.546 1.57 1.57 0 010-.168h-.374v.162a5.825 5.825 0 001.334 3.81 1.752 1.752 0 001.251.6c.266.002.527-.065.76-.193a32.107 32.107 0 002.765-1.834l-.058.09a1.546 1.546 0 01-.238.349 5.245 5.245 0 00-1.779 2.093c-.083.17-.182.333-.297.484-.302.387-2.126.575-3.338-.149-1.018-.587-1.141-3.048-.722-5.392h-.38c-.439 2.486-.252 5.044.915 5.722 1.347.794 3.371.646 3.822.051a3.84 3.84 0 00.329-.536 4.967 4.967 0 011.669-1.937c.143-.133.261-.29.348-.465.219-.349.477-.795.902-.827.426-.032.98.33 1.657 1.098a32.17 32.17 0 003.416 3.371c.483.433 1.011.898 1.604 1.46h.555a38.56 38.56 0 00-1.934-1.744 30.532 30.532 0 01-3.39-3.358 2.978 2.978 0 00-1.818-1.208c.217-.166.453-.305.703-.413.645.084 1.141.742 1.888 1.737a23.946 23.946 0 003.223 3.636c.528.472 1.038.924 1.534 1.33h.593a40.247 40.247 0 01-1.876-1.614 23.597 23.597 0 01-3.177-3.578M101.351 20.712a16.902 16.902 0 01-.303 4.12 2.35 2.35 0 00.123 1.764h.419a2.04 2.04 0 01-.187-1.647c.078-.269.134-.543.167-.82 0 .122.001.258.046.374l.199.898c.181.84.252 1.13.432 1.195h.123c.18-.039.264-.252.348-.588.109-.445.2-1.208.303-2.028.096-1.072.277-2.134.541-3.177.247-.693.42-1.41.516-2.138h-.374a10.91 10.91 0 01-.496 2.015 20.908 20.908 0 00-.561 3.23 19.616 19.616 0 01-.297 1.988v.065c-.045-.18-.096-.42-.148-.646l-.206-.904c-.232-1.02 0-2.584.271-4.069.096-.562.18-1.13.251-1.68h-.38a52.76 52.76 0 01-.245 1.615l-.155.97c0-.873 0-1.757-.032-2.584h-.355v.4c0-.148 0-.265-.038-.4h-.381c0 .155.039.284.045.445a13.128 13.128 0 01-1.024 6.459c-.13.33-.258.646-.38 1.014h.405c.103-.297.213-.588.323-.878a12.892 12.892 0 001.05-4.993zM100.276 3.875a16.819 16.819 0 01-.187 3.016c-.07.4-.094.808-.071 1.214h.374c-.022-.38 0-.761.064-1.136a17.13 17.13 0 00.2-3.094c0-1.37 0-2.783.426-3.23a6.54 6.54 0 01.528-.484h-.561l-.245.227c-.509.542-.515 1.898-.528 3.474M119.114 46.01c-.1.158-.224.3-.368.42h.535c.051-.067.098-.136.142-.207.156-.234.338-.451.541-.646.232-.28.417-.597.548-.936v-1.034a5.843 5.843 0 01-.805 1.667c-.223.224-.422.47-.593.736zM97.93 8.241l.147-.149h1.064c-.052-.561-.103-1.13-.155-1.679a98.956 98.956 0 01-.245-3.139 9.66 9.66 0 01.355-3.113h-.4a10.032 10.032 0 00-.335 3.133c.045.859.148 1.976.258 3.158l.039.51c-.09-.471-.18-.84-.239-1.046-.329-1.24-.947-3.681-1.289-5.755h-.387c.348 1.983.935 4.321 1.34 5.845 0 .084.04.188.059.278a31.242 31.242 0 00-1.766-4.269A36.867 36.867 0 0195.57.161h-.4c.258.646.542 1.35.864 2.016.322.665.645 1.35.903 1.97A40.212 40.212 0 0094.809.16h-.438a.14.14 0 010 .04 27.664 27.664 0 013.558 8.04z" fill="#EF8502"/><path d="M105.148 39.21a3.015 3.015 0 01-1.805-.711h-.445a3.339 3.339 0 002.366 1.098 4.354 4.354 0 002.346-1.098h-.696a3.465 3.465 0 01-1.766.71zM118.47 45.144c-.123.226-.206.362-.29.362-.194 0-.645-.388-1.289-1.15a22.407 22.407 0 01-2.578-4.52l-.645-1.337h-.432c.245.478.49.981.735 1.505a22.52 22.52 0 002.617 4.598c.805.93 1.237 1.292 1.572 1.292.336 0 .464-.265.645-.556.107-.236.25-.454.425-.646a9.262 9.262 0 001.289-2.686V40.94c-.644 1.724-1.205 3.184-1.534 3.494a2.587 2.587 0 00-.502.71" fill="#EF8502"/><path d="M118.703 38.55c-.355.879-.529 1.292-.928 1.292-.2 0-.458-.594-.716-1.33h-.393c.374 1.11.677 1.705 1.109 1.705.677 0 .915-.608 1.289-1.518l.084-.187h-.393v.051" fill="#EF8502"/><path d="M117.923 45.073c.593 0 .78-.885 1.076-2.344a24.941 24.941 0 011.115-3.978l-.258-.259h-.038a24.427 24.427 0 00-1.186 4.134c-.213 1.052-.419 2.04-.709 2.04-.142 0-.432-.174-1.025-.994a15.233 15.233 0 01-2.353-5.167h-.393a15.693 15.693 0 002.437 5.412c.586.808.979 1.156 1.334 1.156zM106.444 24.58c-.2.763-.374 1.415-.542 2.016h.394c.148-.543.303-1.13.477-1.796a31.902 31.902 0 00-.174 1.557v.239h.367v-.213c.033-.65.104-1.297.213-1.938.129-.646.29-1.292.457-1.937.187-.724.374-1.428.497-2.19a32.534 32.534 0 01-.909 5.651 14.79 14.79 0 00-.11.588h.38c0-.168.065-.342.104-.504.478-1.906.786-3.851.921-5.812.047-.489.15-.97.31-1.434 0 .362-.045.833-.078 1.401a63.296 63.296 0 01-.535 6.362h.381c.122-.736.219-1.615.296-2.583v2.557h.838c-.024-2.65.125-5.3.445-7.93h-.374c0 .18-.058.367-.084.574v-.575h-1.211c-.13.395-.231.799-.303 1.208.052-.4.085-.804.096-1.208h-.374a13.657 13.657 0 01-.47 3.1 10.878 10.878 0 000-3.1h-.368c.216 1.655.08 3.336-.399 4.934l-.245 1.034zM104.684 26.596h.425c.4-.782.812-1.699 1.257-4.334.179-1.19.21-2.399.09-3.597h-.393a13.973 13.973 0 01-.071 3.533c-.464 2.77-.896 3.597-1.289 4.398M119.191 19.847v-.517l-.645-.646h-.167c.203.363.436.709.696 1.034l.135.148M117.143 45.493c-1.115-1.195-2.81-3.959-4.177-6.18-.174-.298-.348-.569-.496-.814h-.445c.207.329.413.645.645 1.014 1.373 2.228 3.081 5.011 4.228 6.239.219.228.452.444.696.645h.644a4.535 4.535 0 01-1.057-.936M99.554 8.092c-.17-2.102.017-4.218.554-6.258.159-.61.444-1.18.838-1.673h-.477a5.292 5.292 0 00-.722 1.563 19.126 19.126 0 00-.573 6.368h.38z" fill="#EF8502"/><path d="M110.826 18.665h-.393a19.344 19.344 0 00-.645 3.875 16.067 16.067 0 00.103 3.23c.064.316.206.61.413.858h.47a1.99 1.99 0 01-.516-.904 16.436 16.436 0 01-.077-3.326c.078-1.254.294-2.495.645-3.7M115.351 22.224c.206.71 1.063.645 2.088.31.42-.14.851-.24 1.289-.298a.821.821 0 01.452.2v-.42a1.111 1.111 0 00-.516-.154c-.459.06-.91.165-1.347.316-.812.246-1.476.42-1.612-.058a2.383 2.383 0 01.207-1.292 4.176 4.176 0 00.264-2.163h-.393c.112.69.027 1.397-.245 2.04a2.747 2.747 0 00-.213 1.519" fill="#EF8502"/><path d="M111.98 26.596h.503a27.612 27.612 0 01-1.141-1.337c-.915-1.15-.806-1.608-.587-2.512a8.81 8.81 0 00.297-1.854c.064-1.744 1.005-2.002 1.566-2.002.307.002.61.077.883.22.45.248.785.663.934 1.156a1.052 1.052 0 01-.064.82c-.348.646-.767 2.583-.541 3.17.058.162.161.22.419.279.279-.025.554-.086.818-.181a4.44 4.44 0 012.224-.194c.721.245 1.205.84 1.733 1.938l.168-.168v-.291a3.349 3.349 0 00-1.779-1.834 4.595 4.595 0 00-2.443.187c-.248.084-.506.14-.767.168-.199-.22.097-2.183.497-2.887a1.433 1.433 0 00.103-1.104 2.332 2.332 0 00-1.128-1.395 2.014 2.014 0 00-.297-.11h-1.488c-.548.226-1.161.788-1.219 2.209a8.27 8.27 0 01-.277 1.782c-.225.93-.38 1.544.645 2.835.335.427.644.782.928 1.105" fill="#EF8502"/><path d="M112.985 25.64a6.695 6.695 0 01-.786-1.098c-.716-1.163-.645-1.44-.496-2.164.045-.2.09-.426.135-.704.129-.84.406-1.15.548-1.15.142 0 .309.182.515.698.218.894.237 1.824.058 2.726a3.203 3.203 0 000 1.666l.026.026zm3.036.852c.075.02.148.046.219.078h.967a2.698 2.698 0 00-1.148-.452l-.805-.097c-1.154-.123-1.728-.187-1.972-.6a3.501 3.501 0 010-1.428 6.484 6.484 0 00-.084-2.906c-.567-1.447-1.515-1.124-1.785.53-.046.27-.097.484-.136.677-.167.788-.251 1.15.548 2.448.247.42.537.814.864 1.176.189.194.353.411.489.646h.432a7.257 7.257 0 00-.419-.646c.387.31 1.019.38 1.992.484l.838.09z" fill="#EF8502"/><path d="M54.725 8.725L57.503.142h-.394L45.482 36.077v1.22l9.23-28.52.013-.052zM45.482.808v1.124l.523-1.654-.523.53zM47.023.142l-1.54 4.695v1.208l1.94-5.903h-.4zM48.222.142l-2.74 8.118V9.45l3.14-9.307h-.4zM49.28.142L45.481 11.2v1.162L49.68.142h-.4zM50.188.142l-4.706 13.543v1.15L50.588.142h-.4zM50.993.142l-5.51 15.765v1.143L51.392.142h-.4zM51.702.142l-6.22 17.774v1.143L52.102.142h-.4zM52.36.142l-6.878 19.685v1.143L52.76.143h-.4zM52.965.142l-7.483 21.52v1.15L53.365.141h-.4zM53.558.142l-8.076 23.38v1.156L53.958.142h-.4zM54.138.142l-8.656 25.265v1.157L54.538.142h-.4zM54.712.142l-9.23 27.203v1.175L55.112.142h-.4zM55.292.142l-9.81 29.224v1.182L55.685.142h-.393zM55.878.142L45.482 31.478v1.202L56.278.142h-.4zM56.478.142L45.482 33.7v1.214L56.877.142h-.4zM55.375 8.08h.251L58.16.141h-.394l-2.604 8.15.213-.213zM54.712 9.707l-9.23 28.901v1.247l9.23-28.908v-1.24zM54.712 12.051l-9.23 29.276v1.26l9.23-29.276v-1.26zM56.356 8.08L58.857.141h-.393L55.963 8.08h.393zM57.135 8.08L59.611.141h-.4L56.742 8.08h.393zM54.712 14.622l-9.23 29.644v1.266l9.23-29.644v-1.266zM54.713 17.509l-8.83 28.656.258.258h.058l8.514-27.635v-1.28zM58.005 8.08L60.453.141h-.393L57.61 8.08h.394zM58.94 8.08L61.357.168h-.393L58.547 8.08h.393zM54.713 20.66L46.85 46.423h.393l7.47-24.47V20.66zM54.713 24.064l-6.768 22.36h.394l6.374-21.062v-1.298zM59.938 8.08L62.323.2h-.387l-2.391 7.88h.393zM61.034 8.08L63.393.233h-.387L60.621 8.08h.413zM54.713 27.79l-5.608 18.633h.394l5.214-17.321V27.79zM62.233 8.112l2.334-7.75-.387-.046L61.84 8.1h.393M54.712 31.866l-4.37 14.557h.393l3.977-13.233v-1.324zM54.713 36.2l-3.069 10.223h.394l2.675-8.906v-1.318zM63.503 8.19L65.817.483l-.38-.045-2.314 7.712c.129 0 .251.032.38.038zM64.856 8.396L67.17.73l-.374-.084-2.308 7.653.368.071M55.401 38.486l-2.391 7.937h.393l2.391-7.937h-.393zM66.274 8.693l2.34-7.705-.367-.07-2.327 7.665.354.11zM56.858 38.486l-2.41 7.937h.392l2.411-7.937h-.393zM58.4 38.486l-2.437 7.937h.4l2.436-7.937h-.4zM67.764 9.235l2.398-7.808-.361-.135-2.385 7.75.348.155M69.298 10.082l2.514-8.073c-.123-.046-.226-.097-.348-.149l-2.501 8.015c.11.071.226.13.335.207zM60.042 38.486l-2.482 7.937h.4l2.475-7.937h-.393zM61.764 38.473l-2.534 7.95h.4l2.54-7.963h-.406M70.772 11.431l2.74-8.64c-.11-.06-.213-.13-.335-.188l-2.695 8.505.29.323zM72.08 13.382l3.127-9.59-.329-.22-3.042 9.345c.084.148.161.31.245.465zM63.542 38.37l-2.63 8.047h.406l2.63-8.08-.406.045M65.347 38.105l-2.76 8.254h.4l2.792-8.345-.42.084M73.08 16.094l3.7-11.076-.309-.271-3.57 10.701c.064.214.122.427.18.646zM67.157 37.6l-2.952 8.662.413-.045 3.01-8.83c-.161.072-.303.15-.47.214zM73.686 19.646L78.2 6.44l-.29-.323-4.32 12.672c0 .284.078.561.104.858M73.84 23.283v.826l5.588-16.055-.257-.388-5.337 15.268v.349M69.058 36.626l-3.28 9.461.412-.045 3.41-9.79a6.42 6.42 0 01-.529.374M72.976 30.832L80.44 9.817l-.239-.459-6.69 18.781c-.124.91-.309 1.81-.554 2.694M71.277 34.507l-4.029 11.348.432-.084 4.609-12.982c-.28.607-.62 1.184-1.012 1.725M81.072 11.199L68.657 45.57l.439-.11 12.187-33.739-.213-.523zM81.756 13.123L70 45.21c.155-.039.303-.084.458-.136l11.485-31.316c-.058-.207-.123-.401-.187-.608M82.277 15.145L71.256 44.789c.167-.058.316-.136.477-.2L82.432 15.81c-.045-.226-.11-.439-.155-.646M82.651 17.225L72.455 44.279c.155-.065.329-.123.477-.2l9.842-26.099c-.032-.258-.084-.497-.123-.755zM82.897 19.33l-9.313 24.413c.174-.09.342-.194.516-.29l8.868-23.251c0-.29-.045-.575-.07-.859M83.031 21.474l-8.379 21.649.542-.342 7.85-20.331v-.976M75.742 42.374c.187-.142.387-.285.574-.433l6.722-17.212v-1.11l-7.296 18.755zM77.47 40.869l5.44-13.744c0-.432.078-.846.103-1.291l-6.206 15.694c.238-.207.45-.433.644-.646M78.758 39.396l3.816-9.565c.09-.53.174-1.052.239-1.601l-4.854 12.167c.284-.316.535-.645.8-.994M81.001 35.521l.316-.781a24.437 24.437 0 001.006-3.507l-3.01 7.408A17.746 17.746 0 0081 35.52z" fill="#BC0E7F"/><path d="M38.04 43.963l1.29-.252-.071 1.06-1.386.91.168-1.718zm-34.487.123l1.933-.414.116.646-1.933.381-.116-.613zm-2.063-.407l.87-.362.928 1.201.136.55-1.934-1.39zm1.231-.51l.206-.084.13.523-.336-.44zm3.416 1.808l-.367-1.834 1.52-.2.078.303-1.018 1.938-.213-.207zm-2.874-2.034l.683-.285.296.898-.78.168-.2-.781zm1.03-.427l.903-.374.226 1.162-.806.174-.322-.962zm29.423-.336l.644-.096-.406 1.382-.238-1.286zM1.89 41.87l.644-.064.252.91-.561.233-.335-1.079zm32.258 2.384l.644-2.235 1.67-.233-.336 2.177-1.933.394-.045-.103zm2.707-2.52l1.07-.154-.233 2.073-1.179.265.342-2.183zm1.456-.212l1.012-.142v1.97l-1.224.238.212-2.066zm-32.87-.09l1.444-.169.31 1.292-1.49.207-.264-1.33zm-2.526.102l1.579-.277.07.723-1.385.581-.264-1.026zm1.933-.342l.142-.032.116.607-.193.077-.065-.652zm.419-.581l1.405-.136.103.42-1.418.162-.09-.446zm-2.617-.032l.864-.427.161.86-.87.154-.155-.587zm-1.933 0l1.418-.485.335 1.33-1.29.13-.463-.975zm31.31-.323l2.868-.323.252 1.653-2.836.407-.284-1.737zm-28.146-.272l.832-.406.232 1.214-.877.155-.187-.963zm31.4-.083l3.288-.375 1.199 1.408-4.228.6-.258-1.633zm-34.81.142l1.425-1.027.174.704-1.508.51-.09-.187zm1.831-.963l.355-.122.31 1.085-.388.193-.277-1.156zm.71-.245l1.462-.497.161.846-1.327.646-.297-.995zm4.691-1.208h.51l.676 4.153-1.186-4.153zm-2.449-.032h.748l.6 2.486-.645.065-.703-2.551zm-.541 0h.154l.703 2.583-.355.039-.502-2.622zm31.742-.556l1.818 2.132-4.963.562 3.145-2.694zm-34.63.149l1.218-.33.258 1.492-1.095.401-.38-1.563zm34.913-.375l.845-.749 2.333 2.932-1.199.13-1.978-2.313zm-35.21-.781h1.367l.084.49-1.25.291-.2-.781zm1.747-.045h.742l.386 2.002-.74.252-.388-2.254zm1.373 1.233l-.245-1.291h.439l.225 1.291h-.419zm.806 0l-.232-1.291h.38l.316 1.291h-.464zm1.225 0l-.361-1.337h.496L7.2 37.24l-.522-.02zm.915 0l-.387-1.362h.722l.225 1.388-.56-.026zm24.556-1.563l.367.381-.645.356.278-.737zm-23.744.775l2.436-.91v.051l-2.404 1.292-.032-.433zm10.396-.91l.116-.181 1.727-.349-.773 1.447-1.07-.917zm-6.323-.478l.103-.188.432.446-.09.188-.445-.446zm-5.568-.168h.85l.103.646h-.767l-.186-.646zm-.42 0l.22.646h-.065l-.154-.646zm-.766 0h.38l.135.646H5.9l-.174-.646zM4.17 34.83h1.16l.187.755H4.326l-.155-.755zm-.212-.388l.444-.426 2.52.29.303.233-3.267-.097zm4.04-.4l.091-.039.786 1.938-.535.2-.341-2.1zm5.627 1.434l.065-1.634.728.426-.277 1.744-.516-.536zm-1.514-1.686l.432.433-1.006 1.827-.38-.755.954-1.505zm4.595 1.75l1.167-1.75 1.18.717-1.29 2.015-1.057-.982zm-2.01-.646l.193-1.156 1.424 1.64-.51.789-1.108-1.273zm-1.934-.33l.554-1-.065 1.505-.49-.504zm4.189-.16l.548-.872.045.032-.587.833-.006.006zm-8.52-.569l1.153-.471 1.064 1.866-1.425.523-.792-1.918zm23.846 1.505l.825-2.17 3.075 3.617-1.386 1.194-2.514-2.641zm-21.977-1.447l1.115-.794.393.394-.89 1.492-.618-1.092zm-5.582-.245l.638-.62 1 .775-1.638-.155zm26.225.297l1.85-1.027-.78 2.086-1.07-1.06zm-15.977-.724l.07-.452 1.728 1.938-.219.33-1.58-1.816zm6.832-.503l.045.051-.967 1.802-.483.104 1.405-1.957zm2.204 2.002l.831-2.267-.238 2.3-.593-.033zm9.275-1.983l.051-.129 1.031-.549 2.965 3.714-.857.736-3.19-3.772zm-26.87-.4l.644-.278.323.316.141.898-1.108-.936zm2.462-.284l.535.942-.329.136-.206-1.078zm12.246-.117l.438.491-1.689 2.358-.644.135 1.895-2.984zm-7.38 1.421v-.568l.522-.943.47.562-.225 1.401-.767-.452zM4.61 31.976l.477-.271 2.513 2.15.084.504-3.074-2.383zm11.33 1.246l.89-1.524.883.756-1.012 1.627-.76-.859zm1.76-.038l.986-1.576 1.43 1.182-.863 1.343-1.553-.95zm16.113-1.847l.335.42-.677.355.342-.775zm-23.1.465l.342-.646 1.843 2.273.058-.051-.226.42-2.017-1.996zm-1.166-.646l1.61 1.64-1.037.73-.954-1.68.38-.69zm-4.112.342l.644-.38.645.645-.645.297-.644-.562zm1.005-.575l.645-.355.154.988-.103.046-.696-.679zm4.808-.096l.342-.608 1.669 2.648-.148.252-1.863-2.293zm7.638.452l.65-1.066 1.29 1.434-.529.82-1.411-1.188zm8.385-1.57l-.342 5.167-1.933-.11.225-2.215 2.05-2.842zm-15.146.646l.457-.704 1.45 1.899-.535.975-1.372-2.17zm11.884-.73l1.057.917-.096.582-.98 2.654-3.055 1.576 3.074-5.729zm6.091-.045l2.578 3.016-2.83 1.498.252-4.514zm-9.565 1.156l.716-1.356 1.611 1.492-.825 1.543-1.502-1.679zm13.432.194l.6-1.576 1.289 1.724-1.36.53-.529-.678zm-28.61-1.098l1.038-.562.644.91-.837.472-.845-.82zm2.018.213l-.142-.891L8.29 31l.438 2.247-.793.336-.56-3.539zm7.09 1.44l1.327-2.422.193.259-1.463 2.305-.058-.142zm2.577-.116l1.405-2.422.87.969-1.379 2.215-.896-.762zm-7.321-.562l.992-1.97.645 1.02-.922 1.667-.715-.717zm3.048-1.524l.329-.497 1.38 1.866-.284.51-1.425-1.88zm-4.834.426l.645-1.22.999 1.743-.645 1.26-.999-1.783zm3.449-.458l.644-.95.554.588-.722 1.098-.476-.736zm-6.845-.188l1.044-.955.586.878-1.102.6-.528-.523zm8.778-.58l.284-.434 1.347 1.783-.271.49-1.36-1.84zm-4.512-.375l.104-.2 1.044 1.556.058-.039-.207.42-.999-1.737zm-2.945-.259l.393-.361.464.813.168 1.027L5.86 27.85zm6.394.136l.605-.917.51.645-.555.847-.56-.575zm17.84 1.04l.09-2.106 1.366 1.621L33.542 31l-.516 1.35-.051.033-2.881-3.358zm1.688-.853l.729-1.556 1.804 2.383-.6 1.588-1.933-2.415zm-2.971-.697l.973-1.396.058.343-.09 2.15-.941-1.097zm-17.898.942l1.199-2.39.502.647-1.424 2.163-.277-.42zm-2.456-1.905l.568-.878 1.746 2.222-.6 1.207-1.714-2.55zm-2.333-.032l1.167-.982 1.366 2.028-.928 1.776-1.605-2.822zm1.463-1.208l.645-.562.515.646-.554.846-.606-.93zm22.597 1.047l-.116-.646.812-1.195 1.353 1.795-.74 1.583-1.31-1.538zM8.58 24.451l.812-.646 1.727 3.455-.135.285-2.404-3.094zm2.326 1.505l1.29-2.364.47.536-1.353 2.68-.407-.852zm18.633-3.281l1.122 1.492-.645.956-.477-2.448zm1.599 1.479l1.166-1.666 1.444.645-1.289 2.758-1.321-1.737zm-21.43-.646l1.424-1.182.832.95-1.244 2.254-1.012-2.022zm2.958 0l.877-1.55.154.11-.85 1.698-.181-.258zm-1.244-1.414l1.025-.866.786.53-.863 1.492-.948-1.156zm16.796-1.189l.825 1.098.645 3.552-1.973 2.81.503-7.46zm.451-.032l3.28 1.453-1.05 1.505-2.23-2.958zm-14.179.543l.342-.75 1.089 1.001-1.431-.251zm-1.701-.446l.476-.4.916.645-.265.536-1.127-.781zm-4.016.756l.612-1.337 1.47 1.666-1.354 1.124-.728-1.453zm4.75-1.402l.503-.413.516.478-.232.465-.787-.53zm-3.964-.303l.252-.556 2.3 1.557-.953.794-1.599-1.796zm2.089.226l1.327-1.292.76.697-1.288 1.105-.8-.51zm14.295 5.199l.683-6.6 1.212 1.6-.335 5.129-1.56-.13zM12.718 18.2l1.534-.2.863 1.208h.032l-.425.814-2.004-1.822zm-2.752.904l.934-2.06 1.798 1.647-1.373 1.33-1.36-.917zm1.534-2.027l.857-.375.644 1.085-.58.071v.052l-.921-.834zm3.415 1.207l1.148-1.705.238.317-.98 1.937-.406-.549zm11.756-.077l.207-1.802 4.343.646-3.866 2.112-.684-.956zm-13.966-1.654l.386-.168.91 1.292-.613.078-.683-1.202zm.74-.323l1.748-.73.644.802-1.154 1.653-1.237-1.724zm2.102-.917l.593-.258.696.775-.342.691-.947-1.208zm-4.48 1.37l.87-1.938.929 1.292-1.67.755-.128-.11zm1.554-1.609l1.766-.645.56.723-1.727.762-.6-.84zm14.295.956l.194-1.937 1.881.613-1.662 1.376-.413-.052zm-14.875-1.763l1.804-.51.29.375-1.746.645-.348-.51zm2.191-.646l.49-.142 1.154 1.292-.567.245-1.077-1.395zm-3.422-1.098l1.804-.361.98 1.253-1.792.53-.992-1.422zm2.217-.445l.348-.078 1.063 1.176-.45.122-.961-1.22zm.78-.162l1.36-.277v-.084L17.1 15.32l-.064.129-3.23-3.533zM27.342 12l.077-.71 1.36.536-.374.497L27.342 12zm-1.496-1.343l1.206.484-.323 3.068-.373.6-.51-4.152zm-.16-1.247l.347-.968h1.29l-.24 2.344-1.288-.523-.11-.853zM15.411 7.557l1.933-.691.348 5.212-2.281-4.521zm-2.07-.33l1.29-.374.496.982-1.289.27.032.15-.528-1.028zm1.683-.478l2.32-.645v.387l-2.107.743-.213-.485zm2.965 3.585l-.297-4.372 3.468-.989-.593 5.716-2.578-.355zm3.564-5.47l.593-.175-.787 7.292-.457.73.168.439.193-.304-.065.646.271.775.232-2.163 3.223-5.225.386 3.061-3.364 5.677.174.452 3.268-5.522.605 4.76-2.171 3.546-1.225-1.499.412 1.105.606.736-.2.349.174.452.458-.717 2.578-4.217-.541 5.199-2.153.574.135.362 1.992-.53-.367 3.52-.645-.42.22.588.386.252-.064.646.296.788v-.207l1.573.149v.587h-1.38l.142.381h1.199l-.097 1.466-1.076-.148-.322.316h-.136l1.508.207v.194l-2.004 2.867.335-3.268h-.374l-.154 1.486-.941-.814.367-.691H24.1l-.232.44-.51-.44h-.599l.896.782-.645 1.181-1.54-1.466.245-.465h-.425l-.11.207-.22-.207h-.347l-.097.104.484.445-.703 1.324-1.637-1.84v-.033h-.438l-2.553 4.34-.4-.445 2.579-3.914h-.438l-2.385 3.604-.245-.271 2.114-3.346h-.451l-.245.381-.284-.381h-.464l.097.136-.406.736-2.836-3.759.413-.82 1.662 2.228.716-1.938-.76 1.228-1.406-1.938.451-.904 1.766 1.472.136-.374-1.747-1.382.477-.943 1.714 1.156.136-.362-1.676-1.143.077-.161 1.973.303.18-.49-1.405-1.292.129-.265 1.502.95.135-.362-1.47-.924.361-.762 1.38.891.135-.362-1.347-.871.187-.369 1.289.924.142-.362-1.244-.904.341-.646.787 1.001.296-.239-.89-1.136.368-.736.954 1.052.18-.407-.928-1.007.071-.142.993.781.135-.368-1.044-.827-3.5-6.768 1.335-.284 3.538 6.917.18-.478-.87-1.699-.148-2.176 2.514.342-.097.956h.226l.115.316.787-7.491zm.986-.285l2.062-.594.29 2.287-3.074 4.953.722-6.646zm-8.379-.51l1.141-.38 1.07 2.253-.767.22-1.444-2.093zm1.508-.478l.922-.297 1.063 2.3-.908.264-1.076-2.267zm-.69-1.466l1-.187.457.988-.921.304-.535-1.105zm1.387-.232l1.288-.22.593 3.759-.212.065-1.67-3.604zm1.669-.278l.477-.084.419 3.7-.323.091-.573-3.707zm.857-.142l.696-.116.251 3.623-.54.187-.407-3.694zm1.064-.18l1.869-.31-.071 3.448-1.573.44-.226-3.579zm2.249-.375l1.07-.181.69 3.061-1.85.523.09-3.403zm-4.892-.53l.07.956-1.011.168.941-1.124zm7.264-.245L23.565.31l-.039-.167h-.38l.045.226-.98.167V.143h-.374v.452l-1.514.258-.065-.71h-.373l.064.768-1.102.187-.116-.955h-.38l.116 1.02-.71.13-.083-1.15h-.645L15.8 1.609l-.774.129-.277.71.245.523-.522.168-.18.459.87-.278v.045l-.916.304-.296.743 1.289 1.879-2.063.594-.116-.232-.187.465 2.153 4.191-.935.187-1.643-3.313-.187.472 1.437 2.919-.432.09-1.289-2.221-.18.445 1.096 1.854h-.103l-1.18-1.447-.161.407.902 1.143-.348.071-.696-.852-.161.4.438.536-.702.149-.297.73.845 1.175-.13.039-.837-.898-.155.387.587.646-.941.265-.174.446 1.379-.42.464-.13-.909 2.003-1.16-1.066-.148.375 1.205 1.091-.96 2.119-1.135-.775-.135.33 1.121.748-.2.452-.921-1.052-.09.084-.11.27.948 1.08-.548 1.265-.728-1.447-.187.465 1.56 3.094-.29.245-1.522-2.706-.174.453 1.373 2.48-.29.239-1.457-1.854-.167.407 1.334 1.692-.645.543-.992-1.434-.174.407.864 1.291-1.148.95-.348-.646-.18.452.644 1.15-.412.374-.529-.788-.16.446.405.646-1.037.949-.316.814.258-.246 1.566 1.563-.696.394-1.354-1.15-.142.369 1.141.982-.496.277-.857-.678-.516 1.246.593-.703.69.53v.064l.799.646-.722.755-1.779-.206-.142.361 1.573.188-.496.445-1.29-.039-.148.375 1.837.052.155.84-2.365.05-.33.834.117.446-.329.09-.225.44.644-.162.148.581-1.076.355-.187.459 1.321-.452.097.387-1.489 1.085-.103-.206v1.253l.168-.072.438.905-.606.058v.38l1.29-.122.083.252-1.373.465v.4l1.508-.516.194.581-1.702.71v.407l.87-.361.342.245-1.212.775v.459l1.54-.995.394.232-1.206 1.848h.452l.535-.834.986.834h.573l-1.34-1.156.29-.446 1.128.827.2.775h.386l-.11-.433.6.433h.644L3.888 45.41l-.09-.375 1.882-.375.322 1.75h.386l-.16-.852.786.646.277-.284-.645-.523.851-1.596.277 1.15.232-.646-1.611-6.678h.896l1.392 4.883.477-1.26-.116-.73.38.04.142-.369-.587-.058-.186-1.182 1.224.065.142-.375-1.43-.064-.22-1.337.812-.427.928 1.647.18-.465-.773-1.356.425-.233.568 1.053.11-.277.128-.065-.47-.846.644-.336.484.853.341-.175-.187-.33.103.053.49-.905.464.465-.29.646h.42l.354-.762v.762h.38v-.555l.528.555h.523l-.187-.206.148-.937.967 1.137h.502v-.039l.439-.646.747.691h.954l.4-.646.74.646h.942l.31-.587.702-.433.78.975h.477l-.883-1.15 2.088-1.078-.845 2.228h.4l.516-1.401h.69l-.142 1.369h.38l.142-1.35 1.933.11-.084 1.24h.38l.484-7.402.909-1.291 1.14 1.337-.27 6.129-.039-.059-1.869 1.292h.645l1.224-.852-.058 1.253.368.18.148-2.512.786-.433 1.231 1.292-.51 1.33-1.34.763.136.355.986-.569-.606 1.596.103.277.168.065.85-2.228 1.115-.646 1.753 1.834-1.836 1.576v.032l-1.754.2.142.362.548-.058.284 1.744h-.18l.334.878.2-.575 1.031-.148.42 2.002-.426 1.666.303.304.329-1.143.296 1.395h.387l-.355-1.686 1.818-.362-.322 2.048h.386l.329-2.132 1.199-.239-.213 1.938-.696.459h1.025v-.24l1.514-.988v1.227h.38l.04-5.102.354-.058.38.452v-.891l-.226.032-1.192-1.395 1.366-.174.052-.032v-.123l-.103-.265-2.456-3.068.928-.794-.245-.284-.921.788-2.881-3.61 1.347-.53 2.662 3.52-.542-1.318-1.778-2.357.734-.29-.142-.35-.831.33-1.508-1.996.825-2.163-.206-.523-.883 2.331-.47-.613 1.288-1.835-.167-.413-1.38 1.938-1.07-1.421 1.418-2.971.13.058-.258-.646-.059.11-.464-.168.297-.459-.168-.426-.464.704-.567-.252.786-1.124-.16-.42-.974 1.39-.316-.136.645-2.803-.245-.608-.787 3.23-3.306-1.46-.593-.788 4.228-2.26-.18-.465-3.77-.582 1.591-1.291 1.618.536-.18-.459-1.096-.355.709-.581-.239-.297-.895.736-2.185-.71.135-1.292 2.926.891-.18-.452-1.257-.381.348-.471.683.277-.193-.484-.258-.11.142-.187-.168-.414-.335.459-1.553-.646.07-.646 1.786.71-.193-.477-1.554-.646.149-1.46h.58l-.149-.374h-.386l.077-.782-.296-.762-.162 1.557h-1.23l.889-2.842-.226-.575v.123l-1.205 3.843-.625-4.708 1.373-.394-.142-.35-1.876.537-.644-3.016L24.97.44l-.322-.323-.071.026z" fill="#E10717"/></svg>