{
	"asset" : {
		"generator" : "FME 2019.2.0.0",
		"version" : "2.0"
	},
	"images" : [
		{
			"uri" : "textures/2B811242.jpg"
		}
	],
	"samplers" : [
		{
			"wrapS" : 10497,
			"wrapT" : 10497
		}
	],
	"textures" : [
		{
			"source" : 0,
			"sampler" : 0
		}
	],
	"materials" : [
		{
			"name" : "2B811242",
			"pbrMetallicRoughness" : {
				"baseColorTexture" : {
					"index" : 0,
					"texCoord" : 0
				},
				"roughnessFactor" : 1,
				"metallicFactor" : 1
			}
		},
		{
			"name" : "default_material",
			"pbrMetallicRoughness" : {
				"baseColorFactor" : [ 0.8, 0.8, 0.8, 1 ],
				"roughnessFactor" : 0.30000000000000004,
				"metallicFactor" : 0.5
			}
		}
	],
	"meshes" : [
		{
			"primitives" : [
				{
					"attributes" : {
						"NORMAL" : 1,
						"POSITION" : 0,
						"TEXCOORD_0" : 2
					},
					"indices" : 3,
					"material" : 0,
					"mode" : 4
				}
			]
		}
	],
	"nodes" : [
		{
			"matrix" : [ 1, 0, 0, 0, 0, 0, -1, 0, 0, 1, 0, 0, 0, 0, 0, 1 ],
			"mesh" : 0
		}
	],
	"scenes" : [
		{
			"nodes" : [ 0 ]
		}
	],
	"scene" : 0,
	"accessors" : [
		{
			"bufferView" : 0,
			"byteOffset" : 0,
			"componentType" : 5126,
			"count" : 647,
			"type" : "VEC3",
			"min" : [ -11.566838264465332, 0, 0 ],
			"max" : [ 154.28736877441406, 192.4335479736328, 24.584745407104492 ]
		},
		{
			"bufferView" : 1,
			"byteOffset" : 0,
			"componentType" : 5126,
			"count" : 647,
			"type" : "VEC3",
			"min" : [ -0.9960781335830688, -0.9001721739768982, -6.892872050912047e-8 ],
			"max" : [ 0.9999329447746277, 0.9141775965690613, 1 ]
		},
		{
			"bufferView" : 2,
			"byteOffset" : 0,
			"componentType" : 5126,
			"count" : 647,
			"type" : "VEC2",
			"min" : [ 0.0001220703125, 0.1641520857810974 ],
			"max" : [ 0.9950793981552124, 0.9998779296875 ]
		},
		{
			"bufferView" : 3,
			"byteOffset" : 0,
			"componentType" : 5123,
			"count" : 1200,
			"type" : "SCALAR",
			"min" : [ 0 ],
			"max" : [ 646 ]
		}
	],
	"bufferViews" : [
		{
			"buffer" : 0,
			"byteOffset" : 0,
			"byteLength" : 7764,
			"target" : 34962
		},
		{
			"buffer" : 0,
			"byteOffset" : 7764,
			"byteLength" : 7764,
			"target" : 34962
		},
		{
			"buffer" : 0,
			"byteOffset" : 15528,
			"byteLength" : 5176,
			"target" : 34962
		},
		{
			"buffer" : 0,
			"byteOffset" : 20704,
			"byteLength" : 2400,
			"target" : 34963
		}
	],
	"buffers" : [
		{
			"uri" : "Gare_Strasbourg.bin",
			"byteLength" : 23104
		}
	]
}