<?xml version="1.0" encoding="UTF-8" standalone="no"?>
<!-- Created with Inkscape (http://www.inkscape.org/) -->

<svg
   width="186.43401mm"
   height="110.562mm"
   viewBox="0 0 186.434 110.56199"
   version="1.1"
   id="svg5"
   xml:space="preserve"
   inkscape:version="1.2.1 (9c6d41e410, 2022-07-14)"
   sodipodi:docname="18_PVD.svg"
   xmlns:inkscape="http://www.inkscape.org/namespaces/inkscape"
   xmlns:sodipodi="http://sodipodi.sourceforge.net/DTD/sodipodi-0.dtd"
   xmlns="http://www.w3.org/2000/svg"
   xmlns:svg="http://www.w3.org/2000/svg"><sodipodi:namedview
     id="namedview7"
     pagecolor="#ffffff"
     bordercolor="#000000"
     borderopacity="0.25"
     inkscape:showpageshadow="2"
     inkscape:pageopacity="0.0"
     inkscape:pagecheckerboard="0"
     inkscape:deskcolor="#d1d1d1"
     inkscape:document-units="mm"
     showgrid="false"
     inkscape:zoom="0.74564394"
     inkscape:cx="324.55169"
     inkscape:cy="402.3368"
     inkscape:window-width="1920"
     inkscape:window-height="1017"
     inkscape:window-x="-8"
     inkscape:window-y="-8"
     inkscape:window-maximized="1"
     inkscape:current-layer="layer1" /><defs
     id="defs2" /><g
     inkscape:label="Calque 1"
     inkscape:groupmode="layer"
     id="layer1"
     transform="translate(-22.476697,-45.519504)"><path
       style="fill:#333333;fill-opacity:1;stroke-width:0.236378"
       d="m 59.01856,150.85219 c -1.53922,-0.71593 -2.504642,-3.00111 -2.088214,-4.94285 0.353375,-1.64773 0.829414,-2.46063 1.84517,-3.15085 0.984283,-0.66884 1.97548,-0.84136 1.492859,-0.25983 -0.154232,0.18583 -0.321005,0.65855 -0.370607,1.05048 -0.0496,0.39193 -0.261982,1.04482 -0.471958,1.45087 -0.545959,1.05577 -0.573057,3.0516 -0.05224,3.84777 0.679857,1.03929 2.560571,0.76837 3.383371,-0.48738 0.325269,-0.49642 0.514922,-0.56457 1.284076,-0.46141 l 0.902439,0.12105 0.402088,-1.64075 c 0.221148,-0.90242 0.362802,-1.66231 0.314786,-1.68866 -0.04801,-0.0263 -0.406408,-0.23216 -0.796431,-0.45737 -0.772718,-0.44619 -1.880322,-0.96991 -2.55604,-1.2086 -0.238437,-0.0842 -0.35611,-0.26878 -0.265185,-0.4159 0.214716,-0.34742 2.372677,-0.0679 3.029956,0.3925 0.268071,0.18777 0.61919,0.34139 0.780263,0.34139 0.448968,0 0.747768,-1.49116 0.923621,-4.60936 0.184443,-3.2705 0.338157,-3.72283 1.229809,-3.61892 0.944907,0.11011 1.279906,0.95426 1.12454,2.83366 -0.161791,1.95712 -0.942913,5.97118 -1.535015,7.88818 -0.244516,0.79165 -0.518692,1.96386 -0.609279,2.60491 -0.283308,2.00482 -1.07028,2.72011 -2.033568,1.84835 -0.388574,-0.35166 -0.482189,-0.34299 -1.219736,0.11283 -1.009498,0.62391 -3.773528,0.88766 -4.714703,0.44989 z m 12.109341,0.13568 c -1.59886,-0.66985 -2.597638,-2.24763 -2.648584,-4.18401 -0.05596,-2.1267 1.773935,-5.36007 3.241993,-5.72853 0.28565,-0.0717 1.284487,0.028 2.219639,0.22155 2.725395,0.56409 4.0419,1.87832 4.0419,4.03493 0,1.53584 -0.34267,1.65983 -4.06637,1.47137 l -3.024956,-0.1531 v 0.81137 c 0,0.93127 0.507973,1.55427 1.267298,1.55427 0.288419,0 1.158373,-0.16632 1.93323,-0.36959 1.855696,-0.48682 2.655231,-0.49453 3.11967,-0.0301 0.649904,0.6499 0.08448,1.42542 -1.39024,1.90681 -1.346241,0.43946 -4.102743,0.71256 -4.69358,0.46502 z m 4.83396,-6.44427 c 0.07387,-0.11953 -0.04613,-0.39777 -0.266679,-0.61832 -0.43652,-0.43651 -2.286865,-1.29176 -2.794769,-1.29176 -0.327806,0 -1.299757,1.39077 -1.299757,1.85983 0,0.32875 4.159462,0.37668 4.361205,0.0503 z m 71.209769,5.58101 c -0.28661,-0.30015 -0.62771,-0.73421 -0.758,-0.96457 -0.22557,-0.39882 -0.33136,-0.39969 -2.21402,-0.0182 -1.13437,0.22985 -2.53887,0.35403 -3.29496,0.29133 -1.13038,-0.0937 -1.4086,-0.21802 -1.95601,-0.87373 -1.30461,-1.56271 -1.05752,-3.65396 0.61373,-5.19446 1.74359,-1.60719 2.78228,-2.02172 5.07894,-2.02695 1.89633,-0.004 2.01342,-0.0342 2.08409,-0.53139 0.10524,-0.74051 -0.93227,-1.71877 -1.82288,-1.71877 -0.38818,0 -1.47157,0.27623 -2.40752,0.61385 -1.88322,0.67931 -2.6334,0.57533 -2.94559,-0.40831 -0.23804,-0.74999 0.69383,-1.48755 2.63818,-2.0881 3.04167,-0.93947 4.92806,-0.38712 5.98863,1.75353 0.54793,1.10595 0.58574,1.44652 0.68021,6.12692 0.0925,4.58501 0.0679,4.9794 -0.32989,5.27024 -0.5862,0.42864 -0.75167,0.40039 -1.35491,-0.23138 z m -2.64851,-3.6243 c 1.58217,-0.51362 1.77284,-0.70062 1.77284,-1.73879 0,-0.80498 -0.0685,-0.90072 -0.74114,-1.03524 -1.01135,-0.20227 -2.30038,0.18292 -3.4858,1.04163 -1.18956,0.86171 -1.71233,1.80016 -1.19631,2.14751 0.42124,0.28355 2.07889,0.095 3.65041,-0.41511 z m -55.516272,3.35105 c -2.00424,-0.7145 -3.12825,-2.74359 -2.942479,-5.31185 0.08597,-1.18846 0.254612,-1.57408 1.359566,-3.10873 1.52658,-2.12025 2.116845,-2.66125 3.764028,-3.44989 1.615517,-0.77348 3.086941,-0.65381 4.78152,0.38888 0.641876,0.39495 1.26465,0.71809 1.383945,0.71809 0.334701,0 0.44677,-0.62155 0.596683,-3.30929 0.287457,-5.1537 0.336488,-5.43668 0.942019,-5.43668 0.917379,0 1.19295,0.60854 1.16676,2.57657 -0.0303,2.28107 -0.509394,9.37002 -0.696435,10.30601 -0.07794,0.39002 -0.357237,1.82601 -0.620661,3.19109 -0.615662,3.1904 -1.00807,3.67721 -2.091118,2.59416 l -0.478755,-0.47876 -1.732543,0.83332 c -1.935036,0.93072 -3.735282,1.09213 -5.43253,0.48708 z m 3.460584,-2.26812 c 0.491083,-0.13638 1.269054,-0.57824 1.728825,-0.98193 0.599697,-0.52654 1.054586,-0.72575 1.609579,-0.70488 0.741578,0.0279 0.785029,-0.0203 1.048613,-1.16219 0.389076,-1.68557 0.34618,-2.06831 -0.381042,-3.39992 -1.115612,-2.04278 -3.037272,-2.21925 -5.305643,-0.48721 -1.333828,1.01845 -2.782125,3.00808 -2.9521,4.05552 -0.215682,1.32909 0.297619,2.17399 1.556213,2.56154 1.356422,0.41768 1.584067,0.42773 2.695555,0.11907 z m 12.226078,1.96494 c -2.31671,-1.49399 -3.25646,-3.29968 -2.97334,-5.71309 0.36208,-3.08656 2.7718,-5.54451 6.04409,-6.16509 1.58829,-0.30121 2.45719,0.06 4.10286,1.70568 1.76951,1.76952 2.55506,4.15911 1.63145,4.96278 -0.38355,0.33375 -2.25213,0.61977 -5.06639,0.77551 -2.37912,0.13166 -4.21142,0.40437 -4.21142,0.62681 0,0.9656 1.52697,1.9776 2.69734,1.78768 0.40323,-0.0654 1.33464,-0.40377 2.0698,-0.75185 0.75366,-0.35684 1.62696,-0.59937 2.00223,-0.55606 0.82082,0.0947 1.35877,1.00098 0.99628,1.67832 -0.35453,0.66244 -3.42493,2.02852 -4.92912,2.19306 -1.16236,0.12714 -1.41276,0.0696 -2.36378,-0.54375 z m 5.53948,-6.90881 c 0.80277,-0.30521 0.76519,-0.6034 -0.19735,-1.56594 -0.89276,-0.89277 -1.57247,-1.00238 -2.86549,-0.46213 -0.86153,0.35997 -2.00388,1.36518 -2.00388,1.7633 0,0.21072 0.75044,0.30493 3.58937,0.4506 0.47906,0.0246 1.14387,-0.059 1.47735,-0.18583 z m 14.86887,7.32218 c -0.99685,-0.40198 -1.17626,-2.09864 -0.56245,-5.31882 0.51,-2.67554 0.50858,-4.53197 -0.004,-4.86507 -0.18757,-0.12196 -0.60695,-0.15881 -0.93195,-0.0819 -0.82735,0.19583 -3.47545,1.53708 -4.00049,2.02623 -0.48616,0.45292 -0.91184,2.48778 -1.18335,5.65664 -0.19818,2.31299 -0.30857,2.58258 -1.05752,2.58258 -1.03891,0 -1.32263,-0.66244 -1.32413,-3.09152 -0.001,-2.28412 0.61076,-7.85655 0.93278,-8.49098 0.28021,-0.55204 1.40811,-0.57642 1.98884,-0.043 0.50609,0.46488 0.51093,0.4644 2.16187,-0.21141 2.09664,-0.85826 3.27238,-0.88255 4.4363,-0.0917 0.48521,0.32971 0.88219,0.702 0.88219,0.82732 0,0.40615 0.62465,0.24468 2.50157,-0.64667 3.60511,-1.71206 5.65621,-1.24829 6.24439,1.41191 0.27456,1.24179 0.34112,8.13338 0.085,8.80083 -0.0754,0.19654 -0.40955,0.42572 -0.7425,0.50929 -0.47426,0.11903 -0.72461,0.0133 -1.15582,-0.48798 -0.47407,-0.55114 -0.55043,-0.89441 -0.55043,-2.47434 0,-1.00894 0.11383,-2.45019 0.25295,-3.20278 0.29095,-1.57389 0.0951,-3.18165 -0.41135,-3.37597 -0.45687,-0.17532 -3.6263,1.44219 -4.66908,2.38285 -0.70033,0.63174 -0.87143,1.006 -1.18652,2.5954 -0.20251,1.02147 -0.3682,2.62233 -0.3682,3.55748 0,1.00727 -0.11561,1.81589 -0.28365,1.98393 -0.32484,0.32484 -0.36295,0.32656 -1.05473,0.0476 z m 28.25256,-1.21507 c -0.46381,-0.46382 -0.49393,-0.6739 -0.36435,-2.54106 0.0777,-1.1195 0.30234,-2.78003 0.49921,-3.69009 0.19686,-0.91005 0.42938,-2.4336 0.5167,-3.38566 0.0939,-1.02387 0.3017,-1.87395 0.50863,-2.08089 0.49452,-0.49452 1.28722,-0.31072 1.658,0.38444 0.43082,0.80772 0.20418,4.34597 -0.41566,6.48924 -0.26142,0.90393 -0.54162,2.33992 -0.62266,3.1911 -0.19607,2.05931 -0.7997,2.61309 -1.77987,1.63292 z m 5.36241,-0.90044 c -0.35554,-0.39287 -0.39557,-0.7489 -0.27243,-2.42287 0.0794,-1.07928 0.20942,-3.42767 0.28895,-5.21865 0.16337,-3.67902 0.20373,-3.75227 2.03072,-3.68584 0.55804,0.0203 1.49328,-0.1486 2.07831,-0.37532 0.58504,-0.22671 1.64873,-0.45928 2.36378,-0.51682 1.0981,-0.0884 1.50061,0.001 2.59091,0.57735 0.70996,0.37508 1.48045,0.93808 1.7122,1.25112 0.61549,0.83134 0.86714,2.55976 0.60549,4.15858 -0.12372,0.75597 -0.16764,2.32298 -0.0976,3.48225 0.14731,2.43833 -0.0387,2.97437 -1.03183,2.97437 -1.30379,0 -1.48751,-0.66241 -1.4464,-5.21499 l 0.0362,-4.01345 -0.65266,-0.24886 c -1.33834,-0.51031 -4.58938,0.45409 -5.00846,1.48571 -0.12192,0.30013 -0.4531,2.08806 -0.73597,3.97317 -0.51747,3.44863 -0.82915,4.25479 -1.64498,4.25479 -0.21972,0 -0.58704,-0.20724 -0.81627,-0.46054 z m -3.66269,-14.575 c -0.53593,-0.78681 -0.55286,-0.89595 -0.22892,-1.47574 0.44467,-0.79589 1.35125,-0.9173 2.15117,-0.28809 1.23169,0.96886 0.8604,2.6182 -0.5887,2.61511 -0.60062,-0.001 -0.87305,-0.1752 -1.33355,-0.85128 z M 50.208491,128.36673 c -2.318608,-1.0977 -4.054123,-3.07387 -4.49313,-5.11617 -0.09781,-0.45502 -0.368829,-1.07097 -0.602259,-1.36876 -0.40725,-0.51954 -0.407432,-0.58168 -0.0045,-1.53645 0.230955,-0.54726 0.612724,-1.5227 0.848374,-2.16765 0.736587,-2.01598 4.157705,-4.8471 5.864062,-4.85278 1.560463,-0.005 4.682551,2.72575 5.468301,4.7832 0.46846,1.22665 0.395975,2.86838 -0.148679,3.36743 -0.187956,0.17222 -1.861454,0.40233 -4.176918,0.57435 -2.124821,0.15786 -4.012887,0.34441 -4.195701,0.41456 -0.571261,0.21921 -0.369766,0.69144 0.726033,1.70151 0.908891,0.83778 1.206667,0.97561 2.1078,0.97561 0.57716,0 1.545684,-0.21274 2.152276,-0.47275 2.465791,-1.05696 4.099252,-0.29374 3.859591,1.80336 -0.06647,0.58166 -0.313928,0.79228 -1.732193,1.47433 -2.224594,1.06982 -4.020037,1.20281 -5.67306,0.42021 z m 3.722946,-9.41163 c 0.600472,-0.30824 0.509162,-0.84571 -0.27729,-1.63216 -0.812543,-0.81254 -1.596785,-0.87614 -2.9917,-0.2426 -0.967595,0.43946 -2.297252,1.84656 -2.078853,2.19993 0.148618,0.24047 4.796487,-0.0421 5.347843,-0.32517 z m 24.791134,9.02284 c -1.635697,-0.38629 -1.670163,-0.50073 -1.96811,-6.53493 -0.266669,-5.40069 -0.264651,-5.45281 0.252418,-6.52093 0.892531,-1.84372 2.692995,-2.10446 3.616214,-0.52369 0.385038,0.65928 0.402804,1.13909 0.215449,5.81924 -0.112303,2.80539 -0.150367,5.57822 -0.08458,6.16184 0.103422,0.91756 0.04486,1.11348 -0.432838,1.44808 -0.303844,0.21282 -0.608551,0.37605 -0.677132,0.36275 -0.06858,-0.0133 -0.483214,-0.10887 -0.921418,-0.21236 z m 24.251019,-0.57508 c -2.78743,-0.98374 -4.937156,-2.63815 -5.364595,-4.12855 -0.307991,-1.07389 0.08207,-5.19385 0.586393,-6.1937 0.511994,-1.01505 2.078042,-2.46166 3.307022,-3.05481 0.74902,-0.3615 1.46129,-0.45661 3.42748,-0.45764 3.22176,-0.002 4.11295,0.42809 4.89757,2.36187 0.28852,0.7111 0.52786,1.79972 0.53185,2.41917 0.007,1.02038 -0.065,1.17031 -0.76097,1.59467 -0.50658,0.30887 -1.18937,0.4687 -2.00482,0.46928 -1.23192,9.4e-4 -4.15338,0.38821 -5.24901,0.69593 -0.34347,0.0965 -0.6657,0.4304 -0.79784,0.82681 -0.52992,1.58977 1.35944,3.20569 3.74815,3.20569 1.05308,0 1.24164,-0.088 2.02546,-0.94551 1.00281,-1.09705 1.9011,-1.23836 2.89623,-0.4556 1.22193,0.96118 0.45834,2.50647 -1.79292,3.62832 -1.58322,0.78896 -3.28095,0.79957 -5.45,0.0341 z m 1.69285,-9.60526 c 1.38351,-0.29671 1.89068,-0.74719 1.44534,-1.2838 -0.59291,-0.7144 -2.6147,-0.35387 -3.531,0.62965 -0.47056,0.50509 -0.47591,0.55131 -0.0818,0.707 0.59994,0.23699 0.84369,0.23105 2.16746,-0.0529 z m -73.352017,9.48921 c -0.609983,-0.67403 -0.818762,-2.04214 -0.850416,-5.5727 -0.01515,-1.6901 -0.130068,-3.65794 -0.255367,-4.37299 -0.125298,-0.71504 -0.2838,-1.99148 -0.352227,-2.83653 -0.06843,-0.84505 -0.235814,-1.82617 -0.371975,-2.18028 -0.207326,-0.53918 -0.148292,-0.81321 0.363218,-1.68604 0.72598,-1.23879 1.132666,-1.43658 2.217601,-1.07852 0.615237,0.20305 1.271592,0.19698 2.698237,-0.025 2.507476,-0.39007 4.23936,-0.20308 6.152161,0.66422 2.524695,1.14476 3.569231,3.29512 2.702723,5.56404 -0.820812,2.14927 -2.580527,3.12529 -6.882934,3.81762 -1.283594,0.20655 -2.486129,0.50196 -2.672299,0.65647 -0.273721,0.22717 -0.321864,0.96073 -0.251597,3.83366 l 0.08689,3.55275 -1.07616,0.0701 c -0.837575,0.0546 -1.171868,-0.0356 -1.507859,-0.40688 z m 5.117374,-11.73999 c 1.198449,-0.20681 2.574276,-0.57768 3.057393,-0.82415 0.924155,-0.47147 1.685153,-1.33769 1.474556,-1.67845 -0.231295,-0.37424 -1.798885,-0.90343 -2.662093,-0.89868 -1.10019,0.006 -4.586919,0.57091 -4.964449,0.80424 -0.263001,0.16254 -0.205915,1.71107 0.09871,2.67761 0.119553,0.37932 0.37,0.37259 2.995883,-0.0806 z m 30.180792,11.42266 c -1.040323,-0.6941 -2.703461,-3.17741 -3.161925,-4.72122 -0.197779,-0.666 -0.359599,-1.77243 -0.359599,-2.45875 0,-0.71405 -0.126398,-1.34945 -0.295472,-1.48534 -2.154522,-1.73162 -2.643802,-2.45868 -2.500117,-3.71507 0.07063,-0.61759 0.168043,-0.68191 1.137063,-0.75083 1.166308,-0.083 1.413122,-0.308 1.41853,-1.29336 0.0052,-0.95115 0.896963,-2.05874 1.657536,-2.05874 0.941536,0 1.358596,0.46409 1.699415,1.89102 l 0.310519,1.30008 1.458589,0.11819 c 1.85194,0.15006 2.678018,0.81487 2.678018,2.1552 0,1.13276 -0.648355,1.62684 -2.134815,1.62684 -1.713005,0 -1.860887,0.22566 -1.936393,2.95472 -0.08172,2.95366 0.270621,3.60366 2.362926,4.35914 2.290331,0.82697 2.618028,1.2315 1.722814,2.12671 -0.713342,0.71334 -2.955336,0.68649 -4.057089,-0.0486 z m 23.030039,-0.20888 c -2.113699,-0.47437 -3.217041,-2.74704 -3.590423,-7.39556 l -0.150709,-1.87632 -1.071081,-0.27249 c -1.985718,-0.50519 -2.466673,-0.84724 -2.547025,-1.81144 -0.08868,-1.06417 0.518941,-1.49427 1.817679,-1.2866 0.470203,0.0752 1.094249,0.0741 1.386766,-0.002 0.481222,-0.12585 0.531849,-0.28221 0.531849,-1.64253 0,-1.34469 0.06269,-1.54451 0.593705,-1.89245 0.687206,-0.45027 1.846905,-0.3123 2.523784,0.30027 0.236592,0.21412 0.54649,0.82448 0.68866,1.35637 0.343005,1.28324 0.546285,1.49301 1.623091,1.67494 1.080921,0.18262 1.730108,0.81393 1.621987,1.57731 -0.06159,0.43486 -0.362152,0.64916 -1.422586,1.01432 -0.921913,0.31745 -1.385244,0.61464 -1.474133,0.94551 -0.263105,0.97935 -0.08319,3.13476 0.415152,4.97371 l 0.512457,1.89102 1.363908,0.0341 c 0.750146,0.0187 1.521328,0.16473 1.713737,0.32442 0.544542,0.45193 0.416733,1.32739 -0.272993,1.86993 -0.686568,0.54005 -2.431124,0.62921 -4.263825,0.2179 z m 28.973122,0.0296 c -1.6585,-0.15336 -3.16293,-0.85663 -4.19398,-1.96054 -1.59382,-1.70647 1.59053,-2.71858 3.44114,-1.09372 0.69275,0.60824 0.87635,0.67192 1.18923,0.41245 0.47597,-0.39471 1.00591,-1.66349 1.00591,-2.40832 0,-0.6029 -0.0509,-0.6293 -2.49322,-1.29277 -0.52622,-0.14296 -1.44489,-0.58324 -2.0415,-0.97842 -2.6178,-1.73395 -1.90635,-3.96572 1.81328,-5.68809 2.49526,-1.15543 3.80018,-1.33949 5.17741,-0.73027 1.13051,0.50007 1.56245,1.06447 1.56245,2.04158 0,0.4859 -0.18114,0.69423 -0.84467,0.97147 -0.89115,0.37234 -1.60755,0.27331 -2.27788,-0.3149 -0.91029,-0.79877 -3.35111,0.38101 -3.2136,1.5533 0.0568,0.4844 0.24793,0.65725 0.89947,0.8135 2.47562,0.59369 3.4186,0.98033 4.27257,1.75184 1.26356,1.14156 1.57861,2.25228 1.07169,3.77844 -0.52264,1.57354 -0.96255,2.14419 -1.99169,2.58358 -1.56476,0.66808 -1.79803,0.70683 -3.37661,0.56087 z m 23.47591,-0.92179 c -0.55725,-0.0934 -1.15512,-0.3218 -1.3286,-0.50744 -0.33437,-0.35784 -0.93146,-1.94565 -2.39359,-6.36516 -0.49462,-1.49509 -1.0937,-3.03746 -1.33127,-3.42748 -0.59704,-0.98015 -0.54777,-1.91665 0.13686,-2.60128 1.67611,-1.67611 3.60325,-0.28142 4.73751,3.4286 0.72018,2.35564 1.3651,4.01842 1.55857,4.01842 0.24495,0 1.45217,-2.57322 1.99613,-4.25479 0.78301,-2.42059 2.16171,-4.2548 3.19815,-4.2548 0.22808,0 0.66279,0.2009 0.96602,0.44644 l 0.55134,0.44644 -0.44899,1.74005 c -0.43208,1.6745 -0.70182,2.38925 -1.93295,5.12172 -0.31082,0.68984 -0.84356,2.12584 -1.18387,3.19109 -1.00096,3.13323 -0.98632,3.11348 -2.33798,3.15341 -0.64577,0.0191 -1.63007,-0.0418 -2.18733,-0.13522 z m 12.66858,-0.55634 c -0.96611,-0.38266 -1.1893,-1.74439 -1.07985,-6.58835 0.11445,-5.06518 0.41481,-5.87373 2.182,-5.87373 0.29998,0 0.77152,0.18615 1.04786,0.41366 0.48379,0.3983 0.50425,0.62107 0.55108,5.99968 0.0382,4.38396 -0.0197,5.66834 -0.26882,5.96854 -0.35588,0.42881 -1.46021,0.46523 -2.43227,0.0802 z m 28.63025,-0.51085 c -1.73844,-0.4797 -4.05698,-1.82569 -4.63494,-2.69073 -1.03088,-1.54291 -0.98117,-3.70025 0.1548,-6.71752 0.94202,-2.50214 2.35694,-3.45712 5.41572,-3.65529 1.73541,-0.11243 2.22719,-0.0593 3.12349,0.33713 1.30987,0.57941 2.78053,1.8419 3.08816,2.65104 0.32806,0.86285 4e-5,3.28524 -0.51453,3.79981 -0.67382,0.67382 -3.00623,1.24923 -5.38703,1.32899 -1.2092,0.0405 -2.2895,0.12988 -2.40068,0.19859 -0.4459,0.27558 0.0967,1.07951 1.03525,1.53386 1.29598,0.62737 1.94682,0.60737 3.4814,-0.10702 0.69545,-0.32375 1.43206,-0.58967 1.63691,-0.59094 0.52104,-0.003 1.40038,0.99278 1.40038,1.58619 0,0.62508 -1.77435,1.834 -3.40059,2.31694 -1.36812,0.40629 -1.55633,0.40685 -2.99834,0.009 z m 3.03055,-8.0818 c 0.70226,-0.1882 0.67642,-0.82481 -0.0695,-1.71126 -0.7838,-0.9315 -1.26379,-1.06175 -2.30679,-0.62595 -0.86728,0.36237 -1.23176,0.79983 -1.38212,1.65888 -0.0699,0.39936 0.0824,0.49476 0.98095,0.61453 1.56543,0.20866 2.1839,0.22286 2.77744,0.0638 z m 10.57789,7.96704 c -1.67048,-0.45753 -3.19109,-1.53598 -3.19109,-2.26318 0,-0.48275 1.17078,-1.49645 1.91786,-1.66054 0.71422,-0.15687 1.86418,0.36048 1.86418,0.83867 0,0.41956 0.90876,0.24006 1.52352,-0.30092 0.89064,-0.78376 1.01846,-1.83477 0.32164,-2.64486 -0.49542,-0.57596 -0.82935,-0.68788 -2.80849,-0.94126 -1.30101,-0.16655 -2.56139,-0.47374 -2.9952,-0.73 -1.63114,-0.96354 -1.51447,-2.78276 0.27238,-4.24695 1.41069,-1.15595 2.75712,-1.67197 5.26044,-2.01605 2.06295,-0.28356 2.19755,-0.27461 2.84931,0.18949 0.37624,0.2679 0.88327,0.85698 1.12672,1.30905 0.42549,0.79009 0.42637,0.8468 0.0225,1.4632 -0.37813,0.5771 -0.52567,0.62936 -1.47475,0.52239 -0.63915,-0.072 -1.27637,-0.32723 -1.61759,-0.64779 -0.45394,-0.42645 -0.72451,-0.49862 -1.39659,-0.37253 -0.76812,0.1441 -2.41203,1.25198 -2.18886,1.47515 0.0533,0.0533 0.76879,0.20508 1.59003,0.33733 2.10758,0.33942 3.60944,1.05302 4.69514,2.23087 1.17006,1.26936 1.41057,2.33485 0.85526,3.7889 -0.95316,2.49582 -4.24835,4.32037 -6.62639,3.66903 z m -34.06001,-0.46499 -0.73078,-0.44562 -0.12933,-3.27644 c -0.0711,-1.80204 -0.0565,-5.65656 0.0325,-8.5656 l 0.16179,-5.28917 0.65241,-0.56118 c 0.80158,-0.68949 1.55066,-0.71339 2.36177,-0.0754 l 0.61759,0.4858 -0.0113,8.67354 c -0.01,7.57392 -0.0588,8.72602 -0.38597,9.0875 -0.48945,0.54083 -1.65163,0.5257 -2.56859,-0.0335 z m 8.3599,-0.15745 c -0.35425,-0.19224 -0.74853,-0.54468 -0.87618,-0.78319 -0.3025,-0.56524 -0.34292,-14.50645 -0.0455,-15.70752 0.2457,-0.99236 0.80228,-1.72801 1.46699,-1.93898 0.61485,-0.19515 1.84539,0.51146 1.97352,1.13324 0.17255,0.83737 0.32456,16.64969 0.16244,16.89778 -0.22357,0.34215 -1.12787,0.76826 -1.60793,0.75768 -0.23606,-0.005 -0.71905,-0.16676 -1.0733,-0.35901 z M 77.155527,111.44255 c -0.260015,-0.10755 -0.725097,-0.46721 -1.033513,-0.79925 -0.692596,-0.74564 -0.566072,-1.4542 0.470472,-2.63476 0.931095,-1.06045 2.098696,-1.1291 3.658348,-0.21508 1.383771,0.81094 1.636262,1.29798 1.155187,2.22828 -0.703365,1.36016 -2.746215,2.04302 -4.250494,1.42081 z m 76.940883,-1.60678 c -2.05622,-1.0272 -0.58584,-4.07715 1.9656,-4.07715 0.8931,0 1.16158,0.11445 1.66106,0.70804 0.48527,0.57672 0.55959,0.83419 0.40068,1.38827 -0.61643,2.14935 -2.16517,2.9111 -4.02734,1.98084 z m 22.70506,-6.07092 c -0.1548,-0.18651 -0.2476,-0.69177 -0.20623,-1.12279 0.0665,-0.69221 0.18208,-0.81005 0.99084,-1.00977 0.81785,-0.20196 0.96298,-0.16762 1.35917,0.32166 0.54105,0.66816 0.56605,1.28464 0.0721,1.77858 -0.46457,0.46457 -1.8405,0.48464 -2.21589,0.0323 z m -147.918754,-0.59935 -0.760931,-0.46396 8.74e-4,-2.785348 c 7.8e-4,-2.4987 -0.09322,-3.26396 -0.604269,-4.91927 -0.157008,-0.50856 0.04912,-0.80719 2.08006,-3.01345 1.542868,-1.67607 2.763538,-3.72626 2.763538,-4.64154 0,-0.4096 0.132963,-0.77955 0.295472,-0.82211 0.16251,-0.0426 0.690855,-0.2044 1.174101,-0.35963 0.635761,-0.20423 1.009775,-0.21206 1.353084,-0.0283 0.427854,0.22898 5.73373,0.0716 11.123617,-0.32993 0.715042,-0.0533 2.915085,-0.16627 4.888984,-0.25111 4.176469,-0.17953 4.566116,-0.0749 4.566116,1.22631 0,0.71417 -0.355781,1.3276 -2.127397,3.66798 -1.170069,1.54572 -2.127398,3.00269 -2.127398,3.23771 0,0.23503 -0.280932,0.84105 -0.624297,1.34672 -0.527195,0.77641 -0.615607,1.13999 -0.568438,2.33767 0.115064,2.921538 -0.148277,2.61088 2.138245,2.5224 1.105065,-0.0428 2.407011,-0.17953 2.893214,-0.30393 0.4862,-0.1244 1.402964,-0.15734 2.03725,-0.0732 1.356469,0.17994 6.639185,-0.5135 7.038689,-0.92394 0.183278,-0.1883 0.211106,-0.73699 0.0877,-1.72912 -0.137226,-1.10325 -0.399849,-1.78336 -1.090315,-2.8236 -1.233278,-1.858 -5.337309,-6.00552 -5.942561,-6.00552 -0.261204,0 -0.603098,-0.15445 -0.759765,-0.34322 -0.650494,-0.7838 0.634338,-2.21936 1.692749,-1.89134 0.931564,0.28871 3.303513,2.39135 5.152784,4.56774 l 1.772832,2.08643 2.481964,-0.10255 c 1.36508,-0.0564 3.248661,-0.25303 4.185735,-0.43697 0.937074,-0.18393 1.767016,-0.33443 1.844316,-0.33443 0.0773,0 0.117745,-0.63181 0.08988,-1.40404 -0.03344,-0.9266 0.06982,-1.5855 0.303656,-1.93768 0.340163,-0.51231 0.256592,-0.64969 -2.091298,-3.43787 -1.345093,-1.59732 -2.989108,-3.70524 -3.653364,-4.68426 -0.664259,-0.97902 -1.306175,-1.84087 -1.426481,-1.91523 -0.12031,-0.0744 -0.453396,0.0275 -0.740198,0.22639 -0.748298,0.51888 -4.159062,3.86583 -5.193313,5.09616 -0.674891,0.80284 -1.039697,1.044 -1.579276,1.044 -0.38591,0 -0.756082,0.14183 -0.822598,0.31517 -0.179309,0.46727 -1.937979,0.41483 -2.121439,-0.0633 -0.08548,-0.22274 0.31112,-1.21952 0.964009,-2.42287 1.655082,-3.05051 1.775481,-3.31733 1.614454,-3.57788 -0.184937,-0.29923 -1.787861,-0.31255 -2.554126,-0.0212 -0.315606,0.11999 -2.795632,0.29026 -5.511165,0.37837 l -4.937333,0.16021 -2.09933,2.23444 c -1.879211,2.00015 -2.176628,2.22692 -2.83653,2.16268 -0.699795,-0.0681 -0.734299,-0.11899 -0.680009,-1.00276 0.0681,-1.10864 0.832586,-2.3335 2.643299,-4.23513 1.602417,-1.68287 2.72491,-2.31501 3.556515,-2.00287 1.000219,0.37542 9.778583,0.23006 10.430295,-0.17272 0.107941,-0.0667 1.024547,-0.18053 2.036902,-0.25293 1.012353,-0.0724 1.967749,-0.23627 2.123103,-0.36415 0.560066,-0.46102 1.361613,-0.12178 1.491171,0.6311 0.06712,0.39003 0.227355,0.70239 0.356086,0.69415 0.297831,-0.0191 1.924617,-0.71593 2.7818,-1.19164 1.309536,-0.72674 2.46928,0.008 4.078885,2.58313 2.087816,3.34056 5.030551,7.00323 6.303468,7.84561 1.303874,0.86287 1.715798,1.59036 1.40512,2.48157 -0.13809,0.39612 -0.428475,0.89763 -0.645299,1.11445 -0.318313,0.31831 -0.367572,0.67969 -0.255796,1.87667 0.149669,1.60277 -0.08216,2.09212 -1.099926,2.32174 -1.253212,0.28274 -4.692162,0.59359 -6.566896,0.59359 -1.422877,0 -2.125703,0.0966 -2.308832,0.31722 -0.144797,0.17447 -0.225464,0.36062 -0.179259,0.41366 0.04621,0.053 0.154551,1.06811 0.240765,2.25571 l 0.156754,2.15927 -0.892853,0.464248 c -0.977347,0.50819 -3.7715,0.91966 -8.504123,1.25233 -1.664145,0.11697 -4.355343,0.36237 -5.980438,0.54533 -1.625096,0.18297 -3.159224,0.25725 -3.409174,0.16508 -0.415204,-0.1531 -0.456294,-0.43558 -0.475726,-3.270418 -0.01388,-2.02532 -0.117201,-3.19878 -0.297514,-3.37909 -0.21074,-0.21074 -1.21894,-0.15559 -4.251824,0.23258 -2.18657,0.27986 -5.39292,0.53315 -7.125223,0.56287 l -3.149641,0.054 -0.573305,-0.66322 c -0.326834,-0.37809 -0.573305,-0.96242 -0.573305,-1.35917 v -0.69595 h 2.714866 c 2.545462,0 7.84824,-0.41236 12.395886,-0.96395 2.148929,-0.26065 2.096917,-0.22687 3.428682,-2.22714 0.432788,-0.65004 1.012369,-1.38452 1.28796,-1.63219 0.52246,-0.46952 0.646965,-0.96809 0.295932,-1.18504 -0.290562,-0.17958 -8.205566,0.51319 -9.486337,0.8303 -0.585035,0.14485 -2.525262,0.26772 -4.311617,0.27304 l -3.247917,0.01 -0.897267,1.20667 c -0.493498,0.66367 -1.264533,1.73852 -1.713413,2.38856 -0.44888,0.65004 -1.070803,1.4013 -1.382051,1.66949 -0.562003,0.48425 -0.564059,0.50327 -0.298069,2.75863 0.33428,2.83441 0.344886,5.741398 0.02314,6.342588 -0.310831,0.58079 -0.853981,0.57825 -1.816314,-0.009 z m 71.991604,0.0106 c -0.49426,-0.40009 -0.56275,-0.68118 -0.63708,-2.61458 l -0.0833,-2.166288 -4.053323,0.12747 c -2.229328,0.0701 -4.904285,0.28879 -5.944346,0.48596 -1.101226,0.20877 -3.244634,0.36044 -5.132002,0.36315 -4.59147,0.007 -4.437352,0.26523 -4.434076,-7.44124 0.0012,-2.60015 0.152539,-6.06694 0.336522,-7.70397 0.211167,-1.87893 0.298069,-4.40655 0.235682,-6.85495 -0.110948,-4.35416 -0.102432,-4.33353 -1.900764,-4.60321 -0.737431,-0.11058 -1.132706,-0.32341 -1.422716,-0.76602 -0.397738,-0.60702 -0.392478,-0.62093 0.548987,-1.45211 0.522815,-0.46158 2.320878,-1.63397 3.995695,-2.60532 1.674817,-0.97135 3.55993,-2.16801 4.189141,-2.65925 1.712038,-1.33662 2.146878,-1.24601 4.321395,0.90046 2.037279,2.01101 2.946547,2.66547 5.379621,3.87212 1.415013,0.70176 1.682973,0.92874 1.682973,1.42559 0,0.45807 -0.218787,0.69725 -0.972989,1.0637 -0.535145,0.26002 -1.139935,0.61307 -1.343977,0.78456 -0.458466,0.38533 -0.763253,1.66646 -0.466952,1.96276 0.38913,0.38913 2.921492,0.68036 3.944813,0.45367 0.531577,-0.11776 1.621296,-0.34012 2.421606,-0.49414 l 1.45511,-0.28004 0.49501,-1.29353 c 0.27226,-0.71144 0.49501,-1.50379 0.49501,-1.76079 0,-0.25699 0.0941,-0.64641 0.20912,-0.86538 0.3249,-0.61854 0.99376,-5.67485 1.1855,-8.96185 0.15749,-2.69983 0.22206,-3.00732 0.71551,-3.40689 0.64725,-0.52411 0.93022,-0.53818 1.54048,-0.0766 0.41762,0.31586 0.46454,0.69776 0.51458,4.18819 0.0303,2.11235 0.1026,4.74478 0.16071,5.84985 0.10578,2.01155 0.72891,6.31549 0.94576,6.53235 0.1389,0.13889 4.81568,0.42713 6.31084,0.38895 0.58503,-0.0149 2.97836,-0.29557 5.31849,-0.62363 2.34014,-0.32805 5.55081,-0.67063 7.13483,-0.76129 l 2.88003,-0.16485 -0.0957,-1.66255 c -0.0745,-1.2932 0.008,-1.89654 0.37016,-2.71581 0.25625,-0.5793 0.46591,-1.2881 0.46591,-1.57512 0,-0.87991 0.95875,-3.52347 1.48304,-4.08917 0.55242,-0.59605 2.0959,-1.09826 2.74359,-0.8927 0.23173,0.0735 1.14253,0.8924 2.02399,1.81966 l 1.60264,1.68593 -0.10959,1.32154 c -0.10086,1.21623 -0.0559,1.37171 0.56454,1.95127 0.88921,0.83065 0.92977,2.09693 0.0939,2.93277 -0.70389,0.70389 -1.4107,0.73371 -2.44496,0.10313 -0.8578,-0.52299 -0.8378,-0.28819 -0.38696,-4.54473 0.0968,-0.91345 0.0193,-1.25619 -0.41755,-1.84702 -0.68791,-0.93045 -1.91432,-1.68942 -2.41775,-1.49624 -0.50953,0.19553 -1.23785,1.63765 -1.4248,2.82118 -0.0812,0.51398 -0.31723,1.53819 -0.52456,2.27601 -0.45216,1.60916 -0.32125,2.08598 0.57269,2.08598 0.36518,0 0.90493,0.16879 1.19946,0.37508 0.43261,0.30301 0.60378,0.31842 0.89083,0.0802 0.28986,-0.24055 0.4731,-0.20612 0.99445,0.18686 0.58586,0.44159 0.63913,0.61715 0.63913,2.1063 0,0.95003 -0.13952,1.88714 -0.33602,2.25696 -0.29706,0.55908 -0.28989,0.6961 0.0619,1.18188 1.36587,1.88628 1.67941,2.48884 2.08819,4.01298 0.37866,1.41184 0.40224,1.74924 0.14053,2.01095 -0.38086,0.38086 -5.36344,0.56289 -15.42809,0.56363 -3.77022,2.3e-4 -8.76961,0.10983 -11.10975,0.24346 -2.34013,0.13362 -5.85034,0.29432 -7.80045,0.3571 -1.95012,0.0628 -4.662555,0.19033 -6.027635,0.28343 l -2.481964,0.16927 v 3.66385 c 0,4.97446 -0.185854,4.73218 3.613073,4.71003 4.300096,-0.0251 5.008586,-0.16534 5.338926,-1.05702 0.26112,-0.70484 3.17656,-3.62081 4.46274,-4.46355 0.35735,-0.23414 0.64973,-0.62248 0.64973,-0.86297 0,-0.24049 0.23097,-0.56086 0.51326,-0.71194 0.86848,-0.4648 6.00918,-0.85685 10.41368,-0.79421 l 4.19018,0.0596 2.0557,0.88294 c 1.61443,0.69342 2.13569,0.82586 2.42839,0.617 2.0213,-1.44236 5.27339,-2.44594 8.35419,-2.57808 2.43254,-0.10433 2.60325,-0.0796 3.86891,0.56078 0.72825,0.36846 1.76366,1.15536 2.30092,1.74868 0.53726,0.59331 1.27129,1.22683 1.63119,1.40782 0.83656,0.42068 3.00949,3.22249 3.00948,3.88047 0,0.48659 0.0791,0.49834 2.81116,0.41744 4.35956,-0.12909 5.58329,0.35969 6.89628,2.75453 0.61307,1.1182 0.46932,1.75765 -0.42525,1.89168 -0.45827,0.0687 -0.64867,-0.11202 -1.94343,-1.84425 -0.42101,-0.56327 -0.57337,-0.59446 -3.29604,-0.67484 -1.57004,-0.0464 -3.57299,0.0408 -4.45101,0.19372 -1.59,0.27688 -1.59858,0.27545 -2.14449,-0.35921 -0.35221,-0.40947 -0.48718,-0.77452 -0.37766,-1.02142 0.32992,-0.74377 0.38092,-2.16579 0.0902,-2.51606 -0.48348,-0.58255 -0.90676,-0.40305 -0.98594,0.41811 -0.0604,0.62677 -0.18661,0.78131 -0.68525,0.83927 -1.04364,0.12132 -2.08709,-1.81965 -1.57841,-2.93608 0.63616,-1.39621 -1.12638,-2.69266 -3.65133,-2.68578 -2.76213,0.008 -7.51441,1.64019 -7.51441,2.58161 0,0.23292 0.22087,0.70428 0.49082,1.04746 0.45998,0.58477 0.48033,0.8082 0.32381,3.55551 l -0.16701,2.93154 -0.85566,0.35064 c -1.06453,0.43625 -3.48904,0.79754 -7.47423,1.11378 -1.6901,0.13412 -4.03023,0.34902 -5.2003,0.47756 -1.17007,0.12854 -3.29747,0.34468 -4.72755,0.480318 -1.43009,0.13564 -2.97245,0.34683 -3.42748,0.46932 -1.32422,0.35647 -2.01533,0.26523 -2.68382,-0.35431 -0.54077,-0.501168 -0.62546,-0.769308 -0.62546,-1.980268 0,-1.89513 -0.20212,-2.0342 -2.66097,-1.83091 -2.81553,0.23278 -2.77516,0.21163 -2.41615,1.26528 0.1649,0.48398 0.30412,1.91702 0.30937,3.184528 0.008,2.00273 -0.0475,2.33509 -0.42593,2.53763 -0.32576,0.17434 -0.57503,0.12011 -0.98929,-0.21523 z m 14.22141,-5.185038 c 2.79428,-0.26568 6.58424,-0.60435 8.42213,-0.7526 1.83789,-0.14825 3.96385,-0.39266 4.72435,-0.54313 1.3655,-0.27017 1.38481,-0.28536 1.54959,-1.21909 0.0918,-0.52003 0.17299,-1.4407 0.18048,-2.04594 0.0202,-1.62878 -1.11555,-2.90946 -3.47062,-3.91361 -2.06786,-0.8817 -2.04333,-0.8877 -4.19802,1.02591 -0.78005,0.69276 -1.89195,1.67508 -2.4709,2.18291 -1.03737,0.90994 -1.04874,0.93604 -0.78382,1.79923 0.30327,0.98814 0.20729,1.42616 -0.36832,1.68082 -0.21746,0.0962 -2.36322,0.22255 -4.76837,0.28076 -4.51079,0.10917 -4.71667,0.15838 -4.72393,1.12914 -0.004,0.49754 0.43416,1.10139 0.68587,0.94583 0.0776,-0.048 2.42728,-0.30455 5.22156,-0.57023 z m -23.993929,-0.9754 c 1.560091,-0.14055 3.125468,-0.31276 3.478614,-0.38267 l 0.642084,-0.12712 -0.912516,-0.86938 c -0.860552,-0.81987 -0.922329,-0.97447 -1.084767,-2.71465 -0.09474,-1.0149 -0.100191,-2.48218 -0.01213,-3.26063 0.23205,-2.05103 -0.0335,-3.50077 -0.696585,-3.80289 -0.586467,-0.26721 -1.1507,-1.27225 -0.921993,-1.64231 0.31277,-0.50607 1.541559,-0.71794 4.825779,-0.83207 4.708133,-0.16361 4.401703,-0.15972 8.627783,-0.10945 2.08012,0.0247 4.633,-0.0735 5.67306,-0.21827 1.04006,-0.1448 4.60345,-0.30779 7.91865,-0.3622 17.77272,-0.29173 17.2562,-0.25789 17.25468,-1.13058 -9.5e-4,-0.5389 -0.24675,-0.96729 -2.05371,-3.57914 -1.06331,-1.53694 -1.22011,-1.66622 -2.20432,-1.81739 -1.19968,-0.18428 -5.32464,-0.0413 -8.15091,0.28252 -3.73734,0.42821 -5.69197,0.71208 -6.50134,0.9442 -0.45279,0.12986 -2.55729,0.23611 -4.67668,0.23611 -3.75851,0 -3.8675,-0.0141 -4.42403,-0.57059 -0.31382,-0.31382 -0.63637,-0.87226 -0.71678,-1.24098 -0.40129,-1.84022 -1.12059,-2.21558 -1.24966,-0.65213 -0.089,1.07797 -0.66569,1.83195 -1.2786,1.67167 -0.23553,-0.0616 -0.71838,0.0298 -1.073,0.20315 -0.94229,0.46056 -5.396625,1.03643 -6.925238,0.89532 -1.526193,-0.14089 -2.210211,0.27937 -1.975672,1.21384 0.09272,0.36943 -0.04298,0.74829 -0.428619,1.19662 -0.503659,0.58553 -0.623502,0.62435 -1.115241,0.36118 -0.36724,-0.19655 -1.002564,-0.24377 -1.905396,-0.14162 -1.522966,0.1723 -2.59543,-0.16709 -2.59543,-0.82134 0,-0.42193 1.076856,-0.96173 2.555234,-1.28088 0.9233,-0.19932 1.139793,-0.64543 1.340516,-2.76231 0.341797,-3.60474 0.276918,-3.42807 1.433556,-3.9037 0.578113,-0.23773 1.051513,-0.4967 1.052,-0.57549 0.0014,-0.24521 -2.569291,-2.07918 -3.761154,-2.68315 -0.623972,-0.31619 -1.472792,-0.85954 -1.886268,-1.20746 -0.690121,-0.5807 -0.785511,-0.60205 -1.16312,-0.26032 -0.226239,0.20474 -1.181875,0.79581 -2.123639,1.31348 -2.431845,1.33673 -3.81068,2.23632 -3.820688,2.49271 -0.0048,0.12163 0.213329,0.45741 0.484612,0.74618 0.474036,0.50459 0.492407,0.75369 0.471783,6.39743 -0.01179,3.22981 -0.139781,6.768 -0.2844,7.86264 -0.159188,1.20492 -0.192567,2.79053 -0.08459,4.01842 0.09809,1.11549 0.16159,3.0152 0.141108,4.22157 -0.05016,2.95381 0.03744,3.08321 2.161289,3.19268 0.941012,0.0485 2.030041,0.0581 2.420064,0.0214 0.390023,-0.0367 1.985571,-0.18182 3.545663,-0.32237 z m 24.864999,-2.96385 c 0.15496,-0.0477 0.26625,-0.29228 0.24732,-0.54361 -0.0414,-0.5498 0.92048,-1.70062 2.60295,-3.11419 0.68254,-0.57345 1.24098,-1.11996 1.24098,-1.21447 0,-0.5581 -4.6864,-0.72649 -6.50038,-0.23355 -1.16673,0.31704 -4.9361,3.27316 -5.03343,3.94745 -0.094,0.65086 0.60121,1.22732 1.60595,1.33175 0.9192,0.0955 5.39447,-0.0374 5.83661,-0.17338 z m 67.38133,9.449308 c -0.3036,-0.31685 -0.19435,-1.45245 0.16872,-1.75377 0.446,-0.37014 2.91512,-0.67151 7.60602,-0.92834 l 3.74866,-0.20525 0.54483,0.59151 c 0.34688,0.3766 0.51864,0.81741 0.47275,1.21328 l -0.0721,0.62177 -2.95471,0.1465 c -1.6251,0.0806 -4.39072,0.22588 -6.14582,0.32291 -1.7551,0.097 -3.27087,0.0931 -3.36838,-0.009 z m -19.63999,-4.421878 c -0.22357,-0.16348 -0.43005,-0.60117 -0.45884,-0.97265 -0.0469,-0.60485 0.0528,-0.70708 0.95388,-0.97839 1.19719,-0.36047 3.10297,-0.52869 9.28661,-0.81975 2.54087,-0.1196 5.09375,-0.32028 5.67306,-0.44596 0.5793,-0.12568 3.1674,-0.3551 5.75132,-0.50983 3.92469,-0.23501 4.7315,-0.22854 4.90122,0.0393 0.30498,0.48131 0.25116,1.76705 -0.0851,2.03232 -0.16251,0.12821 -1.57191,0.30889 -3.132,0.4015 -1.56009,0.0926 -4.11297,0.26357 -5.67306,0.37991 -1.56009,0.11633 -4.91074,0.32056 -7.44589,0.45385 -2.53515,0.13329 -5.18734,0.34912 -5.89376,0.47962 -1.75067,0.32343 -3.38779,0.29812 -3.87747,-0.0599 z m 33.00078,-0.67494 c -0.90941,-0.26278 -1.24845,-0.80177 -1.07502,-1.70901 0.15281,-0.79938 0.14478,-0.79649 2.61481,-0.94198 1.81512,-0.10691 1.9825,-0.0779 2.28007,0.39472 1.03708,1.64723 0.43605,2.53146 -1.69792,2.49799 -0.74755,-0.0117 -1.70242,-0.1205 -2.12194,-0.24172 z m -36.76216,-4.24067 c -0.22752,-0.13603 -0.41366,-0.33619 -0.41366,-0.44478 0,-0.46862 1.38841,-1.036 3.16552,-1.2936 l 1.91659,-0.27782 -0.0484,-1.0314 c -0.0518,-1.10396 -0.30817,-1.52035 -0.96122,-1.56107 -0.22476,-0.014 -0.63246,-0.0437 -0.906,-0.0659 -0.27353,-0.0222 -0.76737,-0.29069 -1.09741,-0.59657 -0.53989,-0.50035 -0.58105,-0.66025 -0.41031,-1.59398 0.13048,-0.71351 0.40888,-1.223 0.89089,-1.63035 0.38561,-0.32588 2.07048,-1.86412 3.74417,-3.41831 1.67368,-1.55419 3.3861,-3.14143 3.80537,-3.52721 0.67624,-0.62221 0.83045,-0.67036 1.3658,-0.42644 0.33193,0.15124 0.66937,0.46204 0.74989,0.69068 0.0805,0.22864 0.3324,0.84118 0.55976,1.36122 0.22736,0.52003 0.63169,1.63691 0.89852,2.48196 1.01321,3.2089 1.3378,3.89068 2.0056,4.21261 0.99899,0.48159 1.10372,0.26177 0.48391,-1.01563 -0.31384,-0.64681 -1.1425,-2.42213 -1.84146,-3.94515 -1.166,-2.54068 -1.23877,-2.79753 -0.882,-3.11321 0.28141,-0.249 0.7378,-0.30933 1.65188,-0.21836 0.69467,0.0691 2.3434,-10e-4 3.66385,-0.15682 3.3288,-0.39173 10.6025,-0.71725 11.01097,-0.49277 0.40572,0.22298 1.39292,1.56183 2.39779,3.25192 0.4058,0.68251 1.03629,1.45347 1.40108,1.71323 0.88631,0.6311 2.40083,2.94031 2.22646,3.39471 -0.19969,0.52037 -1.07966,1.03799 -2.08541,1.22666 -0.7896,0.14813 -0.86256,0.22428 -0.75264,0.78543 0.0669,0.34176 0.19101,1.12664 0.2757,1.74418 l 0.15398,1.12279 h 0.94204 c 1.0792,0 2.44719,0.57315 2.65393,1.11192 0.30597,0.79732 -0.30732,1.01548 -2.85474,1.01548 h -2.4565 l -0.43762,-0.71962 c -0.26682,-0.43875 -0.49944,-1.43054 -0.596,-2.54106 -0.0871,-1.00179 -0.27546,-2.18628 -0.41859,-2.63219 -0.2324,-0.72411 -0.20384,-0.85641 0.26728,-1.2379 0.29013,-0.23493 0.94291,-0.539 1.45064,-0.67572 0.50772,-0.13671 0.92313,-0.31404 0.92313,-0.39407 0,-0.08 -0.40322,-0.49063 -0.89604,-0.91247 -0.49283,-0.42184 -1.15121,-1.26309 -1.46307,-1.86945 -0.31186,-0.60636 -0.90976,-1.4034 -1.32867,-1.77121 -0.85156,-0.74768 -0.94696,-0.75066 -6.71283,-0.21019 -6.39081,0.59906 -5.79662,0.47502 -5.74733,1.19982 0.0346,0.50848 1.54448,4.26224 1.86637,4.63997 0.30591,0.35899 3.46924,0.64155 5.58267,0.49865 5.18244,-0.35039 5.73011,0.0176 5.7016,3.83095 -0.0152,2.03883 -0.0833,2.4519 -0.44805,2.7186 -0.25788,0.18857 -0.62433,0.24523 -0.91523,0.14152 -0.26684,-0.0951 -0.80427,-0.16153 -1.19429,-0.14756 -0.39002,0.014 -2.99609,0.12991 -5.79125,0.25763 -6.12173,0.27973 -6.14582,0.27294 -6.14582,-1.73112 0,-1.92264 -0.4244,-3.40851 -0.97357,-3.40851 -0.3476,0 -0.44469,-0.17438 -0.44469,-0.79868 0,-0.49347 -0.31609,-1.3236 -0.82712,-2.17225 -0.45492,-0.75547 -1.04792,-1.96372 -1.3178,-2.68502 -0.68538,-1.83185 -0.8302,-1.97084 -1.62525,-1.5597 -0.61448,0.31776 -5.68493,5.566 -5.68493,5.88427 0,0.0822 0.27292,0.14949 0.60648,0.14949 1.37574,0 2.32002,1.22732 2.5503,3.31473 0.20849,1.88985 -0.14642,2.95939 -1.09371,3.29597 -1.04702,0.37203 -5.61749,0.5445 -6.14058,0.23172 z m 22.86952,-2.61931 c 1.95012,-0.15004 3.63877,-0.3559 3.75257,-0.45746 0.11379,-0.10157 0.13283,-0.57949 0.0423,-1.06206 l -0.1646,-0.87739 -2.99702,0.15904 c -2.51375,0.1334 -3.27369,0.0881 -4.71274,-0.28077 -0.94364,-0.24191 -1.75415,-0.40139 -1.80112,-0.35442 -0.047,0.047 0.0556,0.48042 0.22798,0.96323 0.17236,0.4828 0.31806,1.10829 0.32376,1.38998 0.0177,0.87398 0.33,0.90445 5.32887,0.51985 z m -30.77338,-2.04504 c -0.46167,-0.29356 -0.70939,-1.23778 -0.8815,-3.35995 -0.19853,-2.44809 -0.30363,-2.83653 -0.76746,-2.83653 -0.19873,0 -1.13535,-0.36731 -2.08137,-0.81623 -2.18599,-1.03734 -4.4632,-3.28118 -5.5927,-5.51071 -0.70332,-1.38831 -0.79498,-1.78228 -0.78059,-3.35519 0.0174,-1.89871 0.25196,-2.53686 1.85518,-5.0468 0.4309,-0.6746 1.18183,-2.02433 1.66873,-2.99939 0.48689,-0.97506 1.01826,-1.93238 1.18081,-2.1274 0.16256,-0.19501 0.84592,-1.631 1.51859,-3.19109 1.55617,-3.60914 1.48441,-3.48683 2.27207,-3.87292 1.28122,-0.62801 1.69913,-0.22589 3.53429,3.40078 2.11533,4.18034 2.67144,4.96936 5.27113,7.47871 1.35961,1.31236 2.33958,2.49095 2.74105,3.2966 0.57747,1.15882 0.62487,1.48291 0.62487,4.27159 0,3.36261 -0.34284,4.70334 -1.77354,6.93559 -0.95302,1.48696 -1.29908,1.76965 -3.16758,2.58758 -1.28261,0.56147 -1.72694,0.64326 -2.9111,0.53588 -1.70369,-0.15448 -1.73896,-0.0957 -1.42537,2.37706 0.24198,1.90808 0.11015,2.42138 -0.62011,2.41451 -0.21159,-0.002 -0.51103,-0.0839 -0.6654,-0.18209 z m 4.88046,-7.25523 c 0.89768,-0.4642 2.27395,-2.7029 2.8524,-4.6398 0.5342,-1.78872 0.62352,-5.36094 0.16034,-6.41216 -0.15665,-0.35552 -1.24214,-1.63417 -2.41221,-2.84145 -1.95602,-2.01823 -2.66685,-2.99477 -5.24388,-7.20411 -0.49607,-0.81027 -0.96072,-1.47509 -1.03256,-1.47736 -0.0718,-0.002 -0.61823,0.97979 -1.2142,2.18237 -1.56099,3.14978 -4.09047,7.85477 -4.63468,8.62076 -1.29044,1.81637 -1.62877,4.50362 -0.77718,6.17288 1.07531,2.10778 4.43636,4.24323 6.22771,3.95678 0.93359,-0.14928 0.95487,-0.13553 2.39313,1.54581 0.47806,0.55886 2.67547,0.61633 3.68113,0.0963 z M 61.69645,69.800542 c -0.436129,-0.40632 -0.509484,-0.6548 -0.386629,-1.30966 0.430491,-2.29472 1.480645,-3.58098 3.700545,-4.53254 0.760722,-0.32608 1.135666,-0.64401 1.237358,-1.04918 0.312396,-1.24469 3.106232,-3.21774 4.164454,-2.94101 0.625025,0.16345 0.814465,-0.14165 1.289012,-2.07598 0.890434,-3.62955 2.717913,-6.29687 4.836073,-7.05855 1.202308,-0.43234 1.238068,-0.4314 3.162748,0.0832 2.077375,0.55541 2.585953,0.90333 3.868037,2.6461 0.7397,1.00549 0.873691,1.08881 1.455875,0.90529 1.695609,-0.5345 2.965112,-0.47625 4.305046,0.19754 1.168339,0.5875 1.389898,0.82767 2.186492,2.37017 1.18164,2.28808 1.22827,3.7613 0.160075,5.05721 -0.808347,0.98066 -1.157311,1.07736 -1.687239,0.46752 -0.556988,-0.64099 -0.694645,-1.57718 -0.307189,-2.08918 0.848146,-1.12078 0.189133,-3.33226 -1.1877,-3.98561 -0.797928,-0.37864 -1.031559,-0.39103 -2.179668,-0.11561 -0.70727,0.16967 -1.53162,0.50174 -1.83189,0.73794 -0.300268,0.23619 -0.709279,0.42943 -0.908916,0.42943 -0.50308,0 -1.083581,-0.89633 -1.249877,-1.92989 -0.213775,-1.32864 -1.343946,-2.27993 -3.095702,-2.6057 -1.848883,-0.34384 -2.620961,-0.0433 -3.713904,1.44557 -0.990174,1.34888 -2.021775,4.31522 -2.021775,5.81355 0,0.74987 -0.162635,1.33212 -0.507276,1.81613 -0.478149,0.6715 -0.572965,0.70368 -1.651453,0.56062 -1.874269,-0.24863 -3.041576,0.6901 -3.041576,2.44599 0,0.96196 -0.482839,1.26261 -1.727885,1.0759 -0.97239,-0.14582 -1.106707,-0.0987 -1.855726,0.65026 -0.444104,0.44411 -0.94734,1.27852 -1.118302,1.85424 -0.5194,1.74912 -0.954717,2.01042 -1.893008,1.13627 z"
       id="path183" /></g></svg>
