<?xml version="1.0" encoding="UTF-8" standalone="no"?>
<!-- Created with Inkscape (http://www.inkscape.org/) -->

<svg
   width="191.649mm"
   height="191.71001mm"
   viewBox="0 0 191.649 191.71"
   version="1.1"
   id="svg5"
   xml:space="preserve"
   inkscape:version="1.2.1 (9c6d41e410, 2022-07-14)"
   sodipodi:docname="09_CapitaleBio.svg"
   xmlns:inkscape="http://www.inkscape.org/namespaces/inkscape"
   xmlns:sodipodi="http://sodipodi.sourceforge.net/DTD/sodipodi-0.dtd"
   xmlns="http://www.w3.org/2000/svg"
   xmlns:svg="http://www.w3.org/2000/svg"><sodipodi:namedview
     id="namedview7"
     pagecolor="#ffffff"
     bordercolor="#000000"
     borderopacity="0.25"
     inkscape:showpageshadow="2"
     inkscape:pageopacity="0.0"
     inkscape:pagecheckerboard="0"
     inkscape:deskcolor="#d1d1d1"
     inkscape:document-units="mm"
     showgrid="false"
     inkscape:zoom="0.52724989"
     inkscape:cx="-17.069705"
     inkscape:cy="582.2666"
     inkscape:window-width="1920"
     inkscape:window-height="1017"
     inkscape:window-x="-8"
     inkscape:window-y="-8"
     inkscape:window-maximized="1"
     inkscape:current-layer="layer1" /><defs
     id="defs2" /><g
     inkscape:label="Calque 1"
     inkscape:groupmode="layer"
     id="layer1"
     transform="translate(-14.175399,-50.919704)"><path
       style="fill:#333333;stroke-width:0.465231;fill-opacity:1"
       d="m 121.43318,236.7364 c -1.01849,-0.857 -1.41353,-1.57173 -1.35168,-2.44557 0.0481,-0.67907 -0.25398,-2.28144 -0.67121,-3.56083 -0.41722,-1.27938 -0.82112,-2.95421 -0.89756,-3.72184 -0.10279,-1.03243 -0.37796,-1.39569 -1.05724,-1.39569 -0.74317,0 -1.2492,0.91752 -2.65354,4.8113 -1.79393,4.97398 -2.29085,5.8652 -3.68684,6.61231 -1.81703,0.97245 -2.88789,-0.16023 -4.91993,-5.20394 -1.06893,-2.65319 -2.07748,-5.29503 -2.24121,-5.87075 -0.16372,-0.57572 -0.48894,-1.04677 -0.7227,-1.04677 -0.51822,0 -0.74457,0.97105 -1.39156,5.96999 -0.65243,5.04088 -1.15495,6.12601 -2.836975,6.12601 -0.88077,0 -1.55763,-0.37749 -2.06481,-1.15155 -0.65368,-0.99763 -0.67649,-1.45601 -0.17068,-3.42957 0.32112,-1.25293 0.44418,-2.64202 0.27347,-3.08687 -0.27914,-0.72743 -0.47768,-0.68122 -1.97294,0.45928 -1.22306,0.93287 -1.79974,1.13092 -2.18149,0.74917 -0.84374,-0.84375 -1.95667,-0.59943 -3.159425,0.69358 -1.854293,1.99343 -5.033753,3.97712 -6.121886,3.81948 -1.239174,-0.17952 -3.733536,-3.6056 -3.717155,-5.10562 0.0066,-0.59919 1.216657,-3.63604 2.68914,-6.74855 2.926812,-6.18665 3.938214,-7.23838 6.039954,-6.28076 0.653919,0.29795 1.975439,0.54172 2.936712,0.54172 1.83887,0 3.52622,1.36997 5.39882,4.38329 l 0.84471,1.35928 1.2163,-1.47979 c 1.316305,-1.60144 2.145325,-1.79572 3.447775,-0.80796 0.45968,0.34861 1.2203,0.53328 1.69028,0.41038 0.46997,-0.1229 1.46875,0.0942 2.2195,0.48242 1.28929,0.66672 1.51712,1.10979 2.76825,5.38371 0.29161,0.99614 0.98398,0.0764 1.91698,-2.54645 0.44998,-1.26498 0.98439,-2.56165 1.1876,-2.8815 0.56552,-0.89013 2.69575,-0.69201 3.80949,0.3543 l 0.99615,0.93583 3.22493,-2.26478 c 5.13143,-3.60367 6.78765,-4.3232 8.48043,-3.68424 1.33482,0.50383 1.66157,0.37509 5.362,-2.11275 4.07036,-2.73653 4.92237,-2.99419 7.12802,-2.15561 1.15812,0.44032 1.42537,0.34658 2.47275,-0.8673 2.02122,-2.34251 4.39239,-3.81344 6.14734,-3.81344 1.90953,0 3.24053,1.21558 3.05941,2.79409 -0.10121,0.88208 0.17065,1.15012 1.50478,1.48365 2.83733,0.70934 6.048,5.15736 6.048,8.37884 0,1.78005 -2.03766,4.12802 -4.33367,4.99365 -1.97768,0.74562 -5.00655,0.60575 -5.98108,-0.27619 -0.80366,-0.7273 -0.85078,-0.70243 -0.85078,0.44886 0,2.2451 -1.51737,2.47812 -5.17092,0.79408 -3.48354,-1.60567 -5.24191,-1.6106 -6.68252,-0.0188 -0.73708,0.81447 -0.72912,0.99167 0.13206,2.93851 1.15782,2.61744 0.76767,3.3521 -1.57803,2.97144 -0.96897,-0.15724 -1.98435,-0.11834 -2.2564,0.0864 -0.27206,0.20478 -2.27416,1.07758 -4.44911,1.93955 -2.17495,0.86196 -4.26849,1.80719 -4.65231,2.10051 -1.46425,1.11902 -1.82311,1.11182 -3.2212,-0.0646 z m 6.47782,-6.65229 4.41969,-1.75065 -0.14835,-1.82573 c -0.22889,-2.81709 -0.99596,-5.33696 -1.70775,-5.6101 -0.78475,-0.30113 -9.54205,3.80246 -9.54205,4.47133 0,0.71116 1.14593,0.57619 2.70498,-0.31859 1.14047,-0.65453 1.59844,-0.69732 2.59647,-0.24258 2.25234,1.02622 1.04434,3.57603 -2.39376,5.05269 -1.45674,0.62566 -2.12443,2.06331 -0.93046,2.00344 0.31984,-0.0161 2.5704,-0.81696 5.00123,-1.77981 z m -36.559065,-2.40676 c 1.99066,-1.74782 2.38838,-2.8815 1.64256,-4.68207 -0.50645,-1.22268 -0.77114,-1.36902 -2.252087,-1.24509 -1.565962,0.13104 -1.78162,0.34962 -3.225058,3.26873 -0.850781,1.72057 -1.414148,3.34306 -1.251926,3.60554 0.633983,1.02581 3.43309,0.50461 5.086511,-0.94711 z m 57.523265,-5.14274 c 0.46103,-0.86146 0.84039,-0.95832 3.03898,-0.776 2.00262,0.16608 2.66521,0.0393 3.26657,-0.62523 1.28453,-1.4194 -0.1529,-4.59291 -2.08035,-4.59291 -0.43837,0 -2.01948,0.42965 -3.51357,0.95478 -2.85826,1.0046 -4.89336,0.90537 -5.88281,-0.28684 -0.92976,-1.12029 -1.65819,-0.75578 -2.28497,1.1434 -0.6497,1.96862 -0.40156,2.8292 0.82525,2.86199 0.43268,0.0116 1.72878,0.52549 2.88023,1.14205 2.5996,1.39202 3.08888,1.41534 3.75067,0.17876 z m -77.722351,4.30977 c -4.486237,-2.27176 -5.355242,-3.85431 -5.016331,-9.13527 0.243004,-3.78654 1.021414,-5.16212 3.713843,-6.56299 1.697827,-0.88338 2.338222,-0.82555 3.570478,0.32248 0.576258,0.53686 1.771514,1.17596 2.656122,1.42021 1.969508,0.54381 3.6589,2.93195 4.382519,6.19517 0.733162,3.30624 -0.300799,5.88646 -2.990507,7.46273 -2.315345,1.35689 -4.061854,1.4392 -6.316124,0.29767 z m 3.997569,-4.95426 c 0.71759,-1.09518 0.700283,-1.32078 -0.294431,-3.83815 -1.346652,-3.40803 -1.444727,-3.50582 -2.661375,-2.65365 -2.36634,1.65745 -3.052676,6.04649 -1.121713,7.17323 1.460852,0.85243 3.270674,0.54997 4.077519,-0.68143 z m -17.711004,-0.97866 c -0.534432,-0.81565 -0.703658,-1.6933 -0.517664,-2.68474 l 0.27633,-1.47295 -2.768294,-0.5261 c -2.130237,-0.40483 -3.444045,-1.04224 -5.700148,-2.76549 -3.536335,-2.70112 -4.061476,-3.32312 -4.078399,-4.83063 -0.01908,-1.69899 1.300116,-3.60058 5.769422,-8.31654 2.191137,-2.31206 3.983886,-4.41833 3.983886,-4.68059 0,-0.84971 2.151444,-1.04528 3.821716,-0.34739 4.490145,1.87611 6.948926,7.61799 4.31982,10.0879 -0.639693,0.60097 -1.163077,1.57955 -1.163077,2.17464 0,1.19888 0.686508,1.45829 1.0883,0.41124 0.14156,-0.36891 0.800597,-1.02666 1.464523,-1.46168 1.510678,-0.98984 3.236577,-0.35694 3.663328,1.34336 0.369188,1.47097 -1.945683,6.6719 -4.030046,9.0545 -0.835773,0.95536 -2.098916,2.52209 -2.806983,3.48163 -1.519429,2.05905 -2.24632,2.17562 -3.322714,0.53284 z m -1.05454,-10.47939 c 1.232197,-1.65803 0.727338,-2.98267 -1.586723,-4.16321 -1.654899,-0.84427 -1.978968,-0.87666 -2.877942,-0.28763 -0.557176,0.36508 -1.311077,1.22065 -1.675336,1.90127 -0.63061,1.17831 -0.585912,1.30342 0.934539,2.61567 1.989432,1.71701 3.898326,1.69277 5.205462,-0.0661 z m 2.588028,-9.13266 c 0.09525,-0.66764 -0.09321,-1.04201 -0.524571,-1.04201 -0.901979,0 -1.876501,1.22748 -1.481691,1.8663 0.519506,0.84058 1.846521,0.29537 2.006262,-0.82429 z m 102.566128,14.65952 c -2.7323,-3.62171 -5.36606,-9.4959 -4.76291,-10.6229 0.26243,-0.49036 0.88586,-0.89156 1.3854,-0.89156 0.54255,0 1.35407,-0.70246 2.01547,-1.74461 1.04322,-1.64378 3.43868,-3.84048 7.36846,-6.75705 0.94499,-0.70135 2.41047,-2.42288 3.25662,-3.82562 1.42877,-2.3686 1.63796,-2.53051 2.93414,-2.27088 1.71789,0.34411 3.024,1.44229 3.024,2.54259 0,0.45468 0.61568,1.26508 1.36818,1.80091 0.7525,0.53582 1.49786,1.38282 1.65637,1.88222 0.17725,0.5585 0.99248,1.09765 2.11794,1.4007 1.27762,0.34403 2.04195,0.90305 2.53296,1.85255 0.6749,1.30512 0.64621,1.42476 -0.71298,2.97279 -2.17793,2.48053 -6.10897,4.52695 -7.97794,4.15316 l -1.52153,-0.30431 0.80327,1.22594 c 1.05525,1.61053 1.01422,2.71774 -0.14693,3.96408 -0.8798,0.94436 -1.04737,0.96968 -2.26151,0.34183 -0.72123,-0.37296 -2.40789,-1.9439 -3.74814,-3.49097 -1.34025,-1.54707 -2.78248,-2.81182 -3.20495,-2.81055 -0.42246,0.001 -1.36858,0.48279 -2.10247,1.07006 l -1.33436,1.06776 1.28087,2.53547 c 0.70447,1.39451 1.6713,3.03475 2.1485,3.64498 1.01112,1.29297 1.09302,2.74169 0.22002,3.89172 -1.09519,1.44274 -2.38754,0.9577 -4.33848,-1.62831 z m 9.93611,-14.20753 c -1.07762,-1.07762 -1.53827,-0.28163 -0.50059,0.865 0.55491,0.61316 0.94385,0.76827 1.05915,0.42238 0.10021,-0.30064 -0.15114,-0.87996 -0.55856,-1.28738 z m -70.85118,10.35203 c -0.28276,-0.73685 0.67987,-15.51271 1.04961,-16.11096 0.11383,-0.18419 0.0677,-2.31663 -0.10259,-4.73876 l -0.30957,-4.40387 -1.991065,-0.55747 c -2.1036,-0.58897 -2.99504,-0.37067 -2.99504,0.73341 0,0.42661 0.48131,0.67039 1.32358,0.67039 1.77295,0 2.863495,1.31457 2.863495,3.45171 0,1.52254 -0.42793,2.21353 -3.290645,5.31352 -1.80986,1.95986 -4.24017,5.08291 -5.40069,6.94012 -2.751647,4.40352 -5.153381,5.16439 -6.262124,1.98384 -0.267954,-0.76864 -0.963339,-1.66116 -1.5453,-1.98337 -0.581967,-0.3222 -1.915955,-1.05755 -2.964427,-1.63411 -2.377049,-1.30715 -3.068679,-2.45373 -2.19821,-3.64417 0.371957,-0.50868 0.535574,-1.47077 0.396191,-2.32967 -0.228894,-1.41052 -0.110092,-1.53344 3.302812,-3.4174 1.947134,-1.07484 3.540242,-2.07585 3.540242,-2.22446 0,-0.1486 -1.98982,-0.13949 -4.421822,0.0203 -2.431998,0.15975 -4.915692,0.10268 -5.519314,-0.12681 -1.590135,-0.60457 -1.89615,-1.83706 -0.757154,-3.04946 0.777582,-0.8277 0.872498,-1.24752 0.502226,-2.2214 -0.362917,-0.95455 -0.270611,-1.43722 0.450064,-2.35341 1.116042,-1.41882 1.114311,-1.6443 -0.02387,-3.09935 -1.037079,-1.32583 -1.189456,-2.81153 -0.372185,-3.6288 0.635626,-0.63563 4.7035,-0.69344 7.815874,-0.11109 5.481571,1.02565 12.400237,4.06001 13.908367,6.09987 0.56993,0.77087 1.51966,1.34572 2.465065,1.49204 0.84587,0.13092 1.96532,0.37754 2.48767,0.54804 0.69238,0.22601 1.57482,-0.18489 3.25663,-1.5164 1.26879,-1.00452 3.03963,-1.95885 3.9352,-2.12071 5.0842,-0.91891 4.87219,-0.94022 8.56639,0.86072 2.68458,1.30874 3.88108,2.20877 4.8945,3.68172 0.73772,1.07225 2.31689,2.56619 3.50927,3.31988 2.27483,1.43791 3.96522,3.65007 3.96522,5.18916 0,1.75525 -3.22569,3.58835 -8.00548,4.54935 -0.69279,0.13929 -1.81632,0.76918 -2.49672,1.39976 -1.51011,1.39952 -2.60006,0.99977 -3.41597,-1.25284 -1.76119,-4.86241 -6.21035,-12.18229 -7.76792,-12.77998 -0.86595,-0.33232 -2.50588,1.12963 -2.50588,2.23392 0,0.46309 -0.4458,1.08057 -0.99067,1.37217 -0.89189,0.47733 -0.96526,0.81051 -0.73578,3.34126 0.2023,2.23101 0.50272,3.04086 1.45591,3.9247 1.43854,1.33388 1.50461,2.05269 0.28975,3.15212 -1.35319,1.22462 -2.26125,4.66372 -2.33456,8.84178 -0.0358,2.03877 -0.28783,3.97529 -0.56013,4.30338 -0.68635,0.82701 -2.67819,0.74851 -3.01095,-0.11866 z m -7.479145,-16.36362 c 4.13316,-4.42892 4.15692,-5.01162 0.16652,-4.08402 -3.342597,0.77701 -8.201568,3.00361 -8.201568,3.75833 0,1.36086 1.113121,2.9826 2.051909,2.98948 0.534648,0.004 1.286121,0.20987 1.669936,0.45767 0.383816,0.24779 0.806943,0.4016 0.940283,0.34179 0.133335,-0.0598 1.65115,-1.61827 3.37292,-3.46325 z M 124.402,193.77616 c 0.14726,-0.23829 -0.25,-1.19621 -0.88282,-2.12872 -0.63282,-0.9325 -1.2918,-2.15068 -1.46441,-2.70706 -0.86207,-2.77867 -5.04896,-5.879 -7.95693,-5.89197 -1.70303,-0.008 -1.67318,0.79752 0.14217,3.83446 0.95568,1.59876 2.01986,3.37789 2.36486,3.95361 0.345,0.57572 0.99457,1.04677 1.44349,1.04677 0.44892,0 1.29591,0.33598 1.8822,0.74664 0.92165,0.64555 2.8532,1.41152 3.88221,1.53952 0.17681,0.022 0.44196,-0.15497 0.58923,-0.39325 z M 88.598997,186.0322 c 3.870788,-0.77046 5.350148,-1.61217 5.350148,-3.04407 0,-0.46309 -0.36637,-1.03444 -0.81415,-1.26967 -1.94986,-1.02427 -9.431578,-3.3269 -10.809782,-3.3269 -1.35677,0 -1.476614,0.10687 -1.173823,1.04677 0.185473,0.57572 0.548419,2.30289 0.806552,3.83815 0.670932,3.99041 0.678743,4.00609 1.862225,3.73693 0.581343,-0.13222 2.731815,-0.57376 4.77883,-0.98121 z m 31.408093,22.83801 c -0.96698,-1.16514 -0.12747,-2.85321 2.43611,-4.89843 3.52651,-2.81347 6.49351,-4.17643 11.18307,-5.13722 2.27202,-0.46549 4.60701,-1.15828 5.18888,-1.53953 0.58187,-0.38125 2.56399,-1.0049 4.40471,-1.38588 3.46318,-0.71678 4.95165,-1.44143 7.13851,-3.47532 1.39974,-1.30183 1.64815,-3.07575 0.77961,-5.56724 -0.38997,-1.11869 -0.29776,-2.43711 0.41974,-6.00112 1.3859,-6.88399 1.70137,-11.25591 0.83617,-11.58791 -0.7433,-0.28524 -7.41995,1.04324 -8.78136,1.74726 -0.44778,0.23156 -0.81415,0.70888 -0.81415,1.06072 0,1.05043 -3.67705,5.37556 -4.57008,5.37556 -1.0424,0 -1.94315,-0.88061 -1.94315,-1.89971 0,-0.43073 -0.41765,-0.89237 -0.92811,-1.02586 -1.22713,-0.3209 -1.68466,-1.62619 -0.97073,-2.76937 0.44797,-0.71732 0.45247,-1.21316 0.0204,-2.25617 -0.30454,-0.73524 -0.43177,-1.65458 -0.28272,-2.04299 0.34632,-0.90251 2.7019,-0.91899 5.62474,-0.0394 1.99581,0.60065 2.77687,0.57456 7.86656,-0.2627 3.1079,-0.51126 5.78202,-1.07304 5.94247,-1.2484 0.16046,-0.17536 0.66024,-1.45379 1.11062,-2.84096 0.46937,-1.44564 1.56412,-3.33204 2.56492,-4.41969 0.96032,-1.04367 2.21308,-2.79544 2.78391,-3.89284 l 1.03787,-1.99526 -2.1895,-3.54786 c -1.68895,-2.73681 -2.12273,-3.82281 -1.89748,-4.75058 0.1606,-0.6615 0.49112,-2.11923 0.73448,-3.23941 0.24336,-1.12017 0.8919,-2.93656 1.44119,-4.03641 0.82383,-1.64954 0.92239,-2.31127 0.56284,-3.7787 -0.55843,-2.27915 -0.33091,-3.29032 0.82272,-3.65646 1.19811,-0.38027 2.18314,0.46745 2.65504,2.28492 0.34211,1.31764 0.5485,1.4535 2.20798,1.4535 1.51469,0 1.85504,0.17137 1.97223,0.99308 0.17393,1.21956 -1.87714,2.96138 -3.48715,2.96138 -0.87931,0 -1.31649,0.43385 -1.99235,1.97723 -1.40593,3.21053 -1.64891,6.0781 -0.65728,7.7568 0.92738,1.56994 2.05818,1.83372 2.99937,0.69965 1.06279,-1.28059 3.77461,-2.34195 9.3509,-3.65977 4.7768,-1.12888 5.57745,-1.20711 6.704,-0.65503 2.0148,0.98738 3.00686,2.70103 3.12132,5.39164 0.14693,3.45406 -0.51472,3.96715 -5.19366,4.02749 -4.53022,0.0584 -5.41405,0.62697 -3.74629,2.40992 1.81951,1.94518 2.29436,2.02671 6.01858,1.03332 5.57047,-1.48587 6.355,-1.53698 6.93574,-0.45184 0.97973,1.83064 -0.77148,3.33643 -3.88021,3.33643 -0.85414,0 -2.59073,0.33515 -3.85909,0.74478 -2.21535,0.71548 -2.38305,0.70553 -4.26146,-0.25276 -1.07545,-0.54866 -2.75932,-1.72388 -3.74193,-2.6116 -1.05713,-0.95506 -2.07093,-1.50493 -2.48305,-1.34678 -2.3646,0.90738 -6.54798,9.53239 -6.29477,12.97814 0.13114,1.78461 0.2892,1.96723 2.93,3.38544 4.23156,2.2725 5.38131,2.36536 7.97935,0.64449 2.24592,-1.48764 2.8124,-1.64922 4.0786,-1.16333 1.13861,0.43693 0.87136,1.86652 -0.54349,2.90721 -1.12351,0.82641 -1.20853,1.05709 -0.69784,1.89342 1.10845,1.81526 0.42729,3.75636 -1.31817,3.75636 -0.43074,0 -0.89238,0.41765 -1.02587,0.92811 -0.13348,0.51047 -0.59284,1.06248 -1.02079,1.2267 -1.22294,0.46928 -2.33425,-1.01701 -2.33425,-3.12188 v -1.86208 l -3.83229,-1.34187 c -2.25113,-0.78823 -3.94609,-1.15773 -4.10812,-0.89556 -0.15171,0.24547 -0.47402,1.84575 -0.71625,3.55617 -0.54106,3.82056 -1.92175,6.88633 -4.83526,10.73644 -1.22588,1.61997 -2.47812,3.71351 -2.78274,4.6523 -0.49468,1.52453 -1.01585,1.93961 -4.87798,3.88497 -2.98278,1.50244 -5.35154,2.3384 -7.6362,2.69491 -4.7677,0.74397 -11.41248,2.29199 -13.37561,3.1161 -0.92915,0.39005 -2.80619,1.84004 -4.17118,3.2222 -2.56339,2.59564 -3.61426,3.0115 -4.60211,1.82122 z m 37.93298,-26.93247 c 0.5483,-1.58855 0.92046,-4.55471 1.11621,-8.89633 0.25032,-5.55155 0.492,-7.06277 1.63685,-10.23508 3.30228,-9.15042 7.96935,-12.78373 16.4306,-12.79124 3.22219,-0.003 3.70882,-0.41585 2.9236,-2.48114 -0.38239,-1.00574 -0.77019,-1.2433 -2.02965,-1.2433 -0.85632,0 -2.48399,0.29774 -3.61705,0.66163 -1.13306,0.36391 -2.83902,0.79094 -3.79103,0.94898 -1.9134,0.31762 -4.54969,2.2655 -4.54969,3.36162 0,0.38635 -0.62806,1.28915 -1.39569,2.00623 -0.76763,0.71707 -1.3957,1.69441 -1.3957,2.17187 0,0.47746 -0.91086,1.91128 -2.02413,3.18627 -1.11327,1.27499 -2.35673,2.96368 -2.76324,3.75264 -1.04227,2.02285 -2.02963,6.59032 -2.65673,12.28982 -0.29561,2.68671 -0.73048,5.64195 -0.96637,6.56721 -0.51541,2.02157 -0.56041,4.77699 -0.0858,5.25163 0.54073,0.54074 2.26574,-1.93738 3.16778,-4.55081 z m 7.6269,9.41339 c -0.5313,-1.28268 -0.49533,-1.66415 0.29248,-3.10126 0.49407,-0.90127 1.23227,-1.84409 1.64045,-2.09516 1.10068,-0.677 2.95733,-0.0369 3.65069,1.25866 0.53791,1.00511 0.48197,1.31895 -0.47913,2.68763 -2.22287,3.16555 -4.11877,3.62987 -5.10449,1.25013 z M 63.941774,173.47794 c -0.255876,-0.0702 -1.273699,-0.26342 -2.261825,-0.42927 -3.567719,-0.59882 -4.911646,-3.45351 -3.258187,-6.92085 0.478987,-1.00444 0.644447,-2.05779 0.446882,-2.84496 -0.295677,-1.17808 -0.426365,-1.23194 -2.272601,-0.93672 -1.077384,0.17228 -2.702872,0.81734 -3.612195,1.43348 -0.967433,0.65551 -2.329199,1.12025 -3.282537,1.12025 -1.005219,0 -2.230148,0.44335 -3.198187,1.15755 -0.862931,0.63665 -2.316742,1.27635 -3.230692,1.42156 -0.91395,0.14522 -2.34923,0.56641 -3.189511,0.936 -1.827554,0.80382 -3.378917,0.85407 -4.904706,0.15887 -0.858812,-0.3913 -1.388558,-0.36369 -2.231736,0.11631 -0.608089,0.34617 -2.152386,0.66101 -3.43177,0.69965 -1.279384,0.0386 -3.018274,0.22113 -3.8642,0.40554 -1.247585,0.27199 -1.752775,0.13359 -2.675076,-0.73287 -0.625366,-0.5875 -1.137029,-1.30923 -1.137029,-1.60384 0,-0.29461 -0.512525,-1.01715 -1.138944,-1.60564 -2.271308,-2.13378 -1.939911,-5.1402 0.566605,-5.1402 1.807502,0 6.620337,-1.90549 6.620337,-2.62111 0,-0.34953 -0.220027,-0.63551 -0.48895,-0.63551 -0.655768,0 -3.572222,-3.156 -4.468455,-4.83548 -1.682395,-3.15268 -0.318631,-10.09681 2.048963,-10.43308 1.385453,-0.19678 1.97798,1.38982 1.97798,5.29639 0,3.26667 0.68375,4.4301 3.155961,5.37004 1.127893,0.42882 1.414432,0.30742 2.772805,-1.17483 0.972693,-1.06139 1.514924,-2.13021 1.514924,-2.98616 0,-3.47445 2.167784,-5.74615 4.018001,-4.2106 0.730073,0.60591 0.737099,1.59052 0.05108,7.15812 -0.148907,1.20849 1.620626,1.50507 3.119673,0.52285 0.597827,-0.39171 2.403964,-1.15587 4.013638,-1.69812 4.409039,-1.4853 6.423588,-3.3896 6.459886,-6.10638 0.01278,-0.95639 0.342766,-1.34762 1.467323,-1.73964 1.798634,-0.62701 3.500824,-0.23997 5.21809,1.18646 0.725327,0.60249 1.517913,0.97235 1.761303,0.82193 1.730862,-1.06973 11.56078,-12.77492 13.900839,-16.55273 1.151446,-1.8589 2.625264,-4.01636 3.275149,-4.79436 0.64989,-0.778 1.433157,-1.99615 1.740591,-2.70699 1.116312,-2.58109 3.023436,-2.06742 3.528667,0.95041 0.160007,0.95575 0.504515,2.78449 0.765574,4.06387 1.103137,5.40619 1.109715,6.26758 0.05871,7.68915 -0.546995,0.73984 -0.994538,1.68274 -0.994538,2.09532 0,0.41258 -0.499988,1.62485 -1.111087,2.69392 -0.611094,1.06907 -1.247488,2.72268 -1.414203,3.67468 -0.166715,0.95201 -0.773981,2.31281 -1.349485,3.024 -0.575504,0.71119 -1.313169,1.90776 -1.639263,2.65903 -0.32609,0.75127 -1.207697,2.1422 -1.959119,3.09095 -0.751422,0.94875 -1.366224,1.82492 -1.366224,1.94704 0,0.12212 2.100004,0.37093 4.666677,0.55289 5.332087,0.37803 5.708152,0.65582 6.205232,4.58363 0.33873,2.67658 -1.016185,5.78499 -3.615475,8.29452 -0.891893,0.86109 -2.539163,2.45538 -3.660597,3.54286 -1.434325,1.3909 -2.442265,1.98212 -3.398942,1.99372 -0.747984,0.009 -1.883356,0.31568 -2.523048,0.68136 -0.639692,0.36568 -2.039204,0.67229 -3.110021,0.68135 -1.070821,0.009 -2.43162,0.19579 -3.023999,0.41492 -0.592382,0.21914 -1.286409,0.34096 -1.542286,0.27072 z m 1.163077,-4.15838 c 1.113018,-1.18475 3.404064,-1.58841 3.955084,-0.69683 0.311355,0.50378 3.651599,0.14555 4.977014,-0.53377 0.434809,-0.22285 1.06287,-0.97038 1.395691,-1.66116 0.332822,-0.69078 1.109426,-1.37443 1.725783,-1.51921 0.61636,-0.14479 1.759353,-1.05238 2.539982,-2.01688 1.15968,-1.43282 1.422764,-2.18951 1.438116,-4.13633 0.01777,-2.25259 -0.05744,-2.40508 -1.376906,-2.79235 -0.76763,-0.2253 -3.489229,-0.47685 -6.047998,-0.55899 -7.115865,-0.22846 -7.78315,-0.52064 -12.834689,-5.61992 -5.475193,-5.52694 -6.334625,-5.72594 -4.896938,-1.13389 0.35474,1.13306 0.874987,2.89752 1.156105,3.92103 0.281118,1.02351 1.662964,3.29849 3.070766,5.05552 1.477149,1.84358 2.415733,3.41757 2.21936,3.72184 -0.187158,0.28999 -0.354678,1.46934 -0.372264,2.62079 -0.01759,1.15145 -0.31999,2.75715 -0.672002,3.56824 -0.528888,1.21865 -0.53408,1.60235 -0.02992,2.20985 0.896625,1.08037 2.508491,0.89656 3.752797,-0.42794 z m -38.765657,-3.56542 c 0.98981,-0.92987 1.212227,-0.96021 2.916404,-0.39778 1.605644,0.52991 1.996329,0.50962 3.012854,-0.15643 1.477808,-0.9683 2.17879,-0.9617 3.918761,0.0369 1.323264,0.75946 1.444999,0.75946 2.28418,0 0.549898,-0.49763 1.64591,-0.80218 2.886943,-0.80218 1.63285,0 2.331765,-0.29926 3.80286,-1.62831 1.956614,-1.76768 2.322213,-1.87935 3.714109,-1.13443 0.748226,0.40044 1.329653,0.22441 3.073176,-0.93046 1.182697,-0.78338 2.493159,-1.42434 2.912138,-1.42434 0.41898,0 1.131209,-0.27013 1.582733,-0.60029 0.765414,-0.55969 0.708488,-0.76741 -0.841542,-3.07075 -0.914372,-1.35875 -1.6657,-2.81579 -1.669618,-3.23786 -0.01778,-1.91496 -0.737043,-2.17407 -3.102393,-1.11762 -1.232349,0.55042 -4.229496,1.7512 -6.660326,2.66841 -4.465687,1.68501 -7.314158,3.01064 -13.274969,6.17799 -1.799881,0.95639 -4.155111,2.08971 -5.233845,2.5185 -1.535332,0.61027 -1.961333,1.01952 -1.961333,1.88418 0,0.9884 0.74506,2.22113 1.342446,2.22113 0.124241,0 0.70808,-0.45299 1.297422,-1.00665 z M 70.45953,150.47772 c 1.043619,0 3.019472,-2.56855 3.019453,-3.92519 -1.8e-5,-1.06704 0.423086,-1.78019 1.684498,-2.83924 1.465695,-1.23056 1.680957,-1.67251 1.657086,-3.4021 -0.01954,-1.41608 0.232332,-2.21024 0.875718,-2.76112 0.686113,-0.58747 0.836057,-1.13099 0.623935,-2.26168 -0.244614,-1.30391 -0.110865,-1.57543 1.079205,-2.19084 2.346916,-1.21364 2.623956,-1.83678 1.990521,-4.47723 -0.921212,-3.84004 -1.307744,-3.6849 -4.615301,1.85249 -0.993454,1.6632 -3.280542,4.54542 -5.082417,6.40493 -3.720296,3.8393 -8.91353,10.11552 -8.91353,10.77232 0,0.24098 0.647899,0.8995 1.439777,1.46336 0.791878,0.56387 1.978058,1.52408 2.635959,2.1338 l 1.196183,1.10858 0.999562,-0.93904 c 0.549758,-0.51647 1.18397,-0.93904 1.409351,-0.93904 z m 27.960415,13.24371 c -1.00695,-1.00695 -0.67185,-1.4683 3.438125,-4.7335 5.48174,-4.355 16.70243,-15.55161 16.8517,-16.81551 l 0.12923,-1.09424 -8.68643,-0.17797 c -7.36911,-0.15098 -9.07842,-0.32463 -11.271115,-1.14502 -3.35888,-1.25672 -5.39754,-4.15143 -5.39754,-7.66402 0,-1.95895 1.28837,-2.75168 5.60078,-3.44618 1.613465,-0.25984 3.114305,-0.65317 3.335215,-0.87409 0.22538,-0.22538 -0.21811,-2.08253 -1.01056,-4.23176 -1.932825,-5.24211 -1.880595,-5.75145 0.73993,-7.2161 2.81181,-1.57154 4.1128,-1.51725 6.13228,0.25588 1.66434,1.46131 6.11833,7.17396 8.65629,11.1025 2.02278,3.13109 4.49901,6.048 5.13428,6.048 0.30926,0 1.05568,-1.05342 1.65871,-2.34093 1.27897,-2.73064 1.87671,-3.33763 2.75329,-2.79588 0.90902,0.56181 0.29175,4.54 -0.97079,6.25651 -0.9587,1.30344 -0.96376,1.37491 -0.14004,1.97723 0.57419,0.41986 2.31384,0.62494 5.30169,0.62499 6.89049,1.3e-4 13.52212,1.43908 15.72892,3.41293 2.09974,1.87807 0.81962,5.12288 -2.26437,5.73968 -1.81596,0.36319 -2.13052,1.2293 -1.17455,3.234 2.49093,5.22354 -1.21839,8.73096 -7.34881,6.9488 -2.20176,-0.64007 -3.16284,-1.3178 -6.16561,-4.3478 -1.9565,-1.97424 -4.25736,-4.68268 -5.11301,-6.01874 -2.40145,-3.74976 -2.94929,-3.84172 -5.1918,-0.87155 -1.62853,2.15698 -18.58621,18.41169 -19.603055,18.79044 -0.20241,0.0754 -0.70765,-0.20256 -1.12276,-0.61767 z m 40.851155,-9.80425 c 0.41569,-0.15952 0.73589,-0.82057 0.73589,-1.51926 0,-1.99023 -1.46298,-4.12402 -3.8682,-5.64185 -1.89932,-1.19858 -2.21764,-1.6067 -2.09354,-2.68408 0.17959,-1.55901 1.55778,-1.87982 3.581,-0.83357 1.56725,0.81046 4.10812,0.94336 5.17213,0.27054 1.14443,-0.72368 -0.27295,-1.61575 -3.72185,-2.34247 -2.68866,-0.56652 -13.83251,-0.71331 -14.37495,-0.18934 -0.83042,0.80215 8.68028,11.12771 11.35095,12.32348 2.17166,0.97234 2.25152,0.98764 3.21857,0.61655 z m -23.43461,-15.99897 c 0.90739,-0.25207 2.033,-0.73853 2.50136,-1.081 0.73841,-0.53994 0.77203,-0.77235 0.25301,-1.74893 -0.32921,-0.61943 -1.30292,-1.96366 -2.16379,-2.98717 -0.86087,-1.0235 -3.45442,-4.43843 -5.76344,-7.58873 -3.75694,-5.12574 -4.33034,-5.71255 -5.45512,-5.58276 -1.10733,0.12778 -1.24286,0.32488 -1.13892,1.65632 0.0649,0.83121 0.66111,2.868 1.32495,4.52621 0.89547,2.23684 1.60923,3.26354 2.76569,3.97827 4.15382,2.5672 1.3097,5.43851 -3.40941,3.44199 -2.11969,-0.89677 -7.545055,-0.533 -7.545055,0.50591 0,1.64138 1.032,3.10716 2.66929,3.79126 2.774845,1.1594 13.157625,1.86755 15.961435,1.08863 z m 74.2991,10.89772 c -0.71885,-0.38999 -1.27938,-1.09028 -1.27938,-1.5984 0,-0.49737 -0.72121,-1.56061 -1.60269,-2.36273 -0.88149,-0.80214 -1.66656,-1.90436 -1.74462,-2.44939 -0.078,-0.54503 -0.72152,-1.2679 -1.42992,-1.60638 -3.42436,-1.63617 -3.43546,-5.35882 -0.0228,-7.64584 1.1959,-0.80144 4.06472,-1.8543 7.44369,-2.73182 3.02382,-0.7853 5.69675,-1.61836 5.93983,-1.85126 0.67596,-0.64765 2.4012,-0.50406 3.02873,0.25206 0.82782,0.99747 0.1364,2.53625 -1.29186,2.87512 -0.68661,0.16289 -1.56241,0.56378 -1.94623,0.89085 -0.38381,0.32707 -2.53487,1.02899 -4.78014,1.55983 -4.15943,0.98341 -6.85062,2.08062 -6.85062,2.79305 0,1.10499 1.30028,1.4331 2.94912,0.74417 1.54962,-0.64747 1.87401,-0.63046 4.09916,0.21503 1.32901,0.50499 2.58651,1.18628 2.79446,1.51398 0.69238,1.09113 0.40472,3.22621 -0.72919,5.41219 -0.61684,1.18916 -1.34509,2.73783 -1.61833,3.44149 -0.56023,1.44271 -1.11925,1.54625 -2.95922,0.54805 z M 36.493168,141.42447 c -1.023507,-0.63403 -2.2909,-1.15932 -2.816428,-1.1673 -0.525529,-0.008 -1.676974,-0.76313 -2.558769,-1.6781 -0.881794,-0.91496 -2.911723,-2.60037 -4.510953,-3.74535 -4.032955,-2.88741 -3.851562,-3.91625 0.814153,-4.61776 1.407323,-0.21159 4.547629,-0.33223 6.978459,-0.26807 3.591488,0.0948 4.585981,0.28002 5.307095,0.98849 0.844711,0.82991 0.849136,0.93026 0.09198,2.08582 -0.437485,0.66769 -1.307863,1.40881 -1.934173,1.64693 -1.586937,0.60335 -1.46884,2.06729 0.223313,2.7682 0.749132,0.31031 1.736619,0.97807 2.194415,1.48393 0.756277,0.83568 0.76852,1.03348 0.133949,2.16404 -0.92703,1.65162 -1.696901,1.71818 -3.923038,0.33917 z m -2.317243,-15.64682 c -1.786238,-0.77286 -3.630073,-1.3052 -4.097412,-1.18299 -1.603937,0.41944 -1.92452,-1.50001 -1.082716,-6.48261 0.41983,-2.48495 1.022852,-5.05958 1.340047,-5.72139 1.254997,-2.61846 5.152544,-2.28057 6.908454,0.59892 0.66438,1.08951 0.874116,2.33538 0.875438,5.20027 l 0.0017,3.76749 1.870924,0.84367 c 1.189196,0.53625 1.97097,1.24229 2.145489,1.93762 0.70173,2.79592 -2.834738,3.25742 -7.961964,1.03902 z M 183.27368,124.8436 c -1.92013,-0.78382 -3.25685,-2.3351 -3.25685,-3.7796 0,-1.4996 0.96223,-3.60921 2.06286,-4.52266 1.24388,-1.03232 0.81587,-1.42114 -1.5644,-1.42114 -2.41493,0 -3.75508,-0.8051 -3.75508,-2.25587 0,-0.82619 1.2133,-2.84355 2.06657,-3.43609 0.82416,-0.57232 3.4493,-0.39649 5.23791,0.35085 1.56194,0.65261 1.90024,0.63476 4.4066,-0.23262 3.42079,-1.18385 4.57199,-1.20428 4.57199,-0.0811 0,0.99439 -1.0033,1.96947 -3.1403,3.05195 -1.80363,0.91362 -1.91512,1.54223 -0.37721,2.12694 2.51304,0.95546 2.49915,4.03206 -0.0272,6.01926 -0.85751,0.67452 -1.06919,1.2467 -0.9838,2.65931 l 0.10879,1.79987 -2.09354,0.0978 c -1.15144,0.0538 -2.61681,-0.11579 -3.25637,-0.37687 z M 39.751948,111.63732 c -3.097944,-1.06348 -4.887087,-2.42837 -4.887087,-3.72821 0,-0.32712 0.38842,-1.07444 0.863156,-1.66072 l 0.863156,-1.06595 2.289765,1.19729 c 1.259371,0.6585 3.226181,1.46514 4.370688,1.79252 2.406515,0.68836 3.709231,1.65066 3.709231,2.73993 0,2.14878 -2.367975,2.38698 -7.208909,0.72514 z m 73.397352,-1.75097 c -0.53182,-0.57572 -1.28726,-1.8244 -1.67874,-2.77484 -0.80982,-1.96607 -0.88721,-1.9943 -7.51895,-2.74276 -9.899625,-1.11728 -8.849125,-1.2139 -10.208125,0.9389 -0.66094,1.04699 -1.50245,1.90361 -1.87003,1.90361 -0.93559,0 -2.975296,-2.80756 -3.330686,-4.58453 -0.371412,-1.85705 -0.52719,-1.94701 -4.149457,-2.39623 -1.775571,-0.2202 -3.437258,-0.735105 -4.129428,-1.279565 -0.637041,-0.5011 -2.119154,-1.18012 -3.293587,-1.50894 -3.224434,-0.90279 -4.549257,-3.55123 -2.640509,-5.27862 1.631587,-1.47657 4.064496,-0.63055 4.350148,1.51272 0.196923,1.47752 4.511467,3.87777 6.604419,3.67415 1.184039,-0.1152 1.433971,-0.33105 1.347266,-1.16355 -0.121789,-1.16935 2.195246,-3.09311 3.432201,-2.84964 2.071493,0.40772 1.927083,2.8867 -0.225241,3.86651 -0.555751,0.253 -0.953188,0.63181 -0.883189,0.84181 0.265377,0.79613 5.766123,2.648425 7.871163,2.650505 1.19876,10e-4 2.71319,0.20504 3.365405,0.45301 0.65221,0.24797 4.2772,0.54997 8.05553,0.67111 3.77831,0.12114 8.9632,0.45949 11.52197,0.7519 4.84799,0.55402 7.01954,0.40062 10.36383,-0.73212 1.86237,-0.6308 2.19782,-0.6012 5.24306,0.46274 1.78936,0.62517 3.90488,1.60057 4.70116,2.16757 1.17574,0.8372 5.51021,2.23714 7.02425,2.26868 0.50178,0.0105 0.38128,-2.5461 -0.28465,-6.03901 l -0.5762,-3.022285 -2.07019,-0.064 c -1.1386,-0.0352 -3.32631,-0.5231 -4.86157,-1.08418 -1.53526,-0.56109 -3.73348,-1.18308 -4.88492,-1.38222 -1.15145,-0.19914 -2.68386,-0.60216 -3.40537,-0.89559 -1.4116,-0.57409 -6.2695,-1.27225 -13.34294,-1.91761 -2.43083,-0.22178 -5.15243,-0.63165 -6.04799,-0.91081 -3.46906,-1.08135 -16.183065,-0.97262 -27.913854,0.23872 -2.664646,0.27515 -2.941072,0.23098 -2.326153,-0.37176 0.383815,-0.37622 2.163322,-1.16976 3.95446,-1.76343 2.936991,-0.97347 4.146986,-1.08323 12.328612,-1.11827 l 9.072005,-0.0389 3.96072,-2.64475 c 7.29549,-4.87153 9.11573,-4.91714 9.95856,-0.24955 0.1746,0.96691 0.72856,2.4548 1.23103,3.30643 0.87659,1.48569 1.08761,1.5727 5.21025,2.14824 2.36317,0.32991 4.86199,0.88322 5.55295,1.22958 0.69095,0.34635 1.99166,0.62974 2.89047,0.62974 0.8988,0 2.69645,0.41871 3.99478,0.93046 2.65104,1.04494 4.3211,1.1597 6.38854,0.43898 1.16169,-0.40496 1.462,-0.81755 1.70608,-2.34395 0.32485,-2.0315 1.27745,-2.72616 2.42848,-1.77089 0.5925,0.49173 0.67869,1.13286 0.42914,3.19235 -0.76205,6.2892 -0.78674,7.359435 -0.24317,10.537215 0.70403,4.11575 0.39617,5.64479 -1.21809,6.04995 -1.56792,0.39352 -7.98365,-1.07135 -9.57781,-2.18685 -1.89756,-1.3278 -5.07273,-2.43246 -6.89163,-2.39764 -0.89557,0.0172 -3.09378,0.26327 -4.88492,0.54693 -1.79114,0.28366 -4.56507,0.38204 -6.1643,0.21863 -2.76333,-0.28237 -2.9077,-0.24709 -2.9077,0.71064 0,3.47659 -3.36739,5.43356 -5.45708,3.17141 z m 2.20047,-3.83816 c 0,-0.38382 -0.197,-0.69785 -0.43777,-0.69785 -0.58665,0 -1.00681,0.7265 -0.63512,1.09819 0.52394,0.52393 1.07289,0.3191 1.07289,-0.40034 z m 3.07072,-17.193025 c -0.42715,-1.70192 -1.15587,-3.50974 -1.41474,-3.50974 -0.66532,0 -4.67998,2.90714 -4.67998,3.38892 0,0.58084 2.05653,1.09386 4.81905,1.20214 1.43707,0.0563 1.53943,-0.0304 1.27567,-1.08132 z M 44.279768,103.94819 c -2.370168,-1.27583 -4.603259,-2.31969 -4.962426,-2.31969 -0.359166,0 -1.03686,0.5193 -1.505986,1.154 -0.469127,0.6347 -1.376342,1.21043 -2.016034,1.27939 -1.933858,0.20847 -1.738048,-1.79894 0.701955,-7.196295 2.931043,-6.48355 3.85822,-7.36052 6.071155,-5.74238 0.818321,0.59837 0.844716,0.80549 0.281624,2.20984 -1.21454,3.02907 -1.220189,3.00943 1.366671,4.75152 1.3531,0.91124 2.557684,1.55929 2.676853,1.44012 0.11917,-0.11917 -0.579092,-1.91242 -1.551692,-3.98499 -1.744689,-3.71787 -1.758155,-3.78973 -1.005849,-5.36733 0.419383,-0.87946 1.072936,-1.71813 1.45234,-1.86372 0.379403,-0.14559 2.630267,0.30816 5.001919,1.00833 5.011619,1.47957 6.870863,1.8519 6.870863,1.37594 0,-0.74001 -3.269494,-5.65821 -4.617879,-6.94654 -1.581914,-1.51146 -1.794215,-2.79165 -0.717809,-4.32843 0.608725,-0.86908 0.89613,-0.94708 1.976378,-0.53637 1.840191,0.69964 2.78621,1.67066 5.050996,5.18445 2.295317,3.56116 3.060231,3.82583 5.051157,1.74775 l 1.334156,-1.39256 -0.98232,-1.0499 c -0.540277,-0.57745 -1.766062,-2.79152 -2.723972,-4.92017 l -1.741651,-3.87027 1.24678,-2.54214 c 2.95843,-6.03212 6.010533,-8.62315 7.306089,-6.20238 0.43253,0.80818 0.209973,1.44656 -1.398846,4.01247 -2.029345,3.23661 -2.136297,3.96282 -0.405035,2.7502 1.42075,-0.99514 2.39826,-0.93921 3.42561,0.196 0.83126,0.91853 0.815498,0.9929 -0.651523,3.07418 -3.019068,4.28318 -0.604051,5.87757 3.643421,2.40539 3.766995,-3.07942 4.531425,-3.48147 5.484734,-2.88472 0.449994,0.28169 0.88719,1.09555 0.97155,1.80859 0.126064,1.06553 -0.306656,1.72458 -2.429564,3.70027 -2.221072,2.06706 -4.64483,3.41424 -8.293113,4.6095 -0.439699,0.14406 -1.094315,0.95143 -1.454702,1.79416 -1.314123,3.07297 -4.663164,5.24306 -7.282873,4.71912 -1.059377,-0.21188 -1.395892,-0.10936 -1.395892,0.42528 0,1.34816 -1.591801,2.72434 -3.308754,2.86058 -2.276927,0.18066 -2.627771,0.4743 -3.267935,2.7351 -0.304886,1.07674 -0.869247,2.215885 -1.254136,2.531435 -0.569052,0.46653 -0.59826,0.79657 -0.156331,1.7665 0.789622,1.73304 0.668304,2.91037 -0.35641,3.45879 -1.399375,0.74892 -1.837869,0.62275 -6.433519,-1.85102 z m 130.038552,-3.18205 c -1.04544,-1.157185 -1.82725,-2.657955 -2.20508,-4.232945 l -0.58538,-2.44013 2.82278,-2.86182 2.82279,-2.86182 -1.76365,-2.05436 c -2.413,-2.81076 -3.30187,-2.45149 -3.30187,1.33457 0,2.39887 -0.18276,3.00137 -1.27939,4.21783 -1.76503,1.9579 -4.38542,2.3743 -5.91264,0.93954 -0.60902,-0.57214 -1.3589,-1.64765 -1.66639,-2.39 -0.42084,-1.016 -0.86824,-1.34974 -1.80941,-1.34974 -1.50452,0 -2.68898,-0.83943 -2.90092,-2.05589 -0.0856,-0.49105 -0.78362,-1.23945 -1.55125,-1.6631 -1.14612,-0.63254 -1.42095,-1.11114 -1.53698,-2.67648 -0.15579,-2.1019 -0.51685,-2.52583 -2.80816,-3.29722 -1.22908,-0.41379 -1.82218,-0.38428 -2.83833,0.14119 -1.12156,0.57998 -1.41145,0.57541 -2.2844,-0.036 -2.25263,-1.57781 -0.76363,-4.76086 3.74585,-8.00747 3.35113,-2.41266 3.771,-2.59179 5.22168,-2.22769 1.33358,0.33471 1.8033,1.63163 2.62998,7.26146 0.31936,2.17495 0.74066,4.13809 0.93622,4.36252 0.19555,0.22443 1.446,-0.66532 2.77876,-1.97723 2.56372,-2.52359 3.60743,-2.86924 4.86538,-1.61129 1.12754,1.12755 0.57039,3.06668 -1.63137,5.67783 -1.96506,2.33046 -2.31808,3.31801 -1.18608,3.31801 0.37482,0 0.91237,0.43143 1.19458,0.95874 0.90376,1.68869 1.5027,0.72671 1.57544,-2.53041 0.0618,-2.76682 0.21276,-3.26693 1.21722,-4.03256 1.65674,-1.2628 3.51341,-1.54891 5.83443,-0.89907 2.1771,0.60955 3.87778,2.38618 5.11214,5.34041 0.50166,1.20064 0.96508,1.62813 1.765,1.62813 1.30947,0 2.62463,1.33977 2.62463,2.67374 0,0.5347 0.83742,1.84376 1.86092,2.90902 1.02351,1.06527 1.86093,2.34296 1.86093,2.83932 0,1.2345 -1.90212,2.07267 -3.16719,1.39562 -1.29951,-0.69548 -1.95035,-0.64492 -1.95035,0.15152 0,1.02 -1.33656,2.12677 -2.56832,2.12677 -0.71748,0 -1.54259,-0.57217 -2.34814,-1.62831 -1.1901,-1.56029 -2.062,-2.07914 -2.062,-1.22704 0,0.22069 0.62806,1.19157 1.39569,2.15751 1.65129,2.077875 1.6778,2.276665 0.46523,3.489225 -1.2635,1.26351 -1.50833,1.2009 -3.37235,-0.86235 z M 138.30011,76.523195 c -1.5232,-0.68196 -2.05922,-1.26501 -2.69611,-2.93268 -0.77406,-2.02684 -0.76806,-2.13501 0.22835,-4.11899 1.41469,-2.81681 5.32161,-6.45717 6.92999,-6.45717 3.47451,0 3.62369,2.69789 0.22103,3.99737 -2.23205,0.85243 -3.44161,2.46429 -3.44161,4.58629 0,1.11214 0.14417,1.18618 2.30979,1.18618 1.80999,0 2.41432,0.19533 2.79291,0.90274 0.38311,0.71583 0.2661,1.13936 -0.56517,2.04565 -1.42888,1.55784 -3.44843,1.83412 -5.77918,0.79061 z m -51.776544,-0.61026 c -1.16584,-0.58996 -1.539453,-1.71723 -2.887254,-8.71151 -0.271192,-1.40732 -0.888023,-2.99097 -1.370732,-3.51921 -0.935123,-1.02333 -1.159336,-2.06356 -0.444784,-2.06356 0.238082,0 0.499774,-0.46879 0.581539,-1.04176 0.195266,-1.36834 6.456628,-4.75177 8.052397,-4.35126 2.465313,0.61875 1.833883,3.17913 -1.157894,4.69518 -1.937406,0.98176 -2.177577,1.26531 -1.973955,2.33048 0.174094,0.91071 0.419783,1.12932 0.986582,0.87782 0.415121,-0.18419 1.539839,-0.42767 2.499378,-0.54108 1.067252,-0.12613 1.744612,-0.45379 1.744612,-0.84392 0,-1.23288 1.83148,-3.62956 3.76696,-4.92944 2.38061,-1.59884 2.80583,-1.61787 4.454935,-0.19937 1.28454,1.10493 1.29061,1.13658 0.72999,3.80936 -0.52318,2.49425 -0.49645,2.75933 0.35853,3.55587 0.50812,0.47339 1.35077,1.69752 1.87256,2.72031 0.97389,1.90896 1.8435,2.06376 1.8435,0.32815 0,-0.93465 1.80683,-4.47057 3.03792,-5.9451 0.32044,-0.38382 0.73224,-1.60975 0.9151,-2.72429 0.4622,-2.8172 1.62246,-3.90526 3.47553,-3.25928 1.57025,0.5474 2.11098,1.84589 1.76118,4.22926 -0.25708,1.75154 0.83694,4.69167 1.64658,4.42514 0.30901,-0.10172 0.63326,-0.69193 0.72057,-1.31158 0.0873,-0.61965 0.42184,-1.44067 0.74343,-1.82449 0.32159,-0.38381 0.70996,-1.05201 0.86304,-1.48489 0.48221,-1.36357 2.45667,-2.37556 3.52225,-1.80528 0.9913,0.53053 1.69016,2.07356 1.25675,2.77483 -0.38491,0.62279 1.48492,6.35611 2.29115,7.02523 0.56435,0.46837 0.7428,0.41468 0.97447,-0.29318 1.47629,-4.51071 2.89555,-6.68194 4.36776,-6.68194 1.99893,0 2.45321,2.75281 1.01088,6.12574 -0.47409,1.10869 -1.01214,3.02243 -1.19565,4.25274 -0.2007,1.34562 -0.6188,2.34637 -1.04927,2.51156 -1.36679,0.52449 -5.58887,-1.2055 -7.07617,-2.89944 -1.48879,-1.69564 -2.37814,-2.05844 -2.37814,-0.97014 0,0.35547 -0.39168,1.13 -0.87038,1.72118 -0.82129,1.01425 -0.93281,1.03293 -1.97723,0.33117 -0.60877,-0.40903 -1.90884,-1.48898 -2.88904,-2.39988 -1.46698,-1.36325 -2.0244,-1.60773 -3.15165,-1.38228 -0.76167,0.15233 -1.79145,0.86651 -2.32026,1.60916 -0.52294,0.7344 -1.23979,1.33527 -1.59299,1.33527 -0.35321,0 -1.2154,0.53122 -1.91597,1.18049 -0.70057,0.64926 -1.5912,1.11935 -1.97916,1.04464 -0.62618,-0.12059 -2.49494,-2.32026 -4.105955,-4.83299 -0.55339,-0.86314 -0.57985,-0.86269 -1.27938,0.0217 -0.39286,0.49669 -0.7143,1.72787 -0.7143,2.73595 v 1.83288 l -1.70697,-0.27701 c -1.85319,-0.30073 -2.46194,-0.91355 -2.47298,-2.48953 -0.004,-0.55906 -0.21314,-1.55832 -0.46492,-2.22057 -0.38852,-1.02188 -0.65253,-1.15756 -1.74462,-0.8966 -2.35091,0.56177 -2.590909,1.03002 -2.27424,4.43725 0.231703,2.49304 0.143142,3.26561 -0.44135,3.8501 -0.865157,0.86516 -0.636203,0.84967 -2.042349,0.13812 z"
       id="path183" /></g></svg>
