<?xml version="1.0" encoding="UTF-8" standalone="no"?>
<!-- Created with Inkscape (http://www.inkscape.org/) -->

<svg
   width="138.26401mm"
   height="144.623mm"
   viewBox="0 0 138.26401 144.623"
   version="1.1"
   id="svg5"
   xml:space="preserve"
   inkscape:version="1.2.1 (9c6d41e410, 2022-07-14)"
   sodipodi:docname="13_Eoliennes.svg"
   xmlns:inkscape="http://www.inkscape.org/namespaces/inkscape"
   xmlns:sodipodi="http://sodipodi.sourceforge.net/DTD/sodipodi-0.dtd"
   xmlns="http://www.w3.org/2000/svg"
   xmlns:svg="http://www.w3.org/2000/svg"><sodipodi:namedview
     id="namedview7"
     pagecolor="#ffffff"
     bordercolor="#000000"
     borderopacity="0.25"
     inkscape:showpageshadow="2"
     inkscape:pageopacity="0.0"
     inkscape:pagecheckerboard="0"
     inkscape:deskcolor="#d1d1d1"
     inkscape:document-units="mm"
     showgrid="false"
     inkscape:zoom="0.74564394"
     inkscape:cx="54.98603"
     inkscape:cy="315.16383"
     inkscape:window-width="1920"
     inkscape:window-height="1017"
     inkscape:window-x="-8"
     inkscape:window-y="-8"
     inkscape:window-maximized="1"
     inkscape:current-layer="layer1" /><defs
     id="defs2" /><g
     inkscape:label="Calque 1"
     inkscape:groupmode="layer"
     id="layer1"
     transform="translate(-30.88521,-36.679425)"><path
       style="fill:#323232;fill-opacity:1;stroke-width:0.51987"
       d="m 57.518273,176.10884 c -1.708433,-0.66175 -7.742179,-1.93485 -9.170058,-1.93485 -1.486079,0 -1.506774,-0.82287 -0.04043,-1.60763 0.736609,-0.39422 2.367201,-0.48944 4.687932,-0.27375 4.507704,0.41895 4.980546,-0.23203 3.919987,-5.39679 -0.693893,-3.37916 -0.693893,-3.37916 -4.577062,-3.1997 -3.229968,0.14927 -4.09082,0.0113 -5.117613,-0.82014 -2.081101,-1.68517 -0.876187,-2.86629 3.143534,-3.08145 2.970847,-0.15902 9.387244,-1.95669 12.027515,-3.36972 0.789135,-0.42233 1.215459,-0.30606 2.011755,0.54867 1.230009,1.32025 1.072484,1.31858 3.582373,0.0382 3.631824,-1.85282 5.040375,-6.37607 2.92569,-9.39521 -0.429485,-0.61318 -0.661179,-1.4268 -0.514875,-1.80807 0.146305,-0.38126 -0.14861,-1.3951 -0.655365,-2.25296 -0.885497,-1.49903 -0.883493,-1.63011 0.05146,-3.3662 1.556688,-2.8906 -2.129024,-5.78998 -4.569681,-3.59476 -1.715333,1.54284 -2.771087,1.74909 -3.699857,0.72281 -1.360097,-1.50291 -0.683859,-4.73282 0.990892,-4.73282 2.049178,0 2.001932,-3.3718 -0.08251,-5.88843 -0.669441,-0.80823 -1.217165,-1.78868 -1.217165,-2.17876 0,-1.90185 -2.168957,-1.27143 -5.068728,1.47324 -2.266798,2.14556 -2.244216,3.17462 0.06018,2.74232 2.208254,-0.41427 3.448941,0.0496 3.448941,1.28961 0,1.3506 -1.566508,2.04215 -4.625907,2.04215 -3.828311,0 -6.556249,3.85687 -4.222043,5.9693 0.566265,0.51246 1.177366,1.71956 1.358004,2.68244 0.180637,0.96288 1.004007,2.6833 1.829711,3.82315 2.172575,2.99915 1.759893,4.33746 -1.748858,5.67149 -2.068869,0.78658 -0.449243,3.68814 2.058691,3.68814 1.246303,0 0.508543,1.75909 -1.051311,2.50671 -1.060749,0.5084 -1.634473,0.54218 -2.136227,0.12576 -0.377294,-0.31313 -1.885784,-0.92563 -3.352199,-1.3611 -2.757332,-0.81884 -3.422172,-1.69089 -1.643687,-2.15598 1.203259,-0.31466 1.786389,-1.79509 1.304773,-3.31253 -0.232564,-0.73274 -0.03569,-1.30565 0.614805,-1.78909 1.605036,-1.19285 0.282616,-2.58663 -2.481234,-2.61513 -4.25165,-0.0438 -6.363708,3.68666 -4.322273,7.63436 0.984872,1.90453 0.68901,2.89477 -1.064032,3.56128 -2.66818,1.01444 -1.797446,3.33201 1.10253,2.93453 3.98566,-0.5463 5.443796,2.03298 2.0612,3.64602 -4.823452,2.30014 -9.136592,-1.56836 -6.795702,-6.09513 0.618695,-1.19643 0.721218,-2.41956 0.451911,-5.39146 -0.436488,-4.81681 0.63234,-6.92256 4.511437,-8.88825 2.640478,-1.33803 2.786647,-1.60279 3.263964,-5.91192 0.298756,-2.69712 2.578557,-6.22607 4.674872,-7.23632 1.472308,-0.70953 1.583981,-0.8839 2.110024,-3.29474 0.950454,-4.3559 8.468687,-8.94969 11.450062,-6.99622 1.482055,0.97108 6.009142,9.94059 6.009142,11.90591 0,1.15549 0.446943,1.62761 2.549421,2.69302 4.189512,2.12298 4.411994,1.21386 4.444449,-18.16147 0.02367,-14.12577 0.05452,-14.55337 1.064108,-14.74425 0.571857,-0.10812 1.22682,-0.52142 1.455474,-0.91844 4.252076,-7.383032 8.26695,17.47915 8.068672,49.96542 -0.148339,24.30471 -0.97122,22.92168 13.531055,22.74185 11.9606,-0.14831 11.65688,-0.0366 10.68681,-3.9298 -0.36949,-1.48285 -0.93922,-4.80157 -1.26607,-7.37492 -0.78895,-6.2116 -1.14046,-7.01824 -3.05833,-7.01824 -3.11138,0 -4.0765,-0.75391 -4.28261,-3.34536 -0.2108,-2.65044 0.004,-2.85186 1.39909,-1.31055 1.90324,2.10307 6.56648,1.25798 7.29817,-1.32259 0.58962,-2.07948 0.58962,-2.07948 1.57492,-0.007 1.15713,2.43393 2.36073,2.82112 4.7574,1.53042 1.46352,-0.78815 2.00134,-0.8381 3.43647,-0.31915 2.84069,1.02721 6.56636,0.046 6.56636,-1.72932 0,-1.77146 2.83956,-4.09926 3.81301,-3.12581 3.20409,3.20408 7.78756,-5.30297 4.66954,-8.66677 -0.61128,-0.65946 -1.38534,-2.2306 -1.72014,-3.49143 -0.33481,-1.26083 -0.97804,-2.89842 -1.42942,-3.63909 -0.45137,-0.74067 -1.3306,-2.16546 -1.95384,-3.16621 -0.62324,-1.00075 -1.53168,-2.47012 -2.01875,-3.26527 -0.87887,-1.43476 -0.89716,-1.43889 -2.4119,-0.54411 -1.47679,0.87236 -1.57659,0.86445 -3.07564,-0.24385 -3.82622,-2.82885 -8.8696,0.60299 -8.8696,6.03544 0,0.82266 -0.45469,1.90722 -1.01043,2.41015 -0.55573,0.50293 -1.0821,1.53344 -1.1697,2.29002 -0.31451,2.71609 -2.52296,1.84179 -4.31824,-1.70953 -2.34036,-4.62957 -6.84631,-5.58151 -7.54363,-1.5937 -0.256752,1.46824 -0.396612,1.54987 -2.387272,1.39333 -4.10605,-0.32289 -6.64111,4.37138 -4.3712,8.09429 0.97842,1.60474 1.18716,1.68958 4.15701,1.68958 3.368652,0 4.966562,2.98512 2.08712,3.89902 -1.39051,0.44133 -1.31021,1.09849 0.25993,2.12729 1.770542,1.1601 1.631752,1.71196 -0.3899,1.55041 -3.65936,-0.29243 -5.5886,-2.01902 -5.5886,-5.0016 0,-0.96192 -0.36888,-1.69622 -1.02982,-2.04994 -5.731242,-3.06727 -3.950653,-10.50573 3.36923,-14.07508 1.14372,-0.5577 3.11053,-1.59715 4.370692,-2.3099 3.33708,-1.88743 5.38506,-1.65703 8.2209,0.92485 1.28357,1.16862 2.74456,0.56024 2.74456,-1.14288 0,-4.89663 8.027,-9.04104 12.85546,-6.63738 0.83359,0.41497 2.35121,0.62118 3.60055,0.48922 2.22852,-0.23538 2.61851,-0.006 5.01998,2.95527 1.03716,1.27884 0.87091,1.33953 4.73712,-1.72956 1.27624,-1.01311 2.44251,-1.48532 3.56755,-1.44446 0.91929,0.0334 2.51703,0.0641 3.55051,0.0682 4.55321,0.018 7.39198,1.23205 8.65432,3.70107 0.64665,1.26479 1.65836,2.51861 2.24824,2.78627 0.58988,0.26766 1.54934,1.43737 2.13212,2.59935 0.58279,1.16198 1.52227,2.6182 2.08774,3.23602 1.40639,1.53663 1.02429,2.9592 -0.89187,3.32046 -1.51003,0.28469 -1.92667,1.54087 -0.66085,1.99248 2.9323,1.04617 5.60596,5.64855 5.60596,9.65003 0,3.38025 -3.98405,6.27859 -5.73328,4.17089 -0.69237,-0.83425 0.16642,-3.36142 1.1423,-3.36142 0.23761,0 0.43202,-0.28073 0.43202,-0.62385 0,-0.48521 -0.13863,-0.48521 -0.62384,0 -1.21546,1.21546 -4.01475,0.76108 -4.70986,-0.76451 -0.48626,-1.06723 -0.48971,-1.43598 -0.0149,-1.59424 2.93474,-0.97824 4.17597,-4.12133 2.17972,-5.51956 -0.76454,-0.53551 -0.98889,-1.07986 -0.75229,-1.82533 0.19592,-0.61728 -0.002,-1.57954 -0.472,-2.29715 -0.44502,-0.6792 -0.66803,-1.37601 -0.49556,-1.54847 0.61483,-0.61484 -0.92895,-4.02438 -2.29707,-5.07327 -0.76561,-0.58695 -1.75046,-1.68109 -2.18857,-2.43142 -1.30983,-2.24327 -2.26319,-2.57194 -4.29165,-1.47954 -1.67186,0.90035 -1.86569,0.90697 -3.01382,0.10279 -1.77834,-1.2456 -2.38647,-1.09762 -5.21246,1.26843 -3.05426,2.55717 -3.06469,2.67122 -0.56996,6.23381 5.72724,8.17878 4.94935,13.91373 -2.3868,17.5966 -2.89821,1.45495 -3.07408,2.07781 -1.39549,4.94211 2.54636,4.34503 5.0984,3.77038 5.66939,-1.27659 0.36952,-3.26606 1.16674,-4.27547 1.16674,-1.47727 0,3.26491 3.17995,3.6153 4.59218,0.506 0.42254,-0.93031 0.76319,-1.06787 1.81954,-0.73478 0.71482,0.2254 2.64484,0.39636 4.28892,0.37993 3.10411,-0.031 3.77519,0.55529 2.16502,1.89162 -0.45333,0.37623 -1.18416,1.58357 -1.62405,2.68297 -1.07292,2.6815 -3.14677,3.73788 -6.47203,3.29677 -3.02523,-0.40131 -3.14427,0.18819 -1.50339,7.44479 1.03133,4.56095 1.50409,5.2328 3.69139,5.24593 2.49145,0.015 3.69653,2.88318 1.40365,3.34085 -6.87305,1.37191 -51.441542,1.92965 -64.073916,0.80185 -6.633603,-0.59224 -13.647532,-0.35112 -21.372086,0.73473 -3.057898,0.42985 -5.176465,0.49526 -5.9785,0.1846 z m 18.694109,-4.79699 c 0.587216,-0.55007 0.570986,-0.85669 -0.09986,-1.88659 -0.440569,-0.67637 -0.963638,-3.0408 -1.162379,-5.25428 -0.458056,-5.10163 -0.892541,-5.48468 -4.468622,-3.93963 -2.791805,1.2062 -6.6618,1.55317 -8.352578,0.74886 -1.573944,-0.74874 -1.7077,8.56857 -0.158981,11.07445 0.458727,0.74223 13.376294,0.0685 14.242416,-0.74281 z m 58.761848,0.33145 c 2.40145,-0.3456 2.40145,-0.3456 2.48911,-5.01592 0.1191,-6.34527 -0.0226,-6.82282 -2.38207,-8.02652 -1.10982,-0.56618 -2.56821,-1.74494 -3.24087,-2.61944 -3.5341,-4.59459 -2.99973,-4.28016 -6.06549,-3.56894 -2.19416,0.50902 -3.4068,0.508 -5.89028,-0.005 -4.42339,-0.91364 -4.35445,-1.05636 -4.27781,8.85544 0.0947,12.24172 -0.45963,11.56622 9.1122,11.10465 4.31957,-0.2083 8.93441,-0.53424 10.25521,-0.72432 z M 56.252401,143.26538 c -1.076959,-1.07696 -1.276043,-1.7727 -1.276043,-4.4594 0,-3.18336 0,-3.18336 2.173054,-1.3233 1.334683,1.14244 2.717196,1.86005 3.583467,1.86005 1.484408,0 2.041523,0.78689 2.041523,2.88351 0,2.50533 -4.360981,3.20016 -6.522001,1.03914 z M 40.45988,118.10258 c -0.869242,-1.6242 -0.727106,-2.02203 1.909641,-5.34502 1.358159,-1.71164 3.171204,-3.99686 4.028989,-5.07826 4.944179,-6.23312 6.389438,-7.857292 9.295301,-10.445992 4.332986,-3.86006 11.186658,-7.12231 13.203678,-6.28476 2.040906,0.84746 5.253138,4.04154 5.648427,5.6165 0.406814,1.62087 0.56682,1.49074 -7.468448,6.074162 -3.367436,1.92083 -8.40052,5.17486 -11.184633,7.23119 -4.863057,3.59183 -12.185125,8.2731 -14.003314,8.95284 -0.566111,0.21164 -1.065377,-0.04 -1.429641,-0.72066 z m 73.04868,-7.95268 c -2.11012,-1.24202 -13.646162,-5.121 -18.995772,-6.3873 -4.19547,-0.99311 -5.397977,-2.35512 -6.453125,-7.309102 -1.295775,-6.08373 -1.462763,-7.53811 -0.8655,-7.53811 0.726637,0 10.965075,5.11705 11.971115,5.98302 0.42889,0.36918 2.885272,1.7875 5.458632,3.15182 10.12741,5.369292 17.80535,11.872862 14.42637,12.219852 -0.21445,0.022 -1.32567,0.13547 -2.46938,0.25213 -1.14371,0.11665 -2.52627,-0.0509 -3.07234,-0.37231 z M 75.956734,93.598598 c -4.011451,-1.61882 -3.588391,-7.22866 0.594212,-7.87932 5.125756,-0.79739 8.093854,5.44553 3.520931,7.40572 -2.571937,1.10246 -2.560173,1.10111 -4.115143,0.4736 z m 0.0343,-12.87115 c -0.22617,-0.50037 -0.458294,-4.06798 -0.515833,-7.92801 -0.06102,-4.093645 -0.454252,-8.643015 -0.943651,-10.917262 -0.46147,-2.144461 -0.856306,-5.53661 -0.877414,-7.538108 -0.02111,-2.001498 -0.218077,-4.90452 -0.43771,-6.451161 -0.539196,-3.796994 -0.05596,-5.980849 1.369084,-6.187224 1.616169,-0.234054 2.072197,1.006469 2.943139,8.006154 0.493408,3.965478 1.157344,6.939545 1.846504,8.271318 7.091281,13.703608 7.237817,14.794413 2.676886,19.926283 -3.415401,3.84293 -5.218756,4.68139 -6.061005,2.81801 z"
       id="path179" /></g></svg>
