<?xml version="1.0" encoding="UTF-8" standalone="no"?>
<!-- Generator: Adobe Illustrator 16.0.4, SVG Export Plug-In . SVG Version: 6.00 Build 0)  -->

<svg
   xmlns:dc="http://purl.org/dc/elements/1.1/"
   xmlns:cc="http://creativecommons.org/ns#"
   xmlns:rdf="http://www.w3.org/1999/02/22-rdf-syntax-ns#"
   xmlns:svg="http://www.w3.org/2000/svg"
   xmlns="http://www.w3.org/2000/svg"
   xmlns:sodipodi="http://sodipodi.sourceforge.net/DTD/sodipodi-0.dtd"
   xmlns:inkscape="http://www.inkscape.org/namespaces/inkscape"
   version="1.1"
   id="Calque_1"
   x="0px"
   y="0px"
   width="270.98102"
   height="469.15103"
   viewBox="0 0 270.981 469.15101"
   enable-background="new 0 0 595.28 841.89"
   xml:space="preserve"
   inkscape:version="0.48.5 r10040"
   sodipodi:docname="logo-Agglo.svg"><metadata
     id="metadata15"><rdf:RDF><cc:Work
         rdf:about=""><dc:format>image/svg+xml</dc:format><dc:type
           rdf:resource="http://purl.org/dc/dcmitype/StillImage" /></cc:Work></rdf:RDF></metadata><defs
     id="defs13" /><sodipodi:namedview
     pagecolor="#ffffff"
     bordercolor="#666666"
     borderopacity="1"
     objecttolerance="10"
     gridtolerance="10"
     guidetolerance="10"
     inkscape:pageopacity="0"
     inkscape:pageshadow="2"
     inkscape:window-width="1920"
     inkscape:window-height="1014"
     id="namedview11"
     showgrid="false"
     fit-margin-top="20"
     fit-margin-left="20"
     fit-margin-right="20"
     fit-margin-bottom="20"
     inkscape:zoom="0.79286936"
     inkscape:cx="34.93853"
     inkscape:cy="246.11743"
     inkscape:window-x="1920"
     inkscape:window-y="27"
     inkscape:window-maximized="1"
     inkscape:current-layer="Calque_1" /><g
     id="g3"
     transform="translate(-162.15,-151.874)"><path
       d="m 347.601,255.868 c -30.298,8.007 -43.552,33.06 -47.678,67.237 -12.053,-2.047 -23.868,-4.333 -35.699,-6.601 10.879,-37.015 35.932,-60.983 83.377,-60.636"
       id="path5"
       inkscape:connector-curvature="0"
       style="fill:#008ab6" /><path
       d="m 382.861,575.619 -2.956,9.574 c 4.716,1.828 9.993,3.023 15.413,3.023 9.43,0 15.271,-3.939 15.271,-12.457 0,-7.318 -4.223,-9.781 -14.637,-12.525 -3.239,-0.986 -3.66,-1.408 -3.66,-2.535 0,-1.123 0.632,-1.617 3.096,-1.617 3.237,0 6.897,0.984 11.754,3.096 l 2.813,-9.781 c -4.925,-1.76 -8.655,-2.676 -14.214,-2.676 -10.064,0 -15.062,4.506 -15.062,12.105 0,7.67 3.942,9.992 15.343,13.02 2.393,0.635 2.956,1.125 2.956,2.322 0,1.125 -0.915,1.689 -3.379,1.689 -3.238,0 -8.304,-1.265 -12.738,-3.238 m 15.903,-81.258 c 0,-1.159 0.31,-1.863 0.975,-2.711 l -1.139,-0.869 c -0.682,0.826 -1.156,1.986 -1.156,3.477 0,1.969 1.114,3.395 2.77,3.395 1.741,0 2.403,-0.91 3.334,-3.084 0.828,-1.925 1.326,-2.566 2.218,-2.566 1.056,0 1.676,0.703 1.676,2.193 0,1.076 -0.437,2.092 -1.201,2.959 l 1.138,0.91 c 0.827,-1.033 1.385,-2.334 1.385,-3.828 0,-1.884 -0.928,-3.723 -3.06,-3.723 -1.947,0 -2.547,1.197 -3.479,3.248 -0.829,1.843 -1.201,2.401 -2.113,2.401 -0.79,0 -1.348,-0.662 -1.348,-1.802 m 3.604,13.083 c -2.423,-0.188 -3.581,-1.305 -3.581,-2.919 0,-1.906 1.468,-2.816 3.581,-2.941 v 5.86 z m 6.394,-2.856 c 0,-1.639 -0.434,-2.59 -1.261,-3.893 l -1.116,0.722 c 0.663,0.997 1.034,1.74 1.034,3.003 0,1.781 -1.469,2.879 -3.791,3.024 v -7.245 c -0.245,-0.041 -0.473,-0.062 -0.846,-0.062 -3.106,0 -5.339,1.529 -5.339,4.366 0,2.589 2.149,4.491 5.607,4.491 4.265,0 5.712,-2.42 5.712,-4.406 m -1.343,11.9 c 0,1.72 -1.431,2.755 -4.162,2.755 -2.919,0 -4.47,-0.893 -4.47,-2.692 0,-1.285 0.722,-2.341 1.633,-2.939 h 5.426 c 0.953,0.765 1.573,1.715 1.573,2.876 m 1.343,0.393 c 0,-1.469 -0.724,-2.504 -1.549,-3.27 h 1.323 v -1.552 h -15.09 l 0.868,1.552 h 4.574 c -0.866,0.766 -1.445,1.696 -1.445,3.062 0,2.279 1.984,4.097 5.835,4.097 3.829,10e-4 5.484,-1.715 5.484,-3.889 m -40.954,-13.517 c 0,-1.065 0.331,-1.911 0.994,-2.534 0.664,-0.622 1.577,-0.933 2.74,-0.933 2.344,0 3.518,1.294 3.518,3.88 0,0.601 -0.065,1.473 -0.194,2.619 h -7.058 v -3.032 z m 4.268,15.72 c 1.828,0 3.486,-0.574 4.974,-1.723 1.488,-1.146 2.497,-2.926 3.032,-5.336 h -1.043 c -1.214,3.979 -3.533,5.968 -6.963,5.968 -1.665,0 -2.82,-0.555 -3.469,-1.662 -0.646,-1.106 -0.914,-4.055 -0.8,-8.843 h 12.274 c -0.114,-2.715 -0.983,-4.842 -2.606,-6.378 -1.627,-1.538 -3.523,-2.306 -5.691,-2.306 -2.487,0 -4.677,0.972 -6.562,2.913 -1.884,1.938 -2.824,4.331 -2.824,7.179 0,2.926 0.962,5.357 2.887,7.289 1.924,1.934 4.189,2.899 6.791,2.899 m 5.178,-28.974 c 0.526,-0.478 0.788,-1.056 0.788,-1.736 0,-0.435 -0.2,-0.853 -0.604,-1.248 -0.404,-0.395 -0.866,-0.595 -1.381,-0.595 -0.551,0 -1.053,0.195 -1.506,0.582 -0.453,0.389 -1.132,1.124 -2.037,2.209 l -4.851,5.846 0.629,0.604 6.063,-3.661 c 1.409,-0.857 2.374,-1.523 2.899,-2.001 m -24.584,74.601 c 0.422,-3.658 2.041,-5.629 4.926,-5.629 3.731,0 4.998,1.9 5.632,5.629 H 352.67 z m -11.613,4.295 c 0,11.33 6.124,19.211 17.243,19.211 5.772,0 10.486,-1.547 15.061,-4.223 l -4.855,-8.092 c -3.66,1.9 -6.334,2.602 -9.571,2.602 -3.447,0 -5.842,-1.828 -6.264,-5.908 h 21.676 c 0.07,-0.635 0.07,-1.41 0.07,-2.465 0,-13.723 -6.334,-20.41 -16.468,-20.41 -9.713,0 -16.892,6.545 -16.892,19.285 m 18.601,-51.768 h -3.18 v -18.19 c -1.453,0.243 -3.007,0.363 -4.656,0.363 h -3.444 v 1.239 h 3.395 v 16.588 h -3.395 v 1.239 h 11.28 v -1.239 z m -3.543,-25.636 c 0.518,-0.5 0.777,-1.133 0.777,-1.893 0,-0.727 -0.264,-1.346 -0.788,-1.854 -0.524,-0.508 -1.146,-0.766 -1.857,-0.766 -0.709,0 -1.329,0.261 -1.854,0.778 -0.528,0.516 -0.789,1.131 -0.789,1.842 0,0.746 0.258,1.371 0.777,1.881 0.517,0.51 1.139,0.763 1.865,0.763 0.73,0 1.353,-0.251 1.869,-0.751 m -24.096,25.032 c -1.399,0.405 -3.206,0.604 -5.423,0.604 h -4.221 v -30.051 h 4.318 c 2.393,0 4.332,0.238 5.82,0.713 1.49,0.479 2.744,1.713 3.773,3.701 1.026,1.988 1.539,5.004 1.539,9.049 0,3.361 -0.162,6.086 -0.483,8.174 -0.326,2.084 -0.944,3.809 -1.857,5.165 -0.913,1.359 -2.068,2.24 -3.466,2.645 m -5.23,1.844 c 3.332,0 6.158,-0.481 8.479,-1.444 2.321,-0.959 4.369,-2.81 6.15,-5.541 1.778,-2.734 2.666,-5.838 2.666,-9.316 0,-3.281 -0.81,-6.326 -2.426,-9.129 -1.616,-2.807 -3.634,-4.692 -6.051,-5.654 -2.418,-0.961 -5.324,-1.442 -8.723,-1.442 H 311.53 v 1.237 h 5.07 v 30.051 h -5.07 v 1.239 h 15.259 z m -14.092,50.174 c 0,-6.896 1.407,-8.514 4.01,-8.514 1.973,0 3.238,0.701 4.506,1.758 v 14.146 c -1.268,1.055 -2.605,1.76 -4.434,1.76 -2.675,10e-4 -4.082,-1.759 -4.082,-9.15 m -12.457,0.422 c 0,13.725 5.348,18.791 12.246,18.791 3.869,0 6.264,-1.406 8.727,-3.377 v 1.266 c 0,5.068 -2.183,6.475 -11.19,7.953 l 4.646,7.318 c 13.372,-1.9 19.281,-6.475 19.281,-19.143 v -31.387 h -12.736 v 2.463 c -2.041,-1.549 -4.506,-3.238 -8.234,-3.238 -8.025,10e-4 -12.74,6.124 -12.74,19.354 m 6.225,-62.918 h -10.382 v 4.027 h 10.382 v -4.027 z m -39.653,69.463 -2.956,9.574 c 4.716,1.828 9.993,3.023 15.413,3.023 9.43,0 15.271,-3.939 15.271,-12.457 0,-7.318 -4.223,-9.781 -14.638,-12.525 -3.238,-0.986 -3.661,-1.408 -3.661,-2.535 0,-1.123 0.634,-1.617 3.096,-1.617 3.238,0 6.897,0.984 11.752,3.096 l 2.817,-9.781 c -4.928,-1.76 -8.657,-2.676 -14.216,-2.676 -10.063,0 -15.062,4.506 -15.062,12.105 0,7.67 3.942,9.992 15.342,13.02 2.394,0.635 2.956,1.125 2.956,2.322 0,1.125 -0.914,1.689 -3.378,1.689 -3.235,0 -8.302,-1.265 -12.736,-3.238 m 18.037,-62.965 V 500.65 h 5.751 v -1.239 h -5.751 v -5.53 c -1.55,0.275 -3.127,0.412 -4.729,0.412 v 5.118 h -4.316 v 1.239 h 4.316 v 11.715 c 0,1.438 0.083,2.58 0.256,3.421 0.167,0.841 0.627,1.55 1.368,2.122 0.746,0.574 1.911,0.859 3.494,0.859 3.767,0 6.024,-1.566 6.769,-4.706 h -1.045 c -0.37,1.086 -0.917,1.886 -1.637,2.402 -0.718,0.519 -1.467,0.774 -2.243,0.774 -1.019,0 -1.646,-0.32 -1.88,-0.968 -0.233,-0.646 -0.353,-1.851 -0.353,-3.615 m -27.529,4.584 v -8.149 c 0,-2.715 0.626,-4.877 1.879,-6.487 1.253,-1.61 2.664,-2.413 4.232,-2.413 0.986,0 1.597,0.356 1.831,1.067 0.235,0.711 0.351,1.998 0.351,3.855 v 12.127 h -3.224 v 1.239 h 11.739 v -1.239 h -3.783 v -10.186 c 0,-2.069 -0.166,-3.599 -0.498,-4.586 -0.332,-0.986 -0.956,-1.844 -1.867,-2.569 -0.914,-0.727 -2.083,-1.093 -3.505,-1.093 -3.043,0 -5.395,1.659 -7.059,4.973 h -0.097 v -4.729 c -1.779,0.243 -3.76,0.363 -5.943,0.363 h -2.208 v 1.239 h 3.444 v 16.588 h -3.444 v 1.239 h 11.328 v -1.239 h -3.176 z m -21.543,51.698 c 0,-6.264 1.689,-8.939 4.996,-8.939 3.309,0 4.998,2.676 4.998,8.939 0,6.121 -1.689,9.008 -4.998,9.008 -3.307,-10e-4 -4.996,-2.887 -4.996,-9.008 m -12.527,0 c 0,12.736 7.319,19.281 17.523,19.281 10.206,0 17.596,-6.545 17.596,-19.281 0,-12.881 -7.39,-19.215 -17.596,-19.215 -10.204,0 -17.523,6.334 -17.523,19.215 m 23.591,-51.698 h -3.177 v -18.19 c -1.457,0.243 -3.008,0.363 -4.657,0.363 h -3.444 v 1.239 h 3.395 v 16.588 h -3.395 v 1.239 h 11.278 v -1.239 z M 243.3,491.602 c 0.518,-0.5 0.776,-1.133 0.776,-1.893 0,-0.727 -0.264,-1.346 -0.789,-1.854 -0.526,-0.509 -1.145,-0.766 -1.855,-0.766 -0.712,0 -1.331,0.261 -1.857,0.778 -0.525,0.516 -0.787,1.131 -0.787,1.842 0,0.746 0.259,1.371 0.775,1.881 0.517,0.51 1.14,0.763 1.868,0.763 0.728,0 1.35,-0.251 1.869,-0.751 m -25.214,24.377 c -0.575,-0.597 -0.862,-1.438 -0.862,-2.521 0,-1.488 0.477,-2.625 1.431,-3.41 0.954,-0.783 2.926,-1.23 5.918,-1.346 v 2.62 c 0,1.134 -0.128,2.022 -0.388,2.668 -0.259,0.647 -0.772,1.29 -1.539,1.931 -0.769,0.639 -1.629,0.957 -2.584,0.957 -0.743,-0.001 -1.404,-0.3 -1.976,-0.899 m -0.159,3.105 c 2.539,0 4.754,-1.294 6.646,-3.882 0.437,2.588 1.779,3.882 4.026,3.882 2.33,0 3.704,-1.18 4.125,-3.542 h -0.582 c -0.551,0.792 -1.117,1.19 -1.697,1.19 -0.389,0 -0.676,-0.162 -0.862,-0.486 -0.185,-0.324 -0.278,-1.139 -0.278,-2.451 v -8.924 c 0,-1.36 -0.118,-2.412 -0.354,-3.153 -0.233,-0.746 -0.852,-1.368 -1.854,-1.87 -1.004,-0.5 -2.588,-0.75 -4.755,-0.75 -2.701,0 -4.807,0.441 -6.319,1.32 -1.512,0.881 -2.268,1.969 -2.268,3.264 0,0.598 0.194,1.121 0.582,1.564 0.388,0.445 0.938,0.666 1.65,0.666 0.549,0 1.042,-0.174 1.479,-0.521 0.436,-0.348 0.654,-0.852 0.654,-1.516 0,-0.469 -0.108,-0.878 -0.328,-1.225 -0.218,-0.348 -0.326,-0.666 -0.326,-0.959 0,-1.002 1.309,-1.503 3.929,-1.503 1.456,0 2.349,0.317 2.681,0.944 0.331,0.631 0.497,1.957 0.497,3.979 v 2.475 c -8.118,0.389 -12.176,2.645 -12.176,6.769 0,1.326 0.501,2.446 1.505,3.358 1.001,0.914 2.344,1.371 4.025,1.371 m -22.335,31.412 H 182.15 l 12.809,36.947 h 12.457 l 12.809,-36.947 h -13.371 l -3.378,13.582 c -0.775,3.096 -1.831,7.529 -2.322,11.049 -0.423,-3.52 -1.479,-7.953 -2.252,-11.049 l -3.31,-13.582 z m -5.426,-55.111 c -1.042,-0.874 -1.565,-1.932 -1.565,-3.177 0,-1.341 0.626,-2.641 1.879,-3.895 1.253,-1.251 3.012,-1.879 5.277,-1.879 4.091,0 6.945,2.532 8.562,7.591 h 1.141 l -0.145,-8.438 h -0.996 c -0.435,0.759 -0.954,1.423 -1.552,1.987 -2.167,-1.584 -4.503,-2.377 -7.01,-2.377 -2.993,0 -5.361,0.967 -7.107,2.898 -1.747,1.934 -2.62,4.129 -2.62,6.587 0,1.777 0.502,3.399 1.504,4.862 1.002,1.465 2.207,2.49 3.614,3.082 1.406,0.59 3.423,1.105 6.052,1.552 2.628,0.444 4.528,1.253 5.701,2.424 1.172,1.175 1.758,2.616 1.758,4.333 0,2.037 -0.845,3.722 -2.535,5.056 -1.689,1.335 -3.546,2.002 -5.565,2.002 -2.039,0 -3.914,-0.72 -5.628,-2.159 -1.714,-1.438 -3.049,-3.591 -4.003,-6.451 h -1.042 v 9.095 h 0.85 l 2.279,-2.036 c 2.49,1.859 4.988,2.789 7.495,2.789 3.073,0 5.648,-1.06 7.727,-3.179 2.077,-2.118 3.117,-4.769 3.117,-7.958 0,-2.066 -0.497,-3.903 -1.492,-5.504 -0.995,-1.602 -2.216,-2.744 -3.662,-3.432 -1.447,-0.688 -3.554,-1.271 -6.318,-1.746 -2.77,-0.478 -4.673,-1.155 -5.716,-2.027 m 31.855,-293.246 h -1.549 c -0.66,2.702 -1.282,4.812 -1.863,6.329 -0.583,1.518 -1.407,2.824 -2.473,3.924 -1.066,1.099 -2.148,1.79 -3.248,2.076 -1.098,0.287 -2.605,0.429 -4.517,0.429 h -9.924 V 174.05 h 7.352 v -1.682 h -22.153 v 1.682 h 6.956 v 40.847 h -6.956 v 1.682 h 37.155 l 1.22,-14.44 z m 10.062,-17.876 c 0,-1.934 -0.604,-3.534 -1.813,-4.797 -1.208,-1.264 -2.659,-1.897 -4.352,-1.897 -1.341,0 -2.473,0.407 -3.395,1.221 -0.924,0.813 -1.386,1.847 -1.386,3.098 0,1.1 0.335,2.007 1.005,2.722 0.67,0.714 1.5,1.07 2.49,1.07 1.67,0 2.79,-0.857 3.362,-2.57 0.242,-0.728 0.537,-1.09 0.891,-1.09 0.856,0 1.285,0.968 1.285,2.902 0,2.858 -1.978,6.012 -5.934,9.463 l 1.022,1.087 c 4.55,-3.846 6.825,-7.582 6.825,-11.209 m 23.408,22.59 c 0,1.539 -0.176,2.747 -0.527,3.627 -0.353,0.877 -1.051,1.752 -2.095,2.62 -1.044,0.869 -2.215,1.301 -3.511,1.301 -1.01,0 -1.907,-0.404 -2.687,-1.219 -0.78,-0.813 -1.171,-1.957 -1.171,-3.429 0,-2.021 0.648,-3.565 1.946,-4.632 1.296,-1.065 3.978,-1.674 8.044,-1.83 v 3.562 z m 11.076,5.737 h -0.79 c -0.748,1.077 -1.517,1.615 -2.31,1.615 -0.527,0 -0.917,-0.221 -1.168,-0.66 -0.254,-0.439 -0.38,-1.549 -0.38,-3.329 v -12.134 c 0,-1.846 -0.158,-3.274 -0.478,-4.285 -0.319,-1.011 -1.159,-1.857 -2.522,-2.54 -1.363,-0.68 -3.516,-1.021 -6.462,-1.021 -3.67,0 -6.533,0.599 -8.587,1.796 -2.055,1.201 -3.082,2.675 -3.082,4.434 0,0.815 0.263,1.524 0.79,2.128 0.529,0.604 1.275,0.907 2.242,0.907 0.748,0 1.419,-0.237 2.011,-0.709 0.593,-0.471 0.89,-1.159 0.89,-2.06 0,-0.638 -0.148,-1.192 -0.443,-1.665 -0.298,-0.473 -0.447,-0.907 -0.447,-1.303 0,-1.362 1.781,-2.044 5.342,-2.044 1.978,0 3.192,0.427 3.643,1.285 0.45,0.856 0.676,2.661 0.676,5.407 v 3.363 c -11.033,0.526 -16.55,3.593 -16.55,9.198 0,1.803 0.681,3.325 2.044,4.566 1.363,1.242 3.186,1.864 5.473,1.864 3.451,0 6.463,-1.759 9.034,-5.275 0.592,3.517 2.417,5.275 5.472,5.275 3.163,0 5.032,-1.605 5.602,-4.813 m 22.584,-14.902 c 0,4.175 -0.231,6.801 -0.692,7.878 -0.462,1.077 -1.834,1.617 -4.121,1.617 -2.243,0 -3.599,-0.528 -4.07,-1.584 -0.476,-1.056 -0.712,-3.406 -0.712,-7.055 0,-2.527 0.254,-4.33 0.76,-5.407 0.505,-1.075 1.824,-1.615 3.956,-1.615 1.604,0 2.818,0.379 3.642,1.136 0.824,0.759 1.237,2.436 1.237,5.03 m -9.858,22.681 3.56,-0.132 c 0.969,-0.021 2.451,-0.097 4.45,-0.229 1.999,-0.133 3.286,-0.199 3.858,-0.199 1.452,0 2.76,0.363 3.924,1.09 1.166,0.724 1.746,1.756 1.746,3.098 0,2.24 -1.158,4.196 -3.477,5.869 -2.32,1.669 -5.258,2.506 -8.819,2.506 -5.585,0 -8.374,-2.044 -8.374,-6.135 10e-4,-2.592 1.044,-4.549 3.132,-5.868 m 20.475,-25.863 c 0.481,-0.452 0.726,-1.061 0.726,-1.829 0,-0.881 -0.276,-1.572 -0.825,-2.079 -0.551,-0.505 -1.199,-0.759 -1.946,-0.759 -1.933,0 -3.69,1.1 -5.275,3.297 -2.152,-2.197 -4.836,-3.297 -8.042,-3.297 -2.946,0 -5.506,0.93 -7.682,2.786 -2.175,1.857 -3.264,4.15 -3.264,6.875 0,3.362 1.757,5.879 5.273,7.55 v 0.132 c -4.548,0.549 -6.824,2.933 -6.824,7.152 0,3.144 1.824,5.156 5.473,6.034 -2.374,1.362 -3.902,2.457 -4.583,3.281 -0.68,0.824 -1.021,1.841 -1.021,3.05 0,1.978 1.071,3.698 3.215,5.158 2.144,1.463 5.038,2.194 8.687,2.194 4.705,0 8.385,-1.105 11.045,-3.314 2.659,-2.209 3.987,-4.929 3.987,-8.16 0,-2.77 -0.736,-4.901 -2.208,-6.395 -1.473,-1.495 -3.385,-2.242 -5.735,-2.242 l -11.276,0.46 c -2.375,0 -3.857,-0.196 -4.453,-0.592 -0.593,-0.396 -0.889,-0.979 -0.889,-1.747 0,-0.879 0.572,-1.709 1.714,-2.489 1.143,-0.78 2.142,-1.171 3.001,-1.171 0.085,0 0.792,0.061 2.111,0.181 1.316,0.121 2.36,0.182 3.13,0.182 l 1.649,-0.099 c 1.538,0 3.521,-0.775 5.951,-2.324 2.43,-1.549 3.644,-3.83 3.644,-6.84 0,-1.781 -0.65,-3.583 -1.947,-5.407 0.704,-0.813 1.329,-1.22 1.881,-1.22 0.285,0 0.63,0.386 1.039,1.154 0.405,0.771 1.026,1.153 1.861,1.153 0.571,0 1.097,-0.224 1.583,-0.675 m 23.142,3.182 c 0,4.175 -0.23,6.801 -0.693,7.878 -0.46,1.077 -1.834,1.617 -4.121,1.617 -2.241,0 -3.598,-0.528 -4.07,-1.584 -0.471,-1.056 -0.709,-3.406 -0.709,-7.055 0,-2.527 0.254,-4.33 0.759,-5.407 0.504,-1.075 1.824,-1.615 3.955,-1.615 1.604,0 2.819,0.379 3.642,1.136 0.823,0.759 1.237,2.436 1.237,5.03 m -9.857,22.681 3.562,-0.132 c 0.968,-0.021 2.448,-0.097 4.45,-0.229 2,-0.133 3.283,-0.199 3.857,-0.199 1.451,0 2.758,0.363 3.923,1.09 1.165,0.724 1.749,1.756 1.749,3.098 0,2.24 -1.162,4.196 -3.48,5.869 -2.317,1.669 -5.256,2.506 -8.818,2.506 -5.582,0 -8.374,-2.044 -8.374,-6.135 -0.001,-2.592 1.043,-4.549 3.131,-5.868 m 20.474,-25.863 c 0.482,-0.452 0.725,-1.061 0.725,-1.829 0,-0.881 -0.273,-1.572 -0.824,-2.079 -0.55,-0.505 -1.197,-0.759 -1.945,-0.759 -1.935,0 -3.693,1.1 -5.275,3.297 -2.152,-2.197 -4.834,-3.297 -8.045,-3.297 -2.944,0 -5.506,0.93 -7.68,2.786 -2.178,1.857 -3.266,4.15 -3.266,6.875 0,3.362 1.758,5.879 5.275,7.55 v 0.132 c -4.55,0.549 -6.824,2.933 -6.824,7.152 0,3.144 1.824,5.156 5.473,6.034 -2.373,1.362 -3.9,2.457 -4.582,3.281 -0.683,0.824 -1.021,1.841 -1.021,3.05 0,1.978 1.069,3.698 3.214,5.158 2.144,1.463 5.037,2.194 8.686,2.194 4.704,0 8.386,-1.105 11.045,-3.314 2.659,-2.209 3.988,-4.929 3.988,-8.16 0,-2.77 -0.735,-4.901 -2.206,-6.395 -1.473,-1.495 -3.385,-2.242 -5.737,-2.242 l -11.276,0.46 c -2.371,0 -3.855,-0.196 -4.449,-0.592 -0.595,-0.396 -0.892,-0.979 -0.892,-1.747 0,-0.879 0.571,-1.709 1.715,-2.489 1.142,-0.78 2.144,-1.171 3,-1.171 0.089,0 0.792,0.061 2.111,0.181 1.317,0.121 2.362,0.182 3.13,0.182 l 1.65,-0.099 c 1.537,0 3.521,-0.775 5.95,-2.324 2.427,-1.549 3.644,-3.83 3.644,-6.84 0,-1.781 -0.648,-3.583 -1.948,-5.407 0.704,-0.813 1.331,-1.22 1.882,-1.22 0.283,0 0.63,0.386 1.037,1.154 0.407,0.771 1.027,1.153 1.863,1.153 0.569,0 1.098,-0.224 1.582,-0.675 m 2.639,22.072 h 15.79 v -1.682 h -4.648 v -43.022 c -1.386,0.33 -3.595,0.493 -6.626,0.493 h -4.516 v 1.682 h 4.713 v 40.847 h -4.713 v 1.682 z m 39.693,-13.022 c 0,4.021 -0.14,6.71 -0.412,8.061 -0.276,1.351 -0.925,2.406 -1.947,3.165 -1.023,0.757 -2.303,1.137 -3.84,1.137 -1.518,0 -2.776,-0.373 -3.775,-1.12 -1.002,-0.75 -1.648,-1.78 -1.945,-3.1 -0.297,-1.319 -0.445,-4.011 -0.445,-8.077 0,-4.043 0.122,-6.714 0.362,-8.012 0.241,-1.296 0.875,-2.335 1.896,-3.116 1.021,-0.779 2.324,-1.171 3.908,-1.171 1.67,0 2.983,0.381 3.938,1.14 0.957,0.757 1.572,1.785 1.849,3.082 0.272,1.297 0.411,3.967 0.411,8.011 m 3.329,9.743 c 2.725,-2.738 4.087,-6.073 4.087,-10.007 0,-3.845 -1.312,-7.05 -3.938,-9.61 -2.626,-2.561 -5.83,-3.842 -9.609,-3.842 -3.87,0 -7.109,1.336 -9.728,4.007 -2.614,2.67 -3.921,5.907 -3.921,9.709 0,3.89 1.329,7.17 3.987,9.841 2.66,2.67 5.813,4.007 9.462,4.007 3.714,-0.001 6.933,-1.368 9.66,-4.105 m 33.936,141.59 c -0.348,-39.92 -14.58,-72.748 -45.477,-85.085 -14.384,5.013 -22.456,16.337 -24.695,33.495 20.479,4.583 29.259,23.985 30.32,47.189 1.329,29.107 -9.304,53.031 -35.211,57.457 3.261,-16.45 1.888,-30.955 -3.665,-41.563 -14.186,-27.1 -52.78,-29.757 -86.064,-38.388 -6.421,-1.664 -13.586,-3.885 -15.892,-9.046 -7.053,-15.784 18.035,-17.072 29.096,-17.604 6.693,-15.207 16.849,-28.47 29.585,-37.409 0.808,-0.569 2.61,-1.071 1.956,-1.712 -21.991,-0.3 -39.196,0.48 -57.213,3.179 -10.956,1.643 -20.685,3.936 -28.851,9.292 -14.667,9.619 -25.992,27.357 -21.517,52.568 5.826,32.827 36.566,39.608 67.726,46.455 5.116,1.123 10.376,2.588 15.405,3.667 5.343,1.148 10.513,2.025 14.915,4.157 7.041,3.411 12.193,12.287 7.333,21.516 -3.018,5.734 -11.363,9.134 -19.314,9.046 -8.562,-0.092 -18.61,-3.21 -26.162,-6.846 -10.173,-4.895 -17.928,-10.646 -19.071,-22.248 -12.236,0.522 -31.006,0.135 -43.765,0.242 1.896,40.17 29.345,59.15 66.748,65.04 18.409,2.896 40.696,1.71 62.838,1.71 10.999,0 20.652,-0.109 29.826,-1.71 45.289,-7.916 71.595,-42.622 71.149,-93.402"
       id="path7"
       inkscape:connector-curvature="0"
       style="fill:#76b828" /><path
       d="m 367.404,261.735 c -31.279,-1.204 -47.738,14.529 -54.523,38.631 7.665,1.3 15.1,2.831 22.738,4.157 1.978,-21.1 11.911,-35.21 28.604,-41.078 0.977,-0.341 2.612,-0.519 3.181,-1.71 m 45.727,-53.307 c 0,-4.46 -3.616,-8.074 -8.075,-8.074 -4.458,0 -8.074,3.614 -8.074,8.074 0,4.458 3.616,8.073 8.074,8.073 4.459,0 8.075,-3.614 8.075,-8.073"
       id="path9"
       inkscape:connector-curvature="0"
       style="fill:#ce7b72" /></g></svg>