<?xml version="1.0" encoding="UTF-8" standalone="no"?>
<!-- Created with Inkscape (http://www.inkscape.org/) -->

<svg
   width="173.59795mm"
   height="139.21558mm"
   viewBox="0 0 173.59795 139.21558"
   version="1.1"
   id="svg5"
   xml:space="preserve"
   inkscape:version="1.2.1 (9c6d41e410, 2022-07-14)"
   sodipodi:docname="hand_click.svg"
   xmlns:inkscape="http://www.inkscape.org/namespaces/inkscape"
   xmlns:sodipodi="http://sodipodi.sourceforge.net/DTD/sodipodi-0.dtd"
   xmlns="http://www.w3.org/2000/svg"
   xmlns:svg="http://www.w3.org/2000/svg"><sodipodi:namedview
     id="namedview7"
     pagecolor="#ffffff"
     bordercolor="#000000"
     borderopacity="0.25"
     inkscape:showpageshadow="2"
     inkscape:pageopacity="0.0"
     inkscape:pagecheckerboard="0"
     inkscape:deskcolor="#d1d1d1"
     inkscape:document-units="mm"
     showgrid="false"
     showguides="true"
     inkscape:zoom="0.52724988"
     inkscape:cx="334.75588"
     inkscape:cy="244.66577"
     inkscape:window-width="1920"
     inkscape:window-height="1017"
     inkscape:window-x="-8"
     inkscape:window-y="-8"
     inkscape:window-maximized="1"
     inkscape:current-layer="layer1" /><defs
     id="defs2" /><g
     inkscape:label="Calque 1"
     inkscape:groupmode="layer"
     id="layer1"
     transform="translate(17.441813,-14.674334)"><g
       id="g3158"
       transform="rotate(-45.000778,83.031307,393.97073)"><path
         style="fill:#858789;fill-opacity:1;stroke-width:0.352778"
         d="m 245.51297,106.73102 c -1.90571,-0.76578 -1.8074,-3.49949 0.15264,-4.24469 0.58929,-0.22405 4.41822,-0.32219 10.0465,-0.2575 8.00597,0.092 9.16611,0.17639 9.69427,0.70508 0.87766,0.87854 0.77082,2.72243 -0.20347,3.51136 -0.73586,0.59586 -1.56422,0.6487 -9.84838,0.62822 -4.97472,-0.0123 -9.40342,-0.16641 -9.84156,-0.34247 z m 50.87502,-0.50108 c -1.04062,-1.04062 -1.09718,-1.94532 -0.19152,-3.06376 l 0.67439,-0.83283 h 9.71996 c 8.68316,0 9.78402,0.0641 10.32052,0.60056 0.87821,0.87822 0.77167,2.72222 -0.20288,3.51136 -0.73551,0.59559 -1.59173,0.65058 -10.12899,0.65058 H 297.2539 Z M 261.41047,89.73289 c -5.80014,-5.775056 -7.16339,-7.314395 -7.16339,-8.088691 0,-1.832203 1.9128,-2.863664 3.44671,-1.858609 0.5185,0.339732 3.84611,3.488209 7.3947,6.996617 6.05905,5.990447 6.45175,6.458269 6.44834,7.681834 -0.004,1.403544 -0.94599,2.401254 -2.26736,2.401254 -0.43316,0 -3.39834,-2.691032 -7.859,-7.132405 z m 28.65219,5.947617 c -0.86206,-0.630349 -0.85097,-2.468255 0.0208,-3.441757 0.37188,-0.415303 3.48333,-3.433602 6.91432,-6.707331 6.62156,-6.318074 7.28556,-6.715998 8.75488,-5.246679 1.57594,1.575941 1.18079,2.176028 -6.08542,9.241573 -5.76016,5.601085 -6.95477,6.605708 -7.87007,6.618429 -0.59351,0.0082 -1.37403,-0.200657 -1.73449,-0.464235 z m -11.27752,-3.832596 c -0.81955,-1.170082 -0.81955,-19.839593 0,-21.009676 0.59897,-0.855149 2.1723,-1.051598 3.35458,-0.418861 0.6508,0.348301 0.68236,0.843386 0.68236,10.705046 0,9.56906 -0.0481,10.38338 -0.64513,10.923699 -0.94603,0.856141 -2.72548,0.751106 -3.39181,-0.200208 z"
         id="path183"
         sodipodi:nodetypes="ssssssssscsssscssssscssssssssssssssss" /><path
         style="fill:#373535;fill-opacity:1;stroke-width:0.353;stroke-dasharray:none"
         d="m 287.36401,249.77339 c -3.8148,-0.69052 -9.14055,-2.67917 -12.44127,-4.6456 -3.79504,-2.26093 -9.3904,-7.76889 -12.02639,-11.83855 -3.72381,-5.74913 -6.39878,-12.23996 -8.31254,-20.17043 -1.88514,-7.81191 -2.10062,-10.87781 -2.10062,-29.88819 v -17.31521 l 3.45987,0.1666 c 4.06443,0.19572 6.48314,1.1229 8.65791,3.31891 2.89681,2.9251 3.23117,4.213 4.4774,17.24632 0.40816,4.26861 0.8786,8.07861 1.04542,8.46666 0.1715,0.39893 0.3137,-18.8745 0.32719,-44.34857 l 0.0239,-45.05412 0.75645,-2.04171 c 1.07478,-2.90096 3.37514,-5.138698 6.09543,-5.929507 5.41912,-1.57538 11.21961,1.347059 13.20479,6.652907 0.74131,1.98135 0.75722,2.4386 0.75722,21.76618 0,10.85828 0.0739,19.74233 0.16414,19.74233 0.0903,0 0.89386,-0.46278 1.78574,-1.02839 3.30292,-2.09466 7.17236,-2.28032 10.44154,-0.50101 1.97547,1.07519 4.77027,3.94087 6.16584,6.32223 l 0.9084,1.55006 1.46786,-0.84824 c 6.12119,-3.53728 11.96282,-2.14746 15.77683,3.75356 0.72523,1.12207 1.59698,2.81429 1.93724,3.7605 l 0.61864,1.72039 2.32109,-1.08617 c 2.6127,-1.22263 5.612,-1.60735 7.5485,-0.96824 1.79134,0.59119 3.72022,2.64295 4.97592,5.29291 l 1.09798,2.31712 v 28.575 c 0,31.21363 0.0149,30.9509 -2.11439,37.21138 -3.03048,8.90999 -9.99619,15.35616 -19.05227,17.63127 -2.63189,0.6612 -3.91663,0.70725 -19.05,0.68277 -12.16726,-0.0197 -16.90088,-0.14808 -18.9178,-0.51316 z"
         id="path181" /></g></g></svg>
